<?xml version="1.0" encoding="utf-8" standalone="no"?>
<!DOCTYPE svg PUBLIC "-//W3C//DTD SVG 1.1//EN"
  "http://www.w3.org/Graphics/SVG/1.1/DTD/svg11.dtd">
<svg xmlns:xlink="http://www.w3.org/1999/xlink" width="1080pt" height="288pt" viewBox="0 0 1080 288" xmlns="http://www.w3.org/2000/svg" version="1.1">
 <metadata>
  <rdf:RDF xmlns:dc="http://purl.org/dc/elements/1.1/" xmlns:cc="http://creativecommons.org/ns#" xmlns:rdf="http://www.w3.org/1999/02/22-rdf-syntax-ns#">
   <cc:Work>
    <dc:type rdf:resource="http://purl.org/dc/dcmitype/StillImage"/>
    <dc:date>2024-01-16T03:53:14.872180</dc:date>
    <dc:format>image/svg+xml</dc:format>
    <dc:creator>
     <cc:Agent>
      <dc:title>Matplotlib v3.7.4, https://matplotlib.org/</dc:title>
     </cc:Agent>
    </dc:creator>
   </cc:Work>
  </rdf:RDF>
 </metadata>
 <defs>
  <style type="text/css">*{stroke-linejoin: round; stroke-linecap: butt}</style>
 </defs>
 <g id="figure_1">
  <g id="patch_1">
   <path d="M 0 288 
L 1080 288 
L 1080 0 
L 0 0 
L 0 288 
z
" style="fill: none"/>
  </g>
  <g id="axes_1">
   <g id="patch_2">
    <path d="M 36.3 254.153125 
L 1069.2 254.153125 
L 1069.2 35.6 
L 36.3 35.6 
z
" style="fill: #ffffff"/>
   </g>
   <g id="matplotlib.axis_1">
    <g id="xtick_1">
     <g id="text_1">
      <!-- YearsWithCurrManager -->
      <g style="fill: #262626" transform="translate(108.148906 275.160781) scale(0.11 -0.11)">
       <defs>
        <path id="ArialMT-59" d="M 1784 0 
L 1784 1941 
L 19 4581 
L 756 4581 
L 1659 3200 
Q 1909 2813 2125 2425 
Q 2331 2784 2625 3234 
L 3513 4581 
L 4219 4581 
L 2391 1941 
L 2391 0 
L 1784 0 
z
" transform="scale(0.015625)"/>
        <path id="ArialMT-65" d="M 2694 1069 
L 3275 997 
Q 3138 488 2766 206 
Q 2394 -75 1816 -75 
Q 1088 -75 661 373 
Q 234 822 234 1631 
Q 234 2469 665 2931 
Q 1097 3394 1784 3394 
Q 2450 3394 2872 2941 
Q 3294 2488 3294 1666 
Q 3294 1616 3291 1516 
L 816 1516 
Q 847 969 1125 678 
Q 1403 388 1819 388 
Q 2128 388 2347 550 
Q 2566 713 2694 1069 
z
M 847 1978 
L 2700 1978 
Q 2663 2397 2488 2606 
Q 2219 2931 1791 2931 
Q 1403 2931 1139 2672 
Q 875 2413 847 1978 
z
" transform="scale(0.015625)"/>
        <path id="ArialMT-61" d="M 2588 409 
Q 2275 144 1986 34 
Q 1697 -75 1366 -75 
Q 819 -75 525 192 
Q 231 459 231 875 
Q 231 1119 342 1320 
Q 453 1522 633 1644 
Q 813 1766 1038 1828 
Q 1203 1872 1538 1913 
Q 2219 1994 2541 2106 
Q 2544 2222 2544 2253 
Q 2544 2597 2384 2738 
Q 2169 2928 1744 2928 
Q 1347 2928 1158 2789 
Q 969 2650 878 2297 
L 328 2372 
Q 403 2725 575 2942 
Q 747 3159 1072 3276 
Q 1397 3394 1825 3394 
Q 2250 3394 2515 3294 
Q 2781 3194 2906 3042 
Q 3031 2891 3081 2659 
Q 3109 2516 3109 2141 
L 3109 1391 
Q 3109 606 3145 398 
Q 3181 191 3288 0 
L 2700 0 
Q 2613 175 2588 409 
z
M 2541 1666 
Q 2234 1541 1622 1453 
Q 1275 1403 1131 1340 
Q 988 1278 909 1158 
Q 831 1038 831 891 
Q 831 666 1001 516 
Q 1172 366 1500 366 
Q 1825 366 2078 508 
Q 2331 650 2450 897 
Q 2541 1088 2541 1459 
L 2541 1666 
z
" transform="scale(0.015625)"/>
        <path id="ArialMT-72" d="M 416 0 
L 416 3319 
L 922 3319 
L 922 2816 
Q 1116 3169 1280 3281 
Q 1444 3394 1641 3394 
Q 1925 3394 2219 3213 
L 2025 2691 
Q 1819 2813 1613 2813 
Q 1428 2813 1281 2702 
Q 1134 2591 1072 2394 
Q 978 2094 978 1738 
L 978 0 
L 416 0 
z
" transform="scale(0.015625)"/>
        <path id="ArialMT-73" d="M 197 991 
L 753 1078 
Q 800 744 1014 566 
Q 1228 388 1613 388 
Q 2000 388 2187 545 
Q 2375 703 2375 916 
Q 2375 1106 2209 1216 
Q 2094 1291 1634 1406 
Q 1016 1563 777 1677 
Q 538 1791 414 1992 
Q 291 2194 291 2438 
Q 291 2659 392 2848 
Q 494 3038 669 3163 
Q 800 3259 1026 3326 
Q 1253 3394 1513 3394 
Q 1903 3394 2198 3281 
Q 2494 3169 2634 2976 
Q 2775 2784 2828 2463 
L 2278 2388 
Q 2241 2644 2061 2787 
Q 1881 2931 1553 2931 
Q 1166 2931 1000 2803 
Q 834 2675 834 2503 
Q 834 2394 903 2306 
Q 972 2216 1119 2156 
Q 1203 2125 1616 2013 
Q 2213 1853 2448 1751 
Q 2684 1650 2818 1456 
Q 2953 1263 2953 975 
Q 2953 694 2789 445 
Q 2625 197 2315 61 
Q 2006 -75 1616 -75 
Q 969 -75 630 194 
Q 291 463 197 991 
z
" transform="scale(0.015625)"/>
        <path id="ArialMT-57" d="M 1294 0 
L 78 4581 
L 700 4581 
L 1397 1578 
Q 1509 1106 1591 641 
Q 1766 1375 1797 1488 
L 2669 4581 
L 3400 4581 
L 4056 2263 
Q 4303 1400 4413 641 
Q 4500 1075 4641 1638 
L 5359 4581 
L 5969 4581 
L 4713 0 
L 4128 0 
L 3163 3491 
Q 3041 3928 3019 4028 
Q 2947 3713 2884 3491 
L 1913 0 
L 1294 0 
z
" transform="scale(0.015625)"/>
        <path id="ArialMT-69" d="M 425 3934 
L 425 4581 
L 988 4581 
L 988 3934 
L 425 3934 
z
M 425 0 
L 425 3319 
L 988 3319 
L 988 0 
L 425 0 
z
" transform="scale(0.015625)"/>
        <path id="ArialMT-74" d="M 1650 503 
L 1731 6 
Q 1494 -44 1306 -44 
Q 1000 -44 831 53 
Q 663 150 594 308 
Q 525 466 525 972 
L 525 2881 
L 113 2881 
L 113 3319 
L 525 3319 
L 525 4141 
L 1084 4478 
L 1084 3319 
L 1650 3319 
L 1650 2881 
L 1084 2881 
L 1084 941 
Q 1084 700 1114 631 
Q 1144 563 1211 522 
Q 1278 481 1403 481 
Q 1497 481 1650 503 
z
" transform="scale(0.015625)"/>
        <path id="ArialMT-68" d="M 422 0 
L 422 4581 
L 984 4581 
L 984 2938 
Q 1378 3394 1978 3394 
Q 2347 3394 2619 3248 
Q 2891 3103 3008 2847 
Q 3125 2591 3125 2103 
L 3125 0 
L 2563 0 
L 2563 2103 
Q 2563 2525 2380 2717 
Q 2197 2909 1863 2909 
Q 1613 2909 1392 2779 
Q 1172 2650 1078 2428 
Q 984 2206 984 1816 
L 984 0 
L 422 0 
z
" transform="scale(0.015625)"/>
        <path id="ArialMT-43" d="M 3763 1606 
L 4369 1453 
Q 4178 706 3683 314 
Q 3188 -78 2472 -78 
Q 1731 -78 1267 223 
Q 803 525 561 1097 
Q 319 1669 319 2325 
Q 319 3041 592 3573 
Q 866 4106 1370 4382 
Q 1875 4659 2481 4659 
Q 3169 4659 3637 4309 
Q 4106 3959 4291 3325 
L 3694 3184 
Q 3534 3684 3231 3912 
Q 2928 4141 2469 4141 
Q 1941 4141 1586 3887 
Q 1231 3634 1087 3207 
Q 944 2781 944 2328 
Q 944 1744 1114 1308 
Q 1284 872 1643 656 
Q 2003 441 2422 441 
Q 2931 441 3284 734 
Q 3638 1028 3763 1606 
z
" transform="scale(0.015625)"/>
        <path id="ArialMT-75" d="M 2597 0 
L 2597 488 
Q 2209 -75 1544 -75 
Q 1250 -75 995 37 
Q 741 150 617 320 
Q 494 491 444 738 
Q 409 903 409 1263 
L 409 3319 
L 972 3319 
L 972 1478 
Q 972 1038 1006 884 
Q 1059 663 1231 536 
Q 1403 409 1656 409 
Q 1909 409 2131 539 
Q 2353 669 2445 892 
Q 2538 1116 2538 1541 
L 2538 3319 
L 3100 3319 
L 3100 0 
L 2597 0 
z
" transform="scale(0.015625)"/>
        <path id="ArialMT-4d" d="M 475 0 
L 475 4581 
L 1388 4581 
L 2472 1338 
Q 2622 884 2691 659 
Q 2769 909 2934 1394 
L 4031 4581 
L 4847 4581 
L 4847 0 
L 4263 0 
L 4263 3834 
L 2931 0 
L 2384 0 
L 1059 3900 
L 1059 0 
L 475 0 
z
" transform="scale(0.015625)"/>
        <path id="ArialMT-6e" d="M 422 0 
L 422 3319 
L 928 3319 
L 928 2847 
Q 1294 3394 1984 3394 
Q 2284 3394 2536 3286 
Q 2788 3178 2913 3003 
Q 3038 2828 3088 2588 
Q 3119 2431 3119 2041 
L 3119 0 
L 2556 0 
L 2556 2019 
Q 2556 2363 2490 2533 
Q 2425 2703 2258 2804 
Q 2091 2906 1866 2906 
Q 1506 2906 1245 2678 
Q 984 2450 984 1813 
L 984 0 
L 422 0 
z
" transform="scale(0.015625)"/>
        <path id="ArialMT-67" d="M 319 -275 
L 866 -356 
Q 900 -609 1056 -725 
Q 1266 -881 1628 -881 
Q 2019 -881 2231 -725 
Q 2444 -569 2519 -288 
Q 2563 -116 2559 434 
Q 2191 0 1641 0 
Q 956 0 581 494 
Q 206 988 206 1678 
Q 206 2153 378 2554 
Q 550 2956 876 3175 
Q 1203 3394 1644 3394 
Q 2231 3394 2613 2919 
L 2613 3319 
L 3131 3319 
L 3131 450 
Q 3131 -325 2973 -648 
Q 2816 -972 2473 -1159 
Q 2131 -1347 1631 -1347 
Q 1038 -1347 672 -1080 
Q 306 -813 319 -275 
z
M 784 1719 
Q 784 1066 1043 766 
Q 1303 466 1694 466 
Q 2081 466 2343 764 
Q 2606 1063 2606 1700 
Q 2606 2309 2336 2618 
Q 2066 2928 1684 2928 
Q 1309 2928 1046 2623 
Q 784 2319 784 1719 
z
" transform="scale(0.015625)"/>
       </defs>
       <use xlink:href="#ArialMT-59"/>
       <use xlink:href="#ArialMT-65" x="57.574219"/>
       <use xlink:href="#ArialMT-61" x="113.189453"/>
       <use xlink:href="#ArialMT-72" x="168.804688"/>
       <use xlink:href="#ArialMT-73" x="202.105469"/>
       <use xlink:href="#ArialMT-57" x="252.105469"/>
       <use xlink:href="#ArialMT-69" x="346.490234"/>
       <use xlink:href="#ArialMT-74" x="368.707031"/>
       <use xlink:href="#ArialMT-68" x="396.490234"/>
       <use xlink:href="#ArialMT-43" x="452.105469"/>
       <use xlink:href="#ArialMT-75" x="524.322266"/>
       <use xlink:href="#ArialMT-72" x="579.9375"/>
       <use xlink:href="#ArialMT-72" x="613.238281"/>
       <use xlink:href="#ArialMT-4d" x="646.539062"/>
       <use xlink:href="#ArialMT-61" x="729.839844"/>
       <use xlink:href="#ArialMT-6e" x="785.455078"/>
       <use xlink:href="#ArialMT-61" x="841.070312"/>
       <use xlink:href="#ArialMT-67" x="896.685547"/>
       <use xlink:href="#ArialMT-65" x="952.300781"/>
       <use xlink:href="#ArialMT-72" x="1007.916016"/>
      </g>
     </g>
    </g>
    <g id="xtick_2">
     <g id="text_2">
      <!-- PerformanceRating -->
      <g style="fill: #262626" transform="translate(376.256719 275.160781) scale(0.11 -0.11)">
       <defs>
        <path id="ArialMT-50" d="M 494 0 
L 494 4581 
L 2222 4581 
Q 2678 4581 2919 4538 
Q 3256 4481 3484 4323 
Q 3713 4166 3852 3881 
Q 3991 3597 3991 3256 
Q 3991 2672 3619 2267 
Q 3247 1863 2275 1863 
L 1100 1863 
L 1100 0 
L 494 0 
z
M 1100 2403 
L 2284 2403 
Q 2872 2403 3119 2622 
Q 3366 2841 3366 3238 
Q 3366 3525 3220 3729 
Q 3075 3934 2838 4000 
Q 2684 4041 2272 4041 
L 1100 4041 
L 1100 2403 
z
" transform="scale(0.015625)"/>
        <path id="ArialMT-66" d="M 556 0 
L 556 2881 
L 59 2881 
L 59 3319 
L 556 3319 
L 556 3672 
Q 556 4006 616 4169 
Q 697 4388 901 4523 
Q 1106 4659 1475 4659 
Q 1713 4659 2000 4603 
L 1916 4113 
Q 1741 4144 1584 4144 
Q 1328 4144 1222 4034 
Q 1116 3925 1116 3625 
L 1116 3319 
L 1763 3319 
L 1763 2881 
L 1116 2881 
L 1116 0 
L 556 0 
z
" transform="scale(0.015625)"/>
        <path id="ArialMT-6f" d="M 213 1659 
Q 213 2581 725 3025 
Q 1153 3394 1769 3394 
Q 2453 3394 2887 2945 
Q 3322 2497 3322 1706 
Q 3322 1066 3130 698 
Q 2938 331 2570 128 
Q 2203 -75 1769 -75 
Q 1072 -75 642 372 
Q 213 819 213 1659 
z
M 791 1659 
Q 791 1022 1069 705 
Q 1347 388 1769 388 
Q 2188 388 2466 706 
Q 2744 1025 2744 1678 
Q 2744 2294 2464 2611 
Q 2184 2928 1769 2928 
Q 1347 2928 1069 2612 
Q 791 2297 791 1659 
z
" transform="scale(0.015625)"/>
        <path id="ArialMT-6d" d="M 422 0 
L 422 3319 
L 925 3319 
L 925 2853 
Q 1081 3097 1340 3245 
Q 1600 3394 1931 3394 
Q 2300 3394 2536 3241 
Q 2772 3088 2869 2813 
Q 3263 3394 3894 3394 
Q 4388 3394 4653 3120 
Q 4919 2847 4919 2278 
L 4919 0 
L 4359 0 
L 4359 2091 
Q 4359 2428 4304 2576 
Q 4250 2725 4106 2815 
Q 3963 2906 3769 2906 
Q 3419 2906 3187 2673 
Q 2956 2441 2956 1928 
L 2956 0 
L 2394 0 
L 2394 2156 
Q 2394 2531 2256 2718 
Q 2119 2906 1806 2906 
Q 1569 2906 1367 2781 
Q 1166 2656 1075 2415 
Q 984 2175 984 1722 
L 984 0 
L 422 0 
z
" transform="scale(0.015625)"/>
        <path id="ArialMT-63" d="M 2588 1216 
L 3141 1144 
Q 3050 572 2676 248 
Q 2303 -75 1759 -75 
Q 1078 -75 664 370 
Q 250 816 250 1647 
Q 250 2184 428 2587 
Q 606 2991 970 3192 
Q 1334 3394 1763 3394 
Q 2303 3394 2647 3120 
Q 2991 2847 3088 2344 
L 2541 2259 
Q 2463 2594 2264 2762 
Q 2066 2931 1784 2931 
Q 1359 2931 1093 2626 
Q 828 2322 828 1663 
Q 828 994 1084 691 
Q 1341 388 1753 388 
Q 2084 388 2306 591 
Q 2528 794 2588 1216 
z
" transform="scale(0.015625)"/>
        <path id="ArialMT-52" d="M 503 0 
L 503 4581 
L 2534 4581 
Q 3147 4581 3465 4457 
Q 3784 4334 3975 4021 
Q 4166 3709 4166 3331 
Q 4166 2844 3850 2509 
Q 3534 2175 2875 2084 
Q 3116 1969 3241 1856 
Q 3506 1613 3744 1247 
L 4541 0 
L 3778 0 
L 3172 953 
Q 2906 1366 2734 1584 
Q 2563 1803 2427 1890 
Q 2291 1978 2150 2013 
Q 2047 2034 1813 2034 
L 1109 2034 
L 1109 0 
L 503 0 
z
M 1109 2559 
L 2413 2559 
Q 2828 2559 3062 2645 
Q 3297 2731 3419 2920 
Q 3541 3109 3541 3331 
Q 3541 3656 3305 3865 
Q 3069 4075 2559 4075 
L 1109 4075 
L 1109 2559 
z
" transform="scale(0.015625)"/>
       </defs>
       <use xlink:href="#ArialMT-50"/>
       <use xlink:href="#ArialMT-65" x="66.699219"/>
       <use xlink:href="#ArialMT-72" x="122.314453"/>
       <use xlink:href="#ArialMT-66" x="155.615234"/>
       <use xlink:href="#ArialMT-6f" x="183.398438"/>
       <use xlink:href="#ArialMT-72" x="239.013672"/>
       <use xlink:href="#ArialMT-6d" x="272.314453"/>
       <use xlink:href="#ArialMT-61" x="355.615234"/>
       <use xlink:href="#ArialMT-6e" x="411.230469"/>
       <use xlink:href="#ArialMT-63" x="466.845703"/>
       <use xlink:href="#ArialMT-65" x="516.845703"/>
       <use xlink:href="#ArialMT-52" x="572.460938"/>
       <use xlink:href="#ArialMT-61" x="644.677734"/>
       <use xlink:href="#ArialMT-74" x="700.292969"/>
       <use xlink:href="#ArialMT-69" x="728.076172"/>
       <use xlink:href="#ArialMT-6e" x="750.292969"/>
       <use xlink:href="#ArialMT-67" x="805.908203"/>
      </g>
     </g>
    </g>
    <g id="xtick_3">
     <g id="text_3">
      <!-- JobLevel -->
      <g style="fill: #262626" transform="translate(659.847891 275.026719) scale(0.11 -0.11)">
       <defs>
        <path id="ArialMT-4a" d="M 184 1300 
L 731 1375 
Q 753 850 928 656 
Q 1103 463 1413 463 
Q 1641 463 1806 567 
Q 1972 672 2034 851 
Q 2097 1031 2097 1425 
L 2097 4581 
L 2703 4581 
L 2703 1459 
Q 2703 884 2564 568 
Q 2425 253 2123 87 
Q 1822 -78 1416 -78 
Q 813 -78 492 269 
Q 172 616 184 1300 
z
" transform="scale(0.015625)"/>
        <path id="ArialMT-62" d="M 941 0 
L 419 0 
L 419 4581 
L 981 4581 
L 981 2947 
Q 1338 3394 1891 3394 
Q 2197 3394 2470 3270 
Q 2744 3147 2920 2923 
Q 3097 2700 3197 2384 
Q 3297 2069 3297 1709 
Q 3297 856 2875 390 
Q 2453 -75 1863 -75 
Q 1275 -75 941 416 
L 941 0 
z
M 934 1684 
Q 934 1088 1097 822 
Q 1363 388 1816 388 
Q 2184 388 2453 708 
Q 2722 1028 2722 1663 
Q 2722 2313 2464 2622 
Q 2206 2931 1841 2931 
Q 1472 2931 1203 2611 
Q 934 2291 934 1684 
z
" transform="scale(0.015625)"/>
        <path id="ArialMT-4c" d="M 469 0 
L 469 4581 
L 1075 4581 
L 1075 541 
L 3331 541 
L 3331 0 
L 469 0 
z
" transform="scale(0.015625)"/>
        <path id="ArialMT-76" d="M 1344 0 
L 81 3319 
L 675 3319 
L 1388 1331 
Q 1503 1009 1600 663 
Q 1675 925 1809 1294 
L 2547 3319 
L 3125 3319 
L 1869 0 
L 1344 0 
z
" transform="scale(0.015625)"/>
        <path id="ArialMT-6c" d="M 409 0 
L 409 4581 
L 972 4581 
L 972 0 
L 409 0 
z
" transform="scale(0.015625)"/>
       </defs>
       <use xlink:href="#ArialMT-4a"/>
       <use xlink:href="#ArialMT-6f" x="50"/>
       <use xlink:href="#ArialMT-62" x="105.615234"/>
       <use xlink:href="#ArialMT-4c" x="161.230469"/>
       <use xlink:href="#ArialMT-65" x="216.845703"/>
       <use xlink:href="#ArialMT-76" x="272.460938"/>
       <use xlink:href="#ArialMT-65" x="322.460938"/>
       <use xlink:href="#ArialMT-6c" x="378.076172"/>
      </g>
     </g>
    </g>
    <g id="xtick_4">
     <g id="text_4">
      <!-- DailyAchievement -->
      <g style="fill: #262626" transform="translate(896.070313 275.026719) scale(0.11 -0.11)">
       <defs>
        <path id="ArialMT-44" d="M 494 0 
L 494 4581 
L 2072 4581 
Q 2606 4581 2888 4516 
Q 3281 4425 3559 4188 
Q 3922 3881 4101 3404 
Q 4281 2928 4281 2316 
Q 4281 1794 4159 1391 
Q 4038 988 3847 723 
Q 3656 459 3429 307 
Q 3203 156 2883 78 
Q 2563 0 2147 0 
L 494 0 
z
M 1100 541 
L 2078 541 
Q 2531 541 2789 625 
Q 3047 709 3200 863 
Q 3416 1078 3536 1442 
Q 3656 1806 3656 2325 
Q 3656 3044 3420 3430 
Q 3184 3816 2847 3947 
Q 2603 4041 2063 4041 
L 1100 4041 
L 1100 541 
z
" transform="scale(0.015625)"/>
        <path id="ArialMT-79" d="M 397 -1278 
L 334 -750 
Q 519 -800 656 -800 
Q 844 -800 956 -737 
Q 1069 -675 1141 -563 
Q 1194 -478 1313 -144 
Q 1328 -97 1363 -6 
L 103 3319 
L 709 3319 
L 1400 1397 
Q 1534 1031 1641 628 
Q 1738 1016 1872 1384 
L 2581 3319 
L 3144 3319 
L 1881 -56 
Q 1678 -603 1566 -809 
Q 1416 -1088 1222 -1217 
Q 1028 -1347 759 -1347 
Q 597 -1347 397 -1278 
z
" transform="scale(0.015625)"/>
        <path id="ArialMT-41" d="M -9 0 
L 1750 4581 
L 2403 4581 
L 4278 0 
L 3588 0 
L 3053 1388 
L 1138 1388 
L 634 0 
L -9 0 
z
M 1313 1881 
L 2866 1881 
L 2388 3150 
Q 2169 3728 2063 4100 
Q 1975 3659 1816 3225 
L 1313 1881 
z
" transform="scale(0.015625)"/>
       </defs>
       <use xlink:href="#ArialMT-44"/>
       <use xlink:href="#ArialMT-61" x="72.216797"/>
       <use xlink:href="#ArialMT-69" x="127.832031"/>
       <use xlink:href="#ArialMT-6c" x="150.048828"/>
       <use xlink:href="#ArialMT-79" x="172.265625"/>
       <use xlink:href="#ArialMT-41" x="222.265625"/>
       <use xlink:href="#ArialMT-63" x="288.964844"/>
       <use xlink:href="#ArialMT-68" x="338.964844"/>
       <use xlink:href="#ArialMT-69" x="394.580078"/>
       <use xlink:href="#ArialMT-65" x="416.796875"/>
       <use xlink:href="#ArialMT-76" x="472.412109"/>
       <use xlink:href="#ArialMT-65" x="522.412109"/>
       <use xlink:href="#ArialMT-6d" x="578.027344"/>
       <use xlink:href="#ArialMT-65" x="661.328125"/>
       <use xlink:href="#ArialMT-6e" x="716.943359"/>
       <use xlink:href="#ArialMT-74" x="772.558594"/>
      </g>
     </g>
    </g>
   </g>
   <g id="matplotlib.axis_2">
    <g id="ytick_1">
     <g id="line2d_1">
      <path d="M 36.3 237.851357 
L 1069.2 237.851357 
" clip-path="url(#p8ff2806d96)" style="fill: none; stroke: #cccccc; stroke-linecap: round"/>
     </g>
     <g id="text_5">
      <!-- −2 -->
      <g style="fill: #262626" transform="translate(10.758281 241.788154) scale(0.11 -0.11)">
       <defs>
        <path id="ArialMT-2212" d="M 3381 1997 
L 356 1997 
L 356 2522 
L 3381 2522 
L 3381 1997 
z
" transform="scale(0.015625)"/>
        <path id="ArialMT-32" d="M 3222 541 
L 3222 0 
L 194 0 
Q 188 203 259 391 
Q 375 700 629 1000 
Q 884 1300 1366 1694 
Q 2113 2306 2375 2664 
Q 2638 3022 2638 3341 
Q 2638 3675 2398 3904 
Q 2159 4134 1775 4134 
Q 1369 4134 1125 3890 
Q 881 3647 878 3216 
L 300 3275 
Q 359 3922 746 4261 
Q 1134 4600 1788 4600 
Q 2447 4600 2831 4234 
Q 3216 3869 3216 3328 
Q 3216 3053 3103 2787 
Q 2991 2522 2730 2228 
Q 2469 1934 1863 1422 
Q 1356 997 1212 845 
Q 1069 694 975 541 
L 3222 541 
z
" transform="scale(0.015625)"/>
       </defs>
       <use xlink:href="#ArialMT-2212"/>
       <use xlink:href="#ArialMT-32" x="58.398438"/>
      </g>
     </g>
    </g>
    <g id="ytick_2">
     <g id="line2d_2">
      <path d="M 36.3 206.188861 
L 1069.2 206.188861 
" clip-path="url(#p8ff2806d96)" style="fill: none; stroke: #cccccc; stroke-linecap: round"/>
     </g>
     <g id="text_6">
      <!-- −1 -->
      <g style="fill: #262626" transform="translate(10.758281 210.125658) scale(0.11 -0.11)">
       <defs>
        <path id="ArialMT-31" d="M 2384 0 
L 1822 0 
L 1822 3584 
Q 1619 3391 1289 3197 
Q 959 3003 697 2906 
L 697 3450 
Q 1169 3672 1522 3987 
Q 1875 4303 2022 4600 
L 2384 4600 
L 2384 0 
z
" transform="scale(0.015625)"/>
       </defs>
       <use xlink:href="#ArialMT-2212"/>
       <use xlink:href="#ArialMT-31" x="58.398438"/>
      </g>
     </g>
    </g>
    <g id="ytick_3">
     <g id="line2d_3">
      <path d="M 36.3 174.526366 
L 1069.2 174.526366 
" clip-path="url(#p8ff2806d96)" style="fill: none; stroke: #cccccc; stroke-linecap: round"/>
     </g>
     <g id="text_7">
      <!-- 0 -->
      <g style="fill: #262626" transform="translate(17.182969 178.463163) scale(0.11 -0.11)">
       <defs>
        <path id="ArialMT-30" d="M 266 2259 
Q 266 3072 433 3567 
Q 600 4063 929 4331 
Q 1259 4600 1759 4600 
Q 2128 4600 2406 4451 
Q 2684 4303 2865 4023 
Q 3047 3744 3150 3342 
Q 3253 2941 3253 2259 
Q 3253 1453 3087 958 
Q 2922 463 2592 192 
Q 2263 -78 1759 -78 
Q 1097 -78 719 397 
Q 266 969 266 2259 
z
M 844 2259 
Q 844 1131 1108 757 
Q 1372 384 1759 384 
Q 2147 384 2411 759 
Q 2675 1134 2675 2259 
Q 2675 3391 2411 3762 
Q 2147 4134 1753 4134 
Q 1366 4134 1134 3806 
Q 844 3388 844 2259 
z
" transform="scale(0.015625)"/>
       </defs>
       <use xlink:href="#ArialMT-30"/>
      </g>
     </g>
    </g>
    <g id="ytick_4">
     <g id="line2d_4">
      <path d="M 36.3 142.86387 
L 1069.2 142.86387 
" clip-path="url(#p8ff2806d96)" style="fill: none; stroke: #cccccc; stroke-linecap: round"/>
     </g>
     <g id="text_8">
      <!-- 1 -->
      <g style="fill: #262626" transform="translate(17.182969 146.800667) scale(0.11 -0.11)">
       <use xlink:href="#ArialMT-31"/>
      </g>
     </g>
    </g>
    <g id="ytick_5">
     <g id="line2d_5">
      <path d="M 36.3 111.201374 
L 1069.2 111.201374 
" clip-path="url(#p8ff2806d96)" style="fill: none; stroke: #cccccc; stroke-linecap: round"/>
     </g>
     <g id="text_9">
      <!-- 2 -->
      <g style="fill: #262626" transform="translate(17.182969 115.138171) scale(0.11 -0.11)">
       <use xlink:href="#ArialMT-32"/>
      </g>
     </g>
    </g>
    <g id="ytick_6">
     <g id="line2d_6">
      <path d="M 36.3 79.538879 
L 1069.2 79.538879 
" clip-path="url(#p8ff2806d96)" style="fill: none; stroke: #cccccc; stroke-linecap: round"/>
     </g>
     <g id="text_10">
      <!-- 3 -->
      <g style="fill: #262626" transform="translate(17.182969 83.475676) scale(0.11 -0.11)">
       <defs>
        <path id="ArialMT-33" d="M 269 1209 
L 831 1284 
Q 928 806 1161 595 
Q 1394 384 1728 384 
Q 2125 384 2398 659 
Q 2672 934 2672 1341 
Q 2672 1728 2419 1979 
Q 2166 2231 1775 2231 
Q 1616 2231 1378 2169 
L 1441 2663 
Q 1497 2656 1531 2656 
Q 1891 2656 2178 2843 
Q 2466 3031 2466 3422 
Q 2466 3731 2256 3934 
Q 2047 4138 1716 4138 
Q 1388 4138 1169 3931 
Q 950 3725 888 3313 
L 325 3413 
Q 428 3978 793 4289 
Q 1159 4600 1703 4600 
Q 2078 4600 2393 4439 
Q 2709 4278 2876 4000 
Q 3044 3722 3044 3409 
Q 3044 3113 2884 2869 
Q 2725 2625 2413 2481 
Q 2819 2388 3044 2092 
Q 3269 1797 3269 1353 
Q 3269 753 2831 336 
Q 2394 -81 1725 -81 
Q 1122 -81 723 278 
Q 325 638 269 1209 
z
" transform="scale(0.015625)"/>
       </defs>
       <use xlink:href="#ArialMT-33"/>
      </g>
     </g>
    </g>
    <g id="ytick_7">
     <g id="line2d_7">
      <path d="M 36.3 47.876383 
L 1069.2 47.876383 
" clip-path="url(#p8ff2806d96)" style="fill: none; stroke: #cccccc; stroke-linecap: round"/>
     </g>
     <g id="text_11">
      <!-- 4 -->
      <g style="fill: #262626" transform="translate(17.182969 51.81318) scale(0.11 -0.11)">
       <defs>
        <path id="ArialMT-34" d="M 2069 0 
L 2069 1097 
L 81 1097 
L 81 1613 
L 2172 4581 
L 2631 4581 
L 2631 1613 
L 3250 1613 
L 3250 1097 
L 2631 1097 
L 2631 0 
L 2069 0 
z
M 2069 1613 
L 2069 3678 
L 634 1613 
L 2069 1613 
z
" transform="scale(0.015625)"/>
       </defs>
       <use xlink:href="#ArialMT-34"/>
      </g>
     </g>
    </g>
   </g>
   <g id="PolyCollection_1">
    <defs>
     <path id="m78ae5f2161" d="M 173.340565 -62.159396 
L 157.484435 -62.159396 
L 152.742242 -63.980673 
L 146.330204 -65.801949 
L 138.30809 -67.623226 
L 129.061746 -69.444502 
L 119.301914 -71.265779 
L 109.945621 -73.087055 
L 101.891076 -74.908332 
L 95.750288 -76.729608 
L 91.63903 -78.550885 
L 89.118057 -80.372161 
L 87.328639 -82.193438 
L 85.288928 -84.014714 
L 82.2494 -85.83599 
L 77.976559 -87.657267 
L 72.857834 -89.478543 
L 67.788109 -91.29982 
L 63.882111 -93.121096 
L 62.1225 -94.942373 
L 63.073036 -96.763649 
L 66.752006 -98.584926 
L 72.690202 -100.406202 
L 80.12479 -102.227479 
L 88.238193 -104.048755 
L 96.35352 -105.870032 
L 104.034718 -107.691308 
L 111.086306 -109.512585 
L 117.482428 -111.333861 
L 123.268434 -113.155138 
L 128.472949 -114.976414 
L 133.052756 -116.79769 
L 136.87559 -118.618967 
L 139.733587 -120.440243 
L 141.376186 -122.26152 
L 141.554784 -124.082796 
L 140.07738 -125.904073 
L 136.872847 -127.725349 
L 132.057511 -129.546626 
L 125.984355 -131.367902 
L 119.246945 -133.189179 
L 112.616056 -135.010455 
L 106.909837 -136.831732 
L 102.82915 -138.653008 
L 100.811384 -140.474285 
L 100.954002 -142.295561 
L 103.032107 -144.116838 
L 106.596208 -145.938114 
L 111.107557 -147.759391 
L 116.062121 -149.580667 
L 121.069579 -151.401943 
L 125.878297 -153.22322 
L 130.357687 -155.044496 
L 134.458734 -156.865773 
L 138.172561 -158.687049 
L 141.500282 -160.508326 
L 144.439201 -162.329602 
L 146.983391 -164.150879 
L 149.132273 -165.972155 
L 150.899792 -167.793432 
L 152.318829 -169.614708 
L 153.439098 -171.435985 
L 154.320096 -173.257261 
L 155.022394 -175.078538 
L 155.600439 -176.899814 
L 156.098644 -178.721091 
L 156.550872 -180.542367 
L 156.982144 -182.363643 
L 157.411062 -184.18492 
L 157.851729 -186.006196 
L 158.314506 -187.827473 
L 158.805531 -189.648749 
L 159.325355 -191.470026 
L 159.867524 -193.291302 
L 160.418195 -195.112579 
L 160.957721 -196.933855 
L 161.464343 -198.755132 
L 161.919054 -200.576408 
L 162.309932 -202.397685 
L 162.63428 -204.218961 
L 162.897743 -206.040238 
L 163.110799 -207.861514 
L 163.284044 -209.682791 
L 163.424156 -211.504067 
L 163.532149 -213.325343 
L 163.604677 -215.14662 
L 163.637945 -216.967896 
L 163.632704 -218.789173 
L 163.598224 -220.610449 
L 163.553334 -222.431726 
L 163.523597 -224.253002 
L 163.53525 -226.074279 
L 163.607891 -227.895555 
L 163.748627 -229.716832 
L 163.949914 -231.538108 
L 164.191867 -233.359385 
L 164.448043 -235.180661 
L 164.692423 -237.001938 
L 164.905161 -238.823214 
L 165.07549 -240.644491 
L 165.201571 -242.465767 
L 165.623429 -242.465767 
L 165.623429 -242.465767 
L 165.74951 -240.644491 
L 165.919839 -238.823214 
L 166.132577 -237.001938 
L 166.376957 -235.180661 
L 166.633133 -233.359385 
L 166.875086 -231.538108 
L 167.076373 -229.716832 
L 167.217109 -227.895555 
L 167.28975 -226.074279 
L 167.301403 -224.253002 
L 167.271666 -222.431726 
L 167.226776 -220.610449 
L 167.192296 -218.789173 
L 167.187055 -216.967896 
L 167.220323 -215.14662 
L 167.292851 -213.325343 
L 167.400844 -211.504067 
L 167.540956 -209.682791 
L 167.714201 -207.861514 
L 167.927257 -206.040238 
L 168.19072 -204.218961 
L 168.515068 -202.397685 
L 168.905946 -200.576408 
L 169.360657 -198.755132 
L 169.867279 -196.933855 
L 170.406805 -195.112579 
L 170.957476 -193.291302 
L 171.499645 -191.470026 
L 172.019469 -189.648749 
L 172.510494 -187.827473 
L 172.973271 -186.006196 
L 173.413938 -184.18492 
L 173.842856 -182.363643 
L 174.274128 -180.542367 
L 174.726356 -178.721091 
L 175.224561 -176.899814 
L 175.802606 -175.078538 
L 176.504904 -173.257261 
L 177.385902 -171.435985 
L 178.506171 -169.614708 
L 179.925208 -167.793432 
L 181.692727 -165.972155 
L 183.841609 -164.150879 
L 186.385799 -162.329602 
L 189.324718 -160.508326 
L 192.652439 -158.687049 
L 196.366266 -156.865773 
L 200.467313 -155.044496 
L 204.946703 -153.22322 
L 209.755421 -151.401943 
L 214.762879 -149.580667 
L 219.717443 -147.759391 
L 224.228792 -145.938114 
L 227.792893 -144.116838 
L 229.870998 -142.295561 
L 230.013616 -140.474285 
L 227.99585 -138.653008 
L 223.915163 -136.831732 
L 218.208944 -135.010455 
L 211.578055 -133.189179 
L 204.840645 -131.367902 
L 198.767489 -129.546626 
L 193.952153 -127.725349 
L 190.74762 -125.904073 
L 189.270216 -124.082796 
L 189.448814 -122.26152 
L 191.091413 -120.440243 
L 193.94941 -118.618967 
L 197.772244 -116.79769 
L 202.352051 -114.976414 
L 207.556566 -113.155138 
L 213.342572 -111.333861 
L 219.738694 -109.512585 
L 226.790282 -107.691308 
L 234.47148 -105.870032 
L 242.586807 -104.048755 
L 250.70021 -102.227479 
L 258.134798 -100.406202 
L 264.072994 -98.584926 
L 267.751964 -96.763649 
L 268.7025 -94.942373 
L 266.942889 -93.121096 
L 263.036891 -91.29982 
L 257.967166 -89.478543 
L 252.848441 -87.657267 
L 248.5756 -85.83599 
L 245.536072 -84.014714 
L 243.496361 -82.193438 
L 241.706943 -80.372161 
L 239.18597 -78.550885 
L 235.074712 -76.729608 
L 228.933924 -74.908332 
L 220.879379 -73.087055 
L 211.523086 -71.265779 
L 201.763254 -69.444502 
L 192.51691 -67.623226 
L 184.494796 -65.801949 
L 178.082758 -63.980673 
L 173.340565 -62.159396 
z
" style="stroke: #484848; stroke-width: 3"/>
    </defs>
    <g clip-path="url(#p8ff2806d96)">
     <use xlink:href="#m78ae5f2161" x="0" y="288" style="fill: #cb3335; stroke: #484848; stroke-width: 3"/>
    </g>
   </g>
   <g id="PolyCollection_2">
    <defs>
     <path id="med95b337c7" d="M 431.065297 -49.776839 
L 416.209703 -49.776839 
L 413.316968 -51.042137 
L 409.71489 -52.307435 
L 405.402081 -53.572732 
L 400.448213 -54.83803 
L 395.006556 -56.103327 
L 389.31644 -57.368625 
L 383.692471 -58.633923 
L 378.499492 -59.89922 
L 374.115198 -61.164518 
L 370.885299 -62.429816 
L 369.078425 -63.695113 
L 368.848759 -64.960411 
L 370.213402 -66.225708 
L 373.048689 -67.491006 
L 377.105897 -68.756304 
L 382.042789 -70.021601 
L 387.464374 -71.286899 
L 392.964864 -72.552197 
L 398.163337 -73.817494 
L 402.727883 -75.082792 
L 406.386299 -76.348089 
L 408.924905 -77.613387 
L 410.179893 -78.878685 
L 410.027139 -80.143982 
L 408.376422 -81.40928 
L 405.174405 -82.674578 
L 400.417967 -83.939875 
L 394.176087 -85.205173 
L 386.61518 -86.47047 
L 378.020392 -87.735768 
L 368.804588 -89.001066 
L 359.498041 -90.266363 
L 350.715223 -91.531661 
L 343.099961 -92.796959 
L 337.255585 -94.062256 
L 333.671073 -95.327554 
L 332.656438 -96.592851 
L 334.299692 -97.858149 
L 338.453925 -99.123447 
L 344.756946 -100.388744 
L 352.679297 -101.654042 
L 361.590816 -102.919339 
L 370.832806 -104.184637 
L 379.78287 -105.449935 
L 387.902487 -106.715232 
L 394.762332 -107.98053 
L 400.045977 -109.245828 
L 403.537457 -110.511125 
L 405.101171 -111.776423 
L 404.663314 -113.04172 
L 402.202387 -114.307018 
L 397.752903 -115.572316 
L 391.421967 -116.837613 
L 383.413919 -118.102911 
L 374.054734 -119.368209 
L 363.806278 -120.633506 
L 353.261302 -121.898804 
L 343.113454 -123.164101 
L 334.101939 -124.429399 
L 326.936691 -125.694697 
L 322.215459 -126.959994 
L 320.3475 -128.225292 
L 321.498566 -129.49059 
L 325.568288 -130.755887 
L 332.204691 -132.021185 
L 340.852991 -133.286482 
L 350.829017 -134.55178 
L 361.403175 -135.817078 
L 371.879939 -137.082375 
L 381.660348 -138.347673 
L 390.279933 -139.612971 
L 397.420585 -140.878268 
L 402.900382 -142.143566 
L 406.649195 -143.408863 
L 408.679378 -144.674161 
L 409.059981 -145.939459 
L 407.900271 -147.204756 
L 405.344729 -148.470054 
L 401.577897 -149.735352 
L 396.834463 -151.000649 
L 391.408221 -152.265947 
L 385.653494 -153.531244 
L 379.974256 -154.796542 
L 374.799195 -156.06184 
L 370.544661 -157.327137 
L 367.570943 -158.592435 
L 366.139731 -159.857732 
L 366.381191 -161.12303 
L 368.277594 -162.388328 
L 371.667247 -163.653625 
L 376.268301 -164.918923 
L 381.717987 -166.184221 
L 387.619956 -167.449518 
L 393.591336 -168.714816 
L 399.301974 -169.980113 
L 404.500711 -171.245411 
L 409.0267 -172.510709 
L 412.806828 -173.776006 
L 415.842549 -175.041304 
L 431.432451 -175.041304 
L 431.432451 -175.041304 
L 434.468172 -173.776006 
L 438.2483 -172.510709 
L 442.774289 -171.245411 
L 447.973026 -169.980113 
L 453.683664 -168.714816 
L 459.655044 -167.449518 
L 465.557013 -166.184221 
L 471.006699 -164.918923 
L 475.607753 -163.653625 
L 478.997406 -162.388328 
L 480.893809 -161.12303 
L 481.135269 -159.857732 
L 479.704057 -158.592435 
L 476.730339 -157.327137 
L 472.475805 -156.06184 
L 467.300744 -154.796542 
L 461.621506 -153.531244 
L 455.866779 -152.265947 
L 450.440537 -151.000649 
L 445.697103 -149.735352 
L 441.930271 -148.470054 
L 439.374729 -147.204756 
L 438.215019 -145.939459 
L 438.595622 -144.674161 
L 440.625805 -143.408863 
L 444.374618 -142.143566 
L 449.854415 -140.878268 
L 456.995067 -139.612971 
L 465.614652 -138.347673 
L 475.395061 -137.082375 
L 485.871825 -135.817078 
L 496.445983 -134.55178 
L 506.422009 -133.286482 
L 515.070309 -132.021185 
L 521.706712 -130.755887 
L 525.776434 -129.49059 
L 526.9275 -128.225292 
L 525.059541 -126.959994 
L 520.338309 -125.694697 
L 513.173061 -124.429399 
L 504.161546 -123.164101 
L 494.013698 -121.898804 
L 483.468722 -120.633506 
L 473.220266 -119.368209 
L 463.861081 -118.102911 
L 455.853033 -116.837613 
L 449.522097 -115.572316 
L 445.072613 -114.307018 
L 442.611686 -113.04172 
L 442.173829 -111.776423 
L 443.737543 -110.511125 
L 447.229023 -109.245828 
L 452.512668 -107.98053 
L 459.372513 -106.715232 
L 467.49213 -105.449935 
L 476.442194 -104.184637 
L 485.684184 -102.919339 
L 494.595703 -101.654042 
L 502.518054 -100.388744 
L 508.821075 -99.123447 
L 512.975308 -97.858149 
L 514.618562 -96.592851 
L 513.603927 -95.327554 
L 510.019415 -94.062256 
L 504.175039 -92.796959 
L 496.559777 -91.531661 
L 487.776959 -90.266363 
L 478.470412 -89.001066 
L 469.254608 -87.735768 
L 460.65982 -86.47047 
L 453.098913 -85.205173 
L 446.857033 -83.939875 
L 442.100595 -82.674578 
L 438.898578 -81.40928 
L 437.247861 -80.143982 
L 437.095107 -78.878685 
L 438.350095 -77.613387 
L 440.888701 -76.348089 
L 444.547117 -75.082792 
L 449.111663 -73.817494 
L 454.310136 -72.552197 
L 459.810626 -71.286899 
L 465.232211 -70.021601 
L 470.169103 -68.756304 
L 474.226311 -67.491006 
L 477.061598 -66.225708 
L 478.426241 -64.960411 
L 478.196575 -63.695113 
L 476.389701 -62.429816 
L 473.159802 -61.164518 
L 468.775508 -59.89922 
L 463.582529 -58.633923 
L 457.95856 -57.368625 
L 452.268444 -56.103327 
L 446.826787 -54.83803 
L 441.872919 -53.572732 
L 437.56011 -52.307435 
L 433.958032 -51.042137 
L 431.065297 -49.776839 
z
" style="stroke: #484848; stroke-width: 3"/>
    </defs>
    <g clip-path="url(#p8ff2806d96)">
     <use xlink:href="#med95b337c7" x="0" y="288" style="fill: #477ca8; stroke: #484848; stroke-width: 3"/>
    </g>
   </g>
   <g id="PolyCollection_3">
    <defs>
     <path id="mca87d35ee4" d="M 695.839615 -68.314021 
L 667.885385 -68.314021 
L 661.521119 -69.767236 
L 653.389836 -71.220452 
L 643.530569 -72.673667 
L 632.228587 -74.126883 
L 620.049153 -75.580098 
L 607.821313 -77.033314 
L 596.561328 -78.486529 
L 587.340287 -79.939744 
L 581.117256 -81.39296 
L 578.5725 -82.846175 
L 579.979369 -84.299391 
L 585.145898 -85.752606 
L 593.439705 -87.205822 
L 603.88793 -88.659037 
L 615.325273 -90.112253 
L 626.55383 -91.565468 
L 636.481137 -93.018684 
L 644.215488 -94.471899 
L 649.114802 -95.925114 
L 650.800176 -97.37833 
L 649.152592 -98.831545 
L 644.308986 -100.284761 
L 636.664008 -101.737976 
L 626.871049 -103.191192 
L 615.82643 -104.644407 
L 604.618656 -106.097623 
L 594.432191 -107.550838 
L 586.409999 -109.004053 
L 581.495933 -110.457269 
L 580.290178 -111.910484 
L 582.953003 -113.3637 
L 589.18239 -114.816915 
L 598.272487 -116.270131 
L 609.238591 -117.723346 
L 620.977958 -119.176562 
L 632.429352 -120.629777 
L 642.699478 -122.082992 
L 651.138143 -123.536208 
L 657.360693 -124.989423 
L 661.229974 -126.442639 
L 662.816685 -127.895854 
L 662.355752 -129.34907 
L 660.209249 -130.802285 
L 656.83727 -132.255501 
L 652.771011 -133.708716 
L 648.579769 -135.161932 
L 644.826293 -136.615147 
L 642.011282 -138.068362 
L 640.515 -139.521578 
L 640.548654 -140.974793 
L 642.12836 -142.428009 
L 645.079792 -143.881224 
L 649.073675 -145.33444 
L 653.684119 -146.787655 
L 658.45622 -148.240871 
L 662.968302 -149.694086 
L 666.877573 -151.147301 
L 669.944209 -152.600517 
L 672.035503 -154.053732 
L 673.116384 -155.506948 
L 673.234139 -156.960163 
L 672.503483 -158.413379 
L 671.094611 -159.866594 
L 669.223065 -161.31981 
L 667.137879 -162.773025 
L 665.104442 -164.22624 
L 663.380602 -165.679456 
L 662.187955 -167.132671 
L 661.683384 -168.585887 
L 661.937479 -170.039102 
L 662.925639 -171.492318 
L 664.534657 -172.945533 
L 666.583551 -174.398749 
L 668.853653 -175.851964 
L 671.120978 -177.305179 
L 673.184146 -178.758395 
L 674.883416 -180.21161 
L 676.109623 -181.664826 
L 676.804819 -183.118041 
L 676.958143 -184.571257 
L 676.600453 -186.024472 
L 675.799844 -187.477688 
L 674.658138 -188.930903 
L 673.306615 -190.384119 
L 671.898576 -191.837334 
L 670.59703 -193.290549 
L 669.557556 -194.743765 
L 668.908681 -196.19698 
L 668.733791 -197.650196 
L 669.05905 -199.103411 
L 669.850706 -200.556627 
L 671.022838 -202.009842 
L 672.453836 -203.463058 
L 674.00772 -204.916273 
L 675.555411 -206.369488 
L 676.991586 -207.822704 
L 678.244425 -209.275919 
L 679.277683 -210.729135 
L 680.086402 -212.18235 
L 683.638598 -212.18235 
L 683.638598 -212.18235 
L 684.447317 -210.729135 
L 685.480575 -209.275919 
L 686.733414 -207.822704 
L 688.169589 -206.369488 
L 689.71728 -204.916273 
L 691.271164 -203.463058 
L 692.702162 -202.009842 
L 693.874294 -200.556627 
L 694.66595 -199.103411 
L 694.991209 -197.650196 
L 694.816319 -196.19698 
L 694.167444 -194.743765 
L 693.12797 -193.290549 
L 691.826424 -191.837334 
L 690.418385 -190.384119 
L 689.066862 -188.930903 
L 687.925156 -187.477688 
L 687.124547 -186.024472 
L 686.766857 -184.571257 
L 686.920181 -183.118041 
L 687.615377 -181.664826 
L 688.841584 -180.21161 
L 690.540854 -178.758395 
L 692.604022 -177.305179 
L 694.871347 -175.851964 
L 697.141449 -174.398749 
L 699.190343 -172.945533 
L 700.799361 -171.492318 
L 701.787521 -170.039102 
L 702.041616 -168.585887 
L 701.537045 -167.132671 
L 700.344398 -165.679456 
L 698.620558 -164.22624 
L 696.587121 -162.773025 
L 694.501935 -161.31981 
L 692.630389 -159.866594 
L 691.221517 -158.413379 
L 690.490861 -156.960163 
L 690.608616 -155.506948 
L 691.689497 -154.053732 
L 693.780791 -152.600517 
L 696.847427 -151.147301 
L 700.756698 -149.694086 
L 705.26878 -148.240871 
L 710.040881 -146.787655 
L 714.651325 -145.33444 
L 718.645208 -143.881224 
L 721.59664 -142.428009 
L 723.176346 -140.974793 
L 723.21 -139.521578 
L 721.713718 -138.068362 
L 718.898707 -136.615147 
L 715.145231 -135.161932 
L 710.953989 -133.708716 
L 706.88773 -132.255501 
L 703.515751 -130.802285 
L 701.369248 -129.34907 
L 700.908315 -127.895854 
L 702.495026 -126.442639 
L 706.364307 -124.989423 
L 712.586857 -123.536208 
L 721.025522 -122.082992 
L 731.295648 -120.629777 
L 742.747042 -119.176562 
L 754.486409 -117.723346 
L 765.452513 -116.270131 
L 774.54261 -114.816915 
L 780.771997 -113.3637 
L 783.434822 -111.910484 
L 782.229067 -110.457269 
L 777.315001 -109.004053 
L 769.292809 -107.550838 
L 759.106344 -106.097623 
L 747.89857 -104.644407 
L 736.853951 -103.191192 
L 727.060992 -101.737976 
L 719.416014 -100.284761 
L 714.572408 -98.831545 
L 712.924824 -97.37833 
L 714.610198 -95.925114 
L 719.509512 -94.471899 
L 727.243863 -93.018684 
L 737.17117 -91.565468 
L 748.399727 -90.112253 
L 759.83707 -88.659037 
L 770.285295 -87.205822 
L 778.579102 -85.752606 
L 783.745631 -84.299391 
L 785.1525 -82.846175 
L 782.607744 -81.39296 
L 776.384713 -79.939744 
L 767.163672 -78.486529 
L 755.903687 -77.033314 
L 743.675847 -75.580098 
L 731.496413 -74.126883 
L 720.194431 -72.673667 
L 710.335164 -71.220452 
L 702.203881 -69.767236 
L 695.839615 -68.314021 
z
" style="stroke: #484848; stroke-width: 3"/>
    </defs>
    <g clip-path="url(#p8ff2806d96)">
     <use xlink:href="#mca87d35ee4" x="0" y="288" style="fill: #59a257; stroke: #484848; stroke-width: 3"/>
    </g>
   </g>
   <g id="PolyCollection_4">
    <defs>
     <path id="m03636447cf" d="M 942.394307 -43.781108 
L 937.780693 -43.781108 
L 936.525793 -45.18589 
L 934.763101 -46.590672 
L 932.377617 -47.995454 
L 929.267672 -49.400236 
L 925.362466 -50.805018 
L 920.639845 -52.2098 
L 915.140643 -53.614582 
L 908.9758 -55.019364 
L 902.323335 -56.424146 
L 895.414184 -57.828928 
L 888.508368 -59.233711 
L 881.86545 -60.638493 
L 875.714737 -62.043275 
L 870.230978 -63.448057 
L 865.51988 -64.852839 
L 861.615384 -66.257621 
L 858.487708 -67.662403 
L 856.058837 -69.067185 
L 854.220952 -70.471967 
L 852.853485 -71.876749 
L 851.835976 -73.281531 
L 851.055783 -74.686313 
L 850.411566 -76.091095 
L 849.814428 -77.495877 
L 849.188703 -78.900659 
L 848.473647 -80.305441 
L 847.626219 -81.710223 
L 846.624224 -83.115005 
L 845.468636 -84.519787 
L 844.18403 -85.92457 
L 842.816573 -87.329352 
L 841.429668 -88.734134 
L 840.097883 -90.138916 
L 838.900004 -91.543698 
L 837.912052 -92.94848 
L 837.200844 -94.353262 
L 836.818427 -95.758044 
L 836.7975 -97.162826 
L 837.147942 -98.567608 
L 837.854627 -99.97239 
L 838.876938 -101.377172 
L 840.150497 -102.781954 
L 841.591543 -104.186736 
L 843.10406 -105.591518 
L 844.589148 -106.9963 
L 845.955496 -108.401082 
L 847.129318 -109.805864 
L 848.062041 -111.210647 
L 848.734422 -112.615429 
L 849.156477 -114.020211 
L 849.363462 -115.424993 
L 849.408801 -116.829775 
L 849.355164 -118.234557 
L 849.264942 -119.639339 
L 849.191154 -121.044121 
L 849.169745 -122.448903 
L 849.214133 -123.853685 
L 849.312941 -125.258467 
L 849.431632 -126.663249 
L 849.518346 -128.068031 
L 849.51339 -129.472813 
L 849.360855 -130.877595 
L 849.020054 -132.282377 
L 848.474221 -133.687159 
L 847.734422 -135.091941 
L 846.837792 -136.496723 
L 845.84069 -137.901506 
L 844.808737 -139.306288 
L 843.806426 -140.71107 
L 842.888984 -142.115852 
L 842.098396 -143.520634 
L 841.464276 -144.925416 
L 841.008968 -146.330198 
L 840.755239 -147.73498 
L 840.734431 -149.139762 
L 840.992955 -150.544544 
L 841.595504 -151.949326 
L 842.624135 -153.354108 
L 844.173113 -154.75889 
L 846.340094 -156.163672 
L 849.214668 -157.568454 
L 852.865526 -158.973236 
L 857.327713 -160.378018 
L 862.591538 -161.7828 
L 868.594847 -163.187582 
L 875.220308 -164.592365 
L 882.299037 -165.997147 
L 889.621107 -167.401929 
L 896.952345 -168.806711 
L 904.055475 -170.211493 
L 910.712537 -171.616275 
L 916.745019 -173.021057 
L 922.02842 -174.425839 
L 926.499066 -175.830621 
L 930.152643 -177.235403 
L 933.035538 -178.640185 
L 935.231333 -180.044967 
L 936.845376 -181.449749 
L 937.990159 -182.854531 
L 942.184841 -182.854531 
L 942.184841 -182.854531 
L 943.329624 -181.449749 
L 944.943667 -180.044967 
L 947.139462 -178.640185 
L 950.022357 -177.235403 
L 953.675934 -175.830621 
L 958.14658 -174.425839 
L 963.429981 -173.021057 
L 969.462463 -171.616275 
L 976.119525 -170.211493 
L 983.222655 -168.806711 
L 990.553893 -167.401929 
L 997.875963 -165.997147 
L 1004.954692 -164.592365 
L 1011.580153 -163.187582 
L 1017.583462 -161.7828 
L 1022.847287 -160.378018 
L 1027.309474 -158.973236 
L 1030.960332 -157.568454 
L 1033.834906 -156.163672 
L 1036.001887 -154.75889 
L 1037.550865 -153.354108 
L 1038.579496 -151.949326 
L 1039.182045 -150.544544 
L 1039.440569 -149.139762 
L 1039.419761 -147.73498 
L 1039.166032 -146.330198 
L 1038.710724 -144.925416 
L 1038.076604 -143.520634 
L 1037.286016 -142.115852 
L 1036.368574 -140.71107 
L 1035.366263 -139.306288 
L 1034.33431 -137.901506 
L 1033.337208 -136.496723 
L 1032.440578 -135.091941 
L 1031.700779 -133.687159 
L 1031.154946 -132.282377 
L 1030.814145 -130.877595 
L 1030.66161 -129.472813 
L 1030.656654 -128.068031 
L 1030.743368 -126.663249 
L 1030.862059 -125.258467 
L 1030.960867 -123.853685 
L 1031.005255 -122.448903 
L 1030.983846 -121.044121 
L 1030.910058 -119.639339 
L 1030.819836 -118.234557 
L 1030.766199 -116.829775 
L 1030.811538 -115.424993 
L 1031.018523 -114.020211 
L 1031.440578 -112.615429 
L 1032.112959 -111.210647 
L 1033.045682 -109.805864 
L 1034.219504 -108.401082 
L 1035.585852 -106.9963 
L 1037.07094 -105.591518 
L 1038.583457 -104.186736 
L 1040.024503 -102.781954 
L 1041.298062 -101.377172 
L 1042.320373 -99.97239 
L 1043.027058 -98.567608 
L 1043.3775 -97.162826 
L 1043.356573 -95.758044 
L 1042.974156 -94.353262 
L 1042.262948 -92.94848 
L 1041.274996 -91.543698 
L 1040.077117 -90.138916 
L 1038.745332 -88.734134 
L 1037.358427 -87.329352 
L 1035.99097 -85.92457 
L 1034.706364 -84.519787 
L 1033.550776 -83.115005 
L 1032.548781 -81.710223 
L 1031.701353 -80.305441 
L 1030.986297 -78.900659 
L 1030.360572 -77.495877 
L 1029.763434 -76.091095 
L 1029.119217 -74.686313 
L 1028.339024 -73.281531 
L 1027.321515 -71.876749 
L 1025.954048 -70.471967 
L 1024.116163 -69.067185 
L 1021.687292 -67.662403 
L 1018.559616 -66.257621 
L 1014.65512 -64.852839 
L 1009.944022 -63.448057 
L 1004.460263 -62.043275 
L 998.30955 -60.638493 
L 991.666632 -59.233711 
L 984.760816 -57.828928 
L 977.851665 -56.424146 
L 971.1992 -55.019364 
L 965.034357 -53.614582 
L 959.535155 -52.2098 
L 954.812534 -50.805018 
L 950.907328 -49.400236 
L 947.797383 -47.995454 
L 945.411899 -46.590672 
L 943.649207 -45.18589 
L 942.394307 -43.781108 
z
" style="stroke: #484848; stroke-width: 3"/>
    </defs>
    <g clip-path="url(#p8ff2806d96)">
     <use xlink:href="#m03636447cf" x="0" y="288" style="fill: #905998; stroke: #484848; stroke-width: 3"/>
    </g>
   </g>
   <g id="line2d_8">
    <path d="M 165.4125 211.113692 
L 165.4125 86.882182 
" clip-path="url(#p8ff2806d96)" style="fill: none; stroke: #484848; stroke-width: 3; stroke-linecap: round"/>
   </g>
   <g id="line2d_9">
    <path d="M 165.4125 193.366334 
L 165.4125 148.997937 
" clip-path="url(#p8ff2806d96)" style="fill: none; stroke: #484848; stroke-width: 9; stroke-linecap: round"/>
   </g>
   <g id="line2d_10">
    <path d="M 423.6375 223.496249 
L 423.6375 127.685607 
" clip-path="url(#p8ff2806d96)" style="fill: none; stroke: #484848; stroke-width: 3; stroke-linecap: round"/>
   </g>
   <g id="line2d_11">
    <path d="M 423.6375 191.559369 
L 423.6375 159.622488 
" clip-path="url(#p8ff2806d96)" style="fill: none; stroke: #484848; stroke-width: 9; stroke-linecap: round"/>
   </g>
   <g id="line2d_12">
    <path d="M 681.8625 204.959068 
L 681.8625 90.544561 
" clip-path="url(#p8ff2806d96)" style="fill: none; stroke: #484848; stroke-width: 3; stroke-linecap: round"/>
   </g>
   <g id="line2d_13">
    <path d="M 681.8625 204.959068 
L 681.8625 147.751814 
" clip-path="url(#p8ff2806d96)" style="fill: none; stroke: #484848; stroke-width: 9; stroke-linecap: round"/>
   </g>
   <g id="line2d_14">
    <path d="M 940.0875 229.491981 
L 940.0875 119.87238 
" clip-path="url(#p8ff2806d96)" style="fill: none; stroke: #484848; stroke-width: 3; stroke-linecap: round"/>
   </g>
   <g id="line2d_15">
    <path d="M 940.0875 201.008147 
L 940.0875 146.708388 
" clip-path="url(#p8ff2806d96)" style="fill: none; stroke: #484848; stroke-width: 9; stroke-linecap: round"/>
   </g>
   <g id="patch_3">
    <path d="M 36.3 254.153125 
L 36.3 35.6 
" style="fill: none; stroke: #cccccc; stroke-width: 1.25; stroke-linejoin: miter; stroke-linecap: square"/>
   </g>
   <g id="patch_4">
    <path d="M 1069.2 254.153125 
L 1069.2 35.6 
" style="fill: none; stroke: #cccccc; stroke-width: 1.25; stroke-linejoin: miter; stroke-linecap: square"/>
   </g>
   <g id="patch_5">
    <path d="M 36.3 254.153125 
L 1069.2 254.153125 
" style="fill: none; stroke: #cccccc; stroke-width: 1.25; stroke-linejoin: miter; stroke-linecap: square"/>
   </g>
   <g id="patch_6">
    <path d="M 36.3 35.6 
L 1069.2 35.6 
" style="fill: none; stroke: #cccccc; stroke-width: 1.25; stroke-linejoin: miter; stroke-linecap: square"/>
   </g>
   <g id="PathCollection_1">
    <defs>
     <path id="me6d329ee60" d="M 0 3 
C 0.795609 3 1.55874 2.683901 2.12132 2.12132 
C 2.683901 1.55874 3 0.795609 3 0 
C 3 -0.795609 2.683901 -1.55874 2.12132 -2.12132 
C 1.55874 -2.683901 0.795609 -3 0 -3 
C -0.795609 -3 -1.55874 -2.683901 -2.12132 -2.12132 
C -2.683901 -1.55874 -3 -0.795609 -3 0 
C -3 0.795609 -2.683901 1.55874 -2.12132 2.12132 
C -1.55874 2.683901 -0.795609 3 0 3 
z
" style="stroke: #484848"/>
    </defs>
    <g clip-path="url(#p8ff2806d96)">
     <use xlink:href="#me6d329ee60" x="165.4125" y="184.492654" style="fill: #ffffff; stroke: #484848"/>
    </g>
   </g>
   <g id="PathCollection_2">
    <g clip-path="url(#p8ff2806d96)">
     <use xlink:href="#me6d329ee60" x="423.6375" y="159.622488" style="fill: #ffffff; stroke: #484848"/>
    </g>
   </g>
   <g id="PathCollection_3">
    <g clip-path="url(#p8ff2806d96)">
     <use xlink:href="#me6d329ee60" x="681.8625" y="176.355441" style="fill: #ffffff; stroke: #484848"/>
    </g>
   </g>
   <g id="PathCollection_4">
    <g clip-path="url(#p8ff2806d96)">
     <use xlink:href="#me6d329ee60" x="940.0875" y="174.564479" style="fill: #ffffff; stroke: #484848"/>
    </g>
   </g>
  </g>
  <g id="text_12">
   <!-- Violin Plot of all Continuous Variables -->
   <g style="fill: #262626" transform="translate(416.035547 16.496719) scale(0.15 -0.15)">
    <defs>
     <path id="ArialMT-56" d="M 1803 0 
L 28 4581 
L 684 4581 
L 1875 1253 
Q 2019 853 2116 503 
Q 2222 878 2363 1253 
L 3600 4581 
L 4219 4581 
L 2425 0 
L 1803 0 
z
" transform="scale(0.015625)"/>
     <path id="ArialMT-20" transform="scale(0.015625)"/>
    </defs>
    <use xlink:href="#ArialMT-56"/>
    <use xlink:href="#ArialMT-69" x="64.949219"/>
    <use xlink:href="#ArialMT-6f" x="87.166016"/>
    <use xlink:href="#ArialMT-6c" x="142.78125"/>
    <use xlink:href="#ArialMT-69" x="164.998047"/>
    <use xlink:href="#ArialMT-6e" x="187.214844"/>
    <use xlink:href="#ArialMT-20" x="242.830078"/>
    <use xlink:href="#ArialMT-50" x="270.613281"/>
    <use xlink:href="#ArialMT-6c" x="337.3125"/>
    <use xlink:href="#ArialMT-6f" x="359.529297"/>
    <use xlink:href="#ArialMT-74" x="415.144531"/>
    <use xlink:href="#ArialMT-20" x="442.927734"/>
    <use xlink:href="#ArialMT-6f" x="470.710938"/>
    <use xlink:href="#ArialMT-66" x="526.326172"/>
    <use xlink:href="#ArialMT-20" x="554.109375"/>
    <use xlink:href="#ArialMT-61" x="581.892578"/>
    <use xlink:href="#ArialMT-6c" x="637.507812"/>
    <use xlink:href="#ArialMT-6c" x="659.724609"/>
    <use xlink:href="#ArialMT-20" x="681.941406"/>
    <use xlink:href="#ArialMT-43" x="709.724609"/>
    <use xlink:href="#ArialMT-6f" x="781.941406"/>
    <use xlink:href="#ArialMT-6e" x="837.556641"/>
    <use xlink:href="#ArialMT-74" x="893.171875"/>
    <use xlink:href="#ArialMT-69" x="920.955078"/>
    <use xlink:href="#ArialMT-6e" x="943.171875"/>
    <use xlink:href="#ArialMT-75" x="998.787109"/>
    <use xlink:href="#ArialMT-6f" x="1054.402344"/>
    <use xlink:href="#ArialMT-75" x="1110.017578"/>
    <use xlink:href="#ArialMT-73" x="1165.632812"/>
    <use xlink:href="#ArialMT-20" x="1215.632812"/>
    <use xlink:href="#ArialMT-56" x="1243.416016"/>
    <use xlink:href="#ArialMT-61" x="1302.740234"/>
    <use xlink:href="#ArialMT-72" x="1358.355469"/>
    <use xlink:href="#ArialMT-69" x="1391.65625"/>
    <use xlink:href="#ArialMT-61" x="1413.873047"/>
    <use xlink:href="#ArialMT-62" x="1469.488281"/>
    <use xlink:href="#ArialMT-6c" x="1525.103516"/>
    <use xlink:href="#ArialMT-65" x="1547.320312"/>
    <use xlink:href="#ArialMT-73" x="1602.935547"/>
   </g>
  </g>
 </g>
 <defs>
  <clipPath id="p8ff2806d96">
   <rect x="36.3" y="35.6" width="1032.9" height="218.553125"/>
  </clipPath>
 </defs>
</svg>
