<?xml version="1.0" encoding="utf-8" standalone="no"?>
<!DOCTYPE svg PUBLIC "-//W3C//DTD SVG 1.1//EN"
  "http://www.w3.org/Graphics/SVG/1.1/DTD/svg11.dtd">
<svg xmlns:xlink="http://www.w3.org/1999/xlink" width="1080pt" height="288pt" viewBox="0 0 1080 288" xmlns="http://www.w3.org/2000/svg" version="1.1">
 <metadata>
  <rdf:RDF xmlns:dc="http://purl.org/dc/elements/1.1/" xmlns:cc="http://creativecommons.org/ns#" xmlns:rdf="http://www.w3.org/1999/02/22-rdf-syntax-ns#">
   <cc:Work>
    <dc:type rdf:resource="http://purl.org/dc/dcmitype/StillImage"/>
    <dc:date>2024-01-16T03:53:14.462069</dc:date>
    <dc:format>image/svg+xml</dc:format>
    <dc:creator>
     <cc:Agent>
      <dc:title>Matplotlib v3.7.4, https://matplotlib.org/</dc:title>
     </cc:Agent>
    </dc:creator>
   </cc:Work>
  </rdf:RDF>
 </metadata>
 <defs>
  <style type="text/css">*{stroke-linejoin: round; stroke-linecap: butt}</style>
 </defs>
 <g id="figure_1">
  <g id="patch_1">
   <path d="M 0 288 
L 1080 288 
L 1080 0 
L 0 0 
L 0 288 
z
" style="fill: none"/>
  </g>
  <g id="axes_1">
   <g id="patch_2">
    <path d="M 36.3 254.153125 
L 1069.2 254.153125 
L 1069.2 35.6 
L 36.3 35.6 
z
" style="fill: #ffffff"/>
   </g>
   <g id="matplotlib.axis_1">
    <g id="xtick_1">
     <g id="text_1">
      <!-- Age -->
      <g style="fill: #262626" transform="translate(91.070547 275.026719) scale(0.11 -0.11)">
       <defs>
        <path id="ArialMT-41" d="M -9 0 
L 1750 4581 
L 2403 4581 
L 4278 0 
L 3588 0 
L 3053 1388 
L 1138 1388 
L 634 0 
L -9 0 
z
M 1313 1881 
L 2866 1881 
L 2388 3150 
Q 2169 3728 2063 4100 
Q 1975 3659 1816 3225 
L 1313 1881 
z
" transform="scale(0.015625)"/>
        <path id="ArialMT-67" d="M 319 -275 
L 866 -356 
Q 900 -609 1056 -725 
Q 1266 -881 1628 -881 
Q 2019 -881 2231 -725 
Q 2444 -569 2519 -288 
Q 2563 -116 2559 434 
Q 2191 0 1641 0 
Q 956 0 581 494 
Q 206 988 206 1678 
Q 206 2153 378 2554 
Q 550 2956 876 3175 
Q 1203 3394 1644 3394 
Q 2231 3394 2613 2919 
L 2613 3319 
L 3131 3319 
L 3131 450 
Q 3131 -325 2973 -648 
Q 2816 -972 2473 -1159 
Q 2131 -1347 1631 -1347 
Q 1038 -1347 672 -1080 
Q 306 -813 319 -275 
z
M 784 1719 
Q 784 1066 1043 766 
Q 1303 466 1694 466 
Q 2081 466 2343 764 
Q 2606 1063 2606 1700 
Q 2606 2309 2336 2618 
Q 2066 2928 1684 2928 
Q 1309 2928 1046 2623 
Q 784 2319 784 1719 
z
" transform="scale(0.015625)"/>
        <path id="ArialMT-65" d="M 2694 1069 
L 3275 997 
Q 3138 488 2766 206 
Q 2394 -75 1816 -75 
Q 1088 -75 661 373 
Q 234 822 234 1631 
Q 234 2469 665 2931 
Q 1097 3394 1784 3394 
Q 2450 3394 2872 2941 
Q 3294 2488 3294 1666 
Q 3294 1616 3291 1516 
L 816 1516 
Q 847 969 1125 678 
Q 1403 388 1819 388 
Q 2128 388 2347 550 
Q 2566 713 2694 1069 
z
M 847 1978 
L 2700 1978 
Q 2663 2397 2488 2606 
Q 2219 2931 1791 2931 
Q 1403 2931 1139 2672 
Q 875 2413 847 1978 
z
" transform="scale(0.015625)"/>
       </defs>
       <use xlink:href="#ArialMT-41"/>
       <use xlink:href="#ArialMT-67" x="66.699219"/>
       <use xlink:href="#ArialMT-65" x="122.314453"/>
      </g>
     </g>
    </g>
    <g id="xtick_2">
     <g id="text_2">
      <!-- DistanceFromHome -->
      <g style="fill: #262626" transform="translate(181.070313 275.026719) scale(0.11 -0.11)">
       <defs>
        <path id="ArialMT-44" d="M 494 0 
L 494 4581 
L 2072 4581 
Q 2606 4581 2888 4516 
Q 3281 4425 3559 4188 
Q 3922 3881 4101 3404 
Q 4281 2928 4281 2316 
Q 4281 1794 4159 1391 
Q 4038 988 3847 723 
Q 3656 459 3429 307 
Q 3203 156 2883 78 
Q 2563 0 2147 0 
L 494 0 
z
M 1100 541 
L 2078 541 
Q 2531 541 2789 625 
Q 3047 709 3200 863 
Q 3416 1078 3536 1442 
Q 3656 1806 3656 2325 
Q 3656 3044 3420 3430 
Q 3184 3816 2847 3947 
Q 2603 4041 2063 4041 
L 1100 4041 
L 1100 541 
z
" transform="scale(0.015625)"/>
        <path id="ArialMT-69" d="M 425 3934 
L 425 4581 
L 988 4581 
L 988 3934 
L 425 3934 
z
M 425 0 
L 425 3319 
L 988 3319 
L 988 0 
L 425 0 
z
" transform="scale(0.015625)"/>
        <path id="ArialMT-73" d="M 197 991 
L 753 1078 
Q 800 744 1014 566 
Q 1228 388 1613 388 
Q 2000 388 2187 545 
Q 2375 703 2375 916 
Q 2375 1106 2209 1216 
Q 2094 1291 1634 1406 
Q 1016 1563 777 1677 
Q 538 1791 414 1992 
Q 291 2194 291 2438 
Q 291 2659 392 2848 
Q 494 3038 669 3163 
Q 800 3259 1026 3326 
Q 1253 3394 1513 3394 
Q 1903 3394 2198 3281 
Q 2494 3169 2634 2976 
Q 2775 2784 2828 2463 
L 2278 2388 
Q 2241 2644 2061 2787 
Q 1881 2931 1553 2931 
Q 1166 2931 1000 2803 
Q 834 2675 834 2503 
Q 834 2394 903 2306 
Q 972 2216 1119 2156 
Q 1203 2125 1616 2013 
Q 2213 1853 2448 1751 
Q 2684 1650 2818 1456 
Q 2953 1263 2953 975 
Q 2953 694 2789 445 
Q 2625 197 2315 61 
Q 2006 -75 1616 -75 
Q 969 -75 630 194 
Q 291 463 197 991 
z
" transform="scale(0.015625)"/>
        <path id="ArialMT-74" d="M 1650 503 
L 1731 6 
Q 1494 -44 1306 -44 
Q 1000 -44 831 53 
Q 663 150 594 308 
Q 525 466 525 972 
L 525 2881 
L 113 2881 
L 113 3319 
L 525 3319 
L 525 4141 
L 1084 4478 
L 1084 3319 
L 1650 3319 
L 1650 2881 
L 1084 2881 
L 1084 941 
Q 1084 700 1114 631 
Q 1144 563 1211 522 
Q 1278 481 1403 481 
Q 1497 481 1650 503 
z
" transform="scale(0.015625)"/>
        <path id="ArialMT-61" d="M 2588 409 
Q 2275 144 1986 34 
Q 1697 -75 1366 -75 
Q 819 -75 525 192 
Q 231 459 231 875 
Q 231 1119 342 1320 
Q 453 1522 633 1644 
Q 813 1766 1038 1828 
Q 1203 1872 1538 1913 
Q 2219 1994 2541 2106 
Q 2544 2222 2544 2253 
Q 2544 2597 2384 2738 
Q 2169 2928 1744 2928 
Q 1347 2928 1158 2789 
Q 969 2650 878 2297 
L 328 2372 
Q 403 2725 575 2942 
Q 747 3159 1072 3276 
Q 1397 3394 1825 3394 
Q 2250 3394 2515 3294 
Q 2781 3194 2906 3042 
Q 3031 2891 3081 2659 
Q 3109 2516 3109 2141 
L 3109 1391 
Q 3109 606 3145 398 
Q 3181 191 3288 0 
L 2700 0 
Q 2613 175 2588 409 
z
M 2541 1666 
Q 2234 1541 1622 1453 
Q 1275 1403 1131 1340 
Q 988 1278 909 1158 
Q 831 1038 831 891 
Q 831 666 1001 516 
Q 1172 366 1500 366 
Q 1825 366 2078 508 
Q 2331 650 2450 897 
Q 2541 1088 2541 1459 
L 2541 1666 
z
" transform="scale(0.015625)"/>
        <path id="ArialMT-6e" d="M 422 0 
L 422 3319 
L 928 3319 
L 928 2847 
Q 1294 3394 1984 3394 
Q 2284 3394 2536 3286 
Q 2788 3178 2913 3003 
Q 3038 2828 3088 2588 
Q 3119 2431 3119 2041 
L 3119 0 
L 2556 0 
L 2556 2019 
Q 2556 2363 2490 2533 
Q 2425 2703 2258 2804 
Q 2091 2906 1866 2906 
Q 1506 2906 1245 2678 
Q 984 2450 984 1813 
L 984 0 
L 422 0 
z
" transform="scale(0.015625)"/>
        <path id="ArialMT-63" d="M 2588 1216 
L 3141 1144 
Q 3050 572 2676 248 
Q 2303 -75 1759 -75 
Q 1078 -75 664 370 
Q 250 816 250 1647 
Q 250 2184 428 2587 
Q 606 2991 970 3192 
Q 1334 3394 1763 3394 
Q 2303 3394 2647 3120 
Q 2991 2847 3088 2344 
L 2541 2259 
Q 2463 2594 2264 2762 
Q 2066 2931 1784 2931 
Q 1359 2931 1093 2626 
Q 828 2322 828 1663 
Q 828 994 1084 691 
Q 1341 388 1753 388 
Q 2084 388 2306 591 
Q 2528 794 2588 1216 
z
" transform="scale(0.015625)"/>
        <path id="ArialMT-46" d="M 525 0 
L 525 4581 
L 3616 4581 
L 3616 4041 
L 1131 4041 
L 1131 2622 
L 3281 2622 
L 3281 2081 
L 1131 2081 
L 1131 0 
L 525 0 
z
" transform="scale(0.015625)"/>
        <path id="ArialMT-72" d="M 416 0 
L 416 3319 
L 922 3319 
L 922 2816 
Q 1116 3169 1280 3281 
Q 1444 3394 1641 3394 
Q 1925 3394 2219 3213 
L 2025 2691 
Q 1819 2813 1613 2813 
Q 1428 2813 1281 2702 
Q 1134 2591 1072 2394 
Q 978 2094 978 1738 
L 978 0 
L 416 0 
z
" transform="scale(0.015625)"/>
        <path id="ArialMT-6f" d="M 213 1659 
Q 213 2581 725 3025 
Q 1153 3394 1769 3394 
Q 2453 3394 2887 2945 
Q 3322 2497 3322 1706 
Q 3322 1066 3130 698 
Q 2938 331 2570 128 
Q 2203 -75 1769 -75 
Q 1072 -75 642 372 
Q 213 819 213 1659 
z
M 791 1659 
Q 791 1022 1069 705 
Q 1347 388 1769 388 
Q 2188 388 2466 706 
Q 2744 1025 2744 1678 
Q 2744 2294 2464 2611 
Q 2184 2928 1769 2928 
Q 1347 2928 1069 2612 
Q 791 2297 791 1659 
z
" transform="scale(0.015625)"/>
        <path id="ArialMT-6d" d="M 422 0 
L 422 3319 
L 925 3319 
L 925 2853 
Q 1081 3097 1340 3245 
Q 1600 3394 1931 3394 
Q 2300 3394 2536 3241 
Q 2772 3088 2869 2813 
Q 3263 3394 3894 3394 
Q 4388 3394 4653 3120 
Q 4919 2847 4919 2278 
L 4919 0 
L 4359 0 
L 4359 2091 
Q 4359 2428 4304 2576 
Q 4250 2725 4106 2815 
Q 3963 2906 3769 2906 
Q 3419 2906 3187 2673 
Q 2956 2441 2956 1928 
L 2956 0 
L 2394 0 
L 2394 2156 
Q 2394 2531 2256 2718 
Q 2119 2906 1806 2906 
Q 1569 2906 1367 2781 
Q 1166 2656 1075 2415 
Q 984 2175 984 1722 
L 984 0 
L 422 0 
z
" transform="scale(0.015625)"/>
        <path id="ArialMT-48" d="M 513 0 
L 513 4581 
L 1119 4581 
L 1119 2700 
L 3500 2700 
L 3500 4581 
L 4106 4581 
L 4106 0 
L 3500 0 
L 3500 2159 
L 1119 2159 
L 1119 0 
L 513 0 
z
" transform="scale(0.015625)"/>
       </defs>
       <use xlink:href="#ArialMT-44"/>
       <use xlink:href="#ArialMT-69" x="72.216797"/>
       <use xlink:href="#ArialMT-73" x="94.433594"/>
       <use xlink:href="#ArialMT-74" x="144.433594"/>
       <use xlink:href="#ArialMT-61" x="172.216797"/>
       <use xlink:href="#ArialMT-6e" x="227.832031"/>
       <use xlink:href="#ArialMT-63" x="283.447266"/>
       <use xlink:href="#ArialMT-65" x="333.447266"/>
       <use xlink:href="#ArialMT-46" x="389.0625"/>
       <use xlink:href="#ArialMT-72" x="450.146484"/>
       <use xlink:href="#ArialMT-6f" x="483.447266"/>
       <use xlink:href="#ArialMT-6d" x="539.0625"/>
       <use xlink:href="#ArialMT-48" x="622.363281"/>
       <use xlink:href="#ArialMT-6f" x="694.580078"/>
       <use xlink:href="#ArialMT-6d" x="750.195312"/>
       <use xlink:href="#ArialMT-65" x="833.496094"/>
      </g>
     </g>
    </g>
    <g id="xtick_3">
     <g id="text_3">
      <!-- Education -->
      <g style="fill: #262626" transform="translate(334.62 275.026719) scale(0.11 -0.11)">
       <defs>
        <path id="ArialMT-45" d="M 506 0 
L 506 4581 
L 3819 4581 
L 3819 4041 
L 1113 4041 
L 1113 2638 
L 3647 2638 
L 3647 2100 
L 1113 2100 
L 1113 541 
L 3925 541 
L 3925 0 
L 506 0 
z
" transform="scale(0.015625)"/>
        <path id="ArialMT-64" d="M 2575 0 
L 2575 419 
Q 2259 -75 1647 -75 
Q 1250 -75 917 144 
Q 584 363 401 755 
Q 219 1147 219 1656 
Q 219 2153 384 2558 
Q 550 2963 881 3178 
Q 1213 3394 1622 3394 
Q 1922 3394 2156 3267 
Q 2391 3141 2538 2938 
L 2538 4581 
L 3097 4581 
L 3097 0 
L 2575 0 
z
M 797 1656 
Q 797 1019 1065 703 
Q 1334 388 1700 388 
Q 2069 388 2326 689 
Q 2584 991 2584 1609 
Q 2584 2291 2321 2609 
Q 2059 2928 1675 2928 
Q 1300 2928 1048 2622 
Q 797 2316 797 1656 
z
" transform="scale(0.015625)"/>
        <path id="ArialMT-75" d="M 2597 0 
L 2597 488 
Q 2209 -75 1544 -75 
Q 1250 -75 995 37 
Q 741 150 617 320 
Q 494 491 444 738 
Q 409 903 409 1263 
L 409 3319 
L 972 3319 
L 972 1478 
Q 972 1038 1006 884 
Q 1059 663 1231 536 
Q 1403 409 1656 409 
Q 1909 409 2131 539 
Q 2353 669 2445 892 
Q 2538 1116 2538 1541 
L 2538 3319 
L 3100 3319 
L 3100 0 
L 2597 0 
z
" transform="scale(0.015625)"/>
       </defs>
       <use xlink:href="#ArialMT-45"/>
       <use xlink:href="#ArialMT-64" x="66.699219"/>
       <use xlink:href="#ArialMT-75" x="122.314453"/>
       <use xlink:href="#ArialMT-63" x="177.929688"/>
       <use xlink:href="#ArialMT-61" x="227.929688"/>
       <use xlink:href="#ArialMT-74" x="283.544922"/>
       <use xlink:href="#ArialMT-69" x="311.328125"/>
       <use xlink:href="#ArialMT-6f" x="333.544922"/>
       <use xlink:href="#ArialMT-6e" x="389.160156"/>
      </g>
     </g>
    </g>
    <g id="xtick_4">
     <g id="text_4">
      <!-- EnvironmentSatisfaction -->
      <g style="fill: #262626" transform="translate(428.889141 275.026719) scale(0.11 -0.11)">
       <defs>
        <path id="ArialMT-76" d="M 1344 0 
L 81 3319 
L 675 3319 
L 1388 1331 
Q 1503 1009 1600 663 
Q 1675 925 1809 1294 
L 2547 3319 
L 3125 3319 
L 1869 0 
L 1344 0 
z
" transform="scale(0.015625)"/>
        <path id="ArialMT-53" d="M 288 1472 
L 859 1522 
Q 900 1178 1048 958 
Q 1197 738 1509 602 
Q 1822 466 2213 466 
Q 2559 466 2825 569 
Q 3091 672 3220 851 
Q 3350 1031 3350 1244 
Q 3350 1459 3225 1620 
Q 3100 1781 2813 1891 
Q 2628 1963 1997 2114 
Q 1366 2266 1113 2400 
Q 784 2572 623 2826 
Q 463 3081 463 3397 
Q 463 3744 659 4045 
Q 856 4347 1234 4503 
Q 1613 4659 2075 4659 
Q 2584 4659 2973 4495 
Q 3363 4331 3572 4012 
Q 3781 3694 3797 3291 
L 3216 3247 
Q 3169 3681 2898 3903 
Q 2628 4125 2100 4125 
Q 1550 4125 1298 3923 
Q 1047 3722 1047 3438 
Q 1047 3191 1225 3031 
Q 1400 2872 2139 2705 
Q 2878 2538 3153 2413 
Q 3553 2228 3743 1945 
Q 3934 1663 3934 1294 
Q 3934 928 3725 604 
Q 3516 281 3123 101 
Q 2731 -78 2241 -78 
Q 1619 -78 1198 103 
Q 778 284 539 648 
Q 300 1013 288 1472 
z
" transform="scale(0.015625)"/>
        <path id="ArialMT-66" d="M 556 0 
L 556 2881 
L 59 2881 
L 59 3319 
L 556 3319 
L 556 3672 
Q 556 4006 616 4169 
Q 697 4388 901 4523 
Q 1106 4659 1475 4659 
Q 1713 4659 2000 4603 
L 1916 4113 
Q 1741 4144 1584 4144 
Q 1328 4144 1222 4034 
Q 1116 3925 1116 3625 
L 1116 3319 
L 1763 3319 
L 1763 2881 
L 1116 2881 
L 1116 0 
L 556 0 
z
" transform="scale(0.015625)"/>
       </defs>
       <use xlink:href="#ArialMT-45"/>
       <use xlink:href="#ArialMT-6e" x="66.699219"/>
       <use xlink:href="#ArialMT-76" x="122.314453"/>
       <use xlink:href="#ArialMT-69" x="172.314453"/>
       <use xlink:href="#ArialMT-72" x="194.53125"/>
       <use xlink:href="#ArialMT-6f" x="227.832031"/>
       <use xlink:href="#ArialMT-6e" x="283.447266"/>
       <use xlink:href="#ArialMT-6d" x="339.0625"/>
       <use xlink:href="#ArialMT-65" x="422.363281"/>
       <use xlink:href="#ArialMT-6e" x="477.978516"/>
       <use xlink:href="#ArialMT-74" x="533.59375"/>
       <use xlink:href="#ArialMT-53" x="561.376953"/>
       <use xlink:href="#ArialMT-61" x="628.076172"/>
       <use xlink:href="#ArialMT-74" x="683.691406"/>
       <use xlink:href="#ArialMT-69" x="711.474609"/>
       <use xlink:href="#ArialMT-73" x="733.691406"/>
       <use xlink:href="#ArialMT-66" x="783.691406"/>
       <use xlink:href="#ArialMT-61" x="811.474609"/>
       <use xlink:href="#ArialMT-63" x="867.089844"/>
       <use xlink:href="#ArialMT-74" x="917.089844"/>
       <use xlink:href="#ArialMT-69" x="944.873047"/>
       <use xlink:href="#ArialMT-6f" x="967.089844"/>
       <use xlink:href="#ArialMT-6e" x="1022.705078"/>
      </g>
     </g>
    </g>
    <g id="xtick_5">
     <g id="text_5">
      <!-- HourlyAchievement -->
      <g style="fill: #262626" transform="translate(569.62125 275.026719) scale(0.11 -0.11)">
       <defs>
        <path id="ArialMT-6c" d="M 409 0 
L 409 4581 
L 972 4581 
L 972 0 
L 409 0 
z
" transform="scale(0.015625)"/>
        <path id="ArialMT-79" d="M 397 -1278 
L 334 -750 
Q 519 -800 656 -800 
Q 844 -800 956 -737 
Q 1069 -675 1141 -563 
Q 1194 -478 1313 -144 
Q 1328 -97 1363 -6 
L 103 3319 
L 709 3319 
L 1400 1397 
Q 1534 1031 1641 628 
Q 1738 1016 1872 1384 
L 2581 3319 
L 3144 3319 
L 1881 -56 
Q 1678 -603 1566 -809 
Q 1416 -1088 1222 -1217 
Q 1028 -1347 759 -1347 
Q 597 -1347 397 -1278 
z
" transform="scale(0.015625)"/>
        <path id="ArialMT-68" d="M 422 0 
L 422 4581 
L 984 4581 
L 984 2938 
Q 1378 3394 1978 3394 
Q 2347 3394 2619 3248 
Q 2891 3103 3008 2847 
Q 3125 2591 3125 2103 
L 3125 0 
L 2563 0 
L 2563 2103 
Q 2563 2525 2380 2717 
Q 2197 2909 1863 2909 
Q 1613 2909 1392 2779 
Q 1172 2650 1078 2428 
Q 984 2206 984 1816 
L 984 0 
L 422 0 
z
" transform="scale(0.015625)"/>
       </defs>
       <use xlink:href="#ArialMT-48"/>
       <use xlink:href="#ArialMT-6f" x="72.216797"/>
       <use xlink:href="#ArialMT-75" x="127.832031"/>
       <use xlink:href="#ArialMT-72" x="183.447266"/>
       <use xlink:href="#ArialMT-6c" x="216.748047"/>
       <use xlink:href="#ArialMT-79" x="238.964844"/>
       <use xlink:href="#ArialMT-41" x="288.964844"/>
       <use xlink:href="#ArialMT-63" x="355.664062"/>
       <use xlink:href="#ArialMT-68" x="405.664062"/>
       <use xlink:href="#ArialMT-69" x="461.279297"/>
       <use xlink:href="#ArialMT-65" x="483.496094"/>
       <use xlink:href="#ArialMT-76" x="539.111328"/>
       <use xlink:href="#ArialMT-65" x="589.111328"/>
       <use xlink:href="#ArialMT-6d" x="644.726562"/>
       <use xlink:href="#ArialMT-65" x="728.027344"/>
       <use xlink:href="#ArialMT-6e" x="783.642578"/>
       <use xlink:href="#ArialMT-74" x="839.257812"/>
      </g>
     </g>
    </g>
    <g id="xtick_6">
     <g id="text_6">
      <!-- JobInvolvement -->
      <g style="fill: #262626" transform="translate(707.899844 275.026719) scale(0.11 -0.11)">
       <defs>
        <path id="ArialMT-4a" d="M 184 1300 
L 731 1375 
Q 753 850 928 656 
Q 1103 463 1413 463 
Q 1641 463 1806 567 
Q 1972 672 2034 851 
Q 2097 1031 2097 1425 
L 2097 4581 
L 2703 4581 
L 2703 1459 
Q 2703 884 2564 568 
Q 2425 253 2123 87 
Q 1822 -78 1416 -78 
Q 813 -78 492 269 
Q 172 616 184 1300 
z
" transform="scale(0.015625)"/>
        <path id="ArialMT-62" d="M 941 0 
L 419 0 
L 419 4581 
L 981 4581 
L 981 2947 
Q 1338 3394 1891 3394 
Q 2197 3394 2470 3270 
Q 2744 3147 2920 2923 
Q 3097 2700 3197 2384 
Q 3297 2069 3297 1709 
Q 3297 856 2875 390 
Q 2453 -75 1863 -75 
Q 1275 -75 941 416 
L 941 0 
z
M 934 1684 
Q 934 1088 1097 822 
Q 1363 388 1816 388 
Q 2184 388 2453 708 
Q 2722 1028 2722 1663 
Q 2722 2313 2464 2622 
Q 2206 2931 1841 2931 
Q 1472 2931 1203 2611 
Q 934 2291 934 1684 
z
" transform="scale(0.015625)"/>
        <path id="ArialMT-49" d="M 597 0 
L 597 4581 
L 1203 4581 
L 1203 0 
L 597 0 
z
" transform="scale(0.015625)"/>
       </defs>
       <use xlink:href="#ArialMT-4a"/>
       <use xlink:href="#ArialMT-6f" x="50"/>
       <use xlink:href="#ArialMT-62" x="105.615234"/>
       <use xlink:href="#ArialMT-49" x="161.230469"/>
       <use xlink:href="#ArialMT-6e" x="189.013672"/>
       <use xlink:href="#ArialMT-76" x="244.628906"/>
       <use xlink:href="#ArialMT-6f" x="294.628906"/>
       <use xlink:href="#ArialMT-6c" x="350.244141"/>
       <use xlink:href="#ArialMT-76" x="372.460938"/>
       <use xlink:href="#ArialMT-65" x="422.460938"/>
       <use xlink:href="#ArialMT-6d" x="478.076172"/>
       <use xlink:href="#ArialMT-65" x="561.376953"/>
       <use xlink:href="#ArialMT-6e" x="616.992188"/>
       <use xlink:href="#ArialMT-74" x="672.607422"/>
      </g>
     </g>
    </g>
    <g id="xtick_7">
     <g id="text_7">
      <!-- JobSatisfaction -->
      <g style="fill: #262626" transform="translate(838.233516 275.026719) scale(0.11 -0.11)">
       <use xlink:href="#ArialMT-4a"/>
       <use xlink:href="#ArialMT-6f" x="50"/>
       <use xlink:href="#ArialMT-62" x="105.615234"/>
       <use xlink:href="#ArialMT-53" x="161.230469"/>
       <use xlink:href="#ArialMT-61" x="227.929688"/>
       <use xlink:href="#ArialMT-74" x="283.544922"/>
       <use xlink:href="#ArialMT-69" x="311.328125"/>
       <use xlink:href="#ArialMT-73" x="333.544922"/>
       <use xlink:href="#ArialMT-66" x="383.544922"/>
       <use xlink:href="#ArialMT-61" x="411.328125"/>
       <use xlink:href="#ArialMT-63" x="466.943359"/>
       <use xlink:href="#ArialMT-74" x="516.943359"/>
       <use xlink:href="#ArialMT-69" x="544.726562"/>
       <use xlink:href="#ArialMT-6f" x="566.943359"/>
       <use xlink:href="#ArialMT-6e" x="622.558594"/>
      </g>
     </g>
    </g>
    <g id="xtick_8">
     <g id="text_8">
      <!-- MonthlyAchievement -->
      <g style="fill: #262626" transform="translate(953.594297 275.026719) scale(0.11 -0.11)">
       <defs>
        <path id="ArialMT-4d" d="M 475 0 
L 475 4581 
L 1388 4581 
L 2472 1338 
Q 2622 884 2691 659 
Q 2769 909 2934 1394 
L 4031 4581 
L 4847 4581 
L 4847 0 
L 4263 0 
L 4263 3834 
L 2931 0 
L 2384 0 
L 1059 3900 
L 1059 0 
L 475 0 
z
" transform="scale(0.015625)"/>
       </defs>
       <use xlink:href="#ArialMT-4d"/>
       <use xlink:href="#ArialMT-6f" x="83.300781"/>
       <use xlink:href="#ArialMT-6e" x="138.916016"/>
       <use xlink:href="#ArialMT-74" x="194.53125"/>
       <use xlink:href="#ArialMT-68" x="222.314453"/>
       <use xlink:href="#ArialMT-6c" x="277.929688"/>
       <use xlink:href="#ArialMT-79" x="300.146484"/>
       <use xlink:href="#ArialMT-41" x="350.146484"/>
       <use xlink:href="#ArialMT-63" x="416.845703"/>
       <use xlink:href="#ArialMT-68" x="466.845703"/>
       <use xlink:href="#ArialMT-69" x="522.460938"/>
       <use xlink:href="#ArialMT-65" x="544.677734"/>
       <use xlink:href="#ArialMT-76" x="600.292969"/>
       <use xlink:href="#ArialMT-65" x="650.292969"/>
       <use xlink:href="#ArialMT-6d" x="705.908203"/>
       <use xlink:href="#ArialMT-65" x="789.208984"/>
       <use xlink:href="#ArialMT-6e" x="844.824219"/>
       <use xlink:href="#ArialMT-74" x="900.439453"/>
      </g>
     </g>
    </g>
   </g>
   <g id="matplotlib.axis_2">
    <g id="ytick_1">
     <g id="line2d_1">
      <path d="M 36.3 247.718477 
L 1069.2 247.718477 
" clip-path="url(#p9a59aefc57)" style="fill: none; stroke: #cccccc; stroke-linecap: round"/>
     </g>
     <g id="text_9">
      <!-- −3 -->
      <g style="fill: #262626" transform="translate(10.758281 251.655274) scale(0.11 -0.11)">
       <defs>
        <path id="ArialMT-2212" d="M 3381 1997 
L 356 1997 
L 356 2522 
L 3381 2522 
L 3381 1997 
z
" transform="scale(0.015625)"/>
        <path id="ArialMT-33" d="M 269 1209 
L 831 1284 
Q 928 806 1161 595 
Q 1394 384 1728 384 
Q 2125 384 2398 659 
Q 2672 934 2672 1341 
Q 2672 1728 2419 1979 
Q 2166 2231 1775 2231 
Q 1616 2231 1378 2169 
L 1441 2663 
Q 1497 2656 1531 2656 
Q 1891 2656 2178 2843 
Q 2466 3031 2466 3422 
Q 2466 3731 2256 3934 
Q 2047 4138 1716 4138 
Q 1388 4138 1169 3931 
Q 950 3725 888 3313 
L 325 3413 
Q 428 3978 793 4289 
Q 1159 4600 1703 4600 
Q 2078 4600 2393 4439 
Q 2709 4278 2876 4000 
Q 3044 3722 3044 3409 
Q 3044 3113 2884 2869 
Q 2725 2625 2413 2481 
Q 2819 2388 3044 2092 
Q 3269 1797 3269 1353 
Q 3269 753 2831 336 
Q 2394 -81 1725 -81 
Q 1122 -81 723 278 
Q 325 638 269 1209 
z
" transform="scale(0.015625)"/>
       </defs>
       <use xlink:href="#ArialMT-2212"/>
       <use xlink:href="#ArialMT-33" x="58.398438"/>
      </g>
     </g>
    </g>
    <g id="ytick_2">
     <g id="line2d_2">
      <path d="M 36.3 213.971313 
L 1069.2 213.971313 
" clip-path="url(#p9a59aefc57)" style="fill: none; stroke: #cccccc; stroke-linecap: round"/>
     </g>
     <g id="text_10">
      <!-- −2 -->
      <g style="fill: #262626" transform="translate(10.758281 217.908109) scale(0.11 -0.11)">
       <defs>
        <path id="ArialMT-32" d="M 3222 541 
L 3222 0 
L 194 0 
Q 188 203 259 391 
Q 375 700 629 1000 
Q 884 1300 1366 1694 
Q 2113 2306 2375 2664 
Q 2638 3022 2638 3341 
Q 2638 3675 2398 3904 
Q 2159 4134 1775 4134 
Q 1369 4134 1125 3890 
Q 881 3647 878 3216 
L 300 3275 
Q 359 3922 746 4261 
Q 1134 4600 1788 4600 
Q 2447 4600 2831 4234 
Q 3216 3869 3216 3328 
Q 3216 3053 3103 2787 
Q 2991 2522 2730 2228 
Q 2469 1934 1863 1422 
Q 1356 997 1212 845 
Q 1069 694 975 541 
L 3222 541 
z
" transform="scale(0.015625)"/>
       </defs>
       <use xlink:href="#ArialMT-2212"/>
       <use xlink:href="#ArialMT-32" x="58.398438"/>
      </g>
     </g>
    </g>
    <g id="ytick_3">
     <g id="line2d_3">
      <path d="M 36.3 180.224148 
L 1069.2 180.224148 
" clip-path="url(#p9a59aefc57)" style="fill: none; stroke: #cccccc; stroke-linecap: round"/>
     </g>
     <g id="text_11">
      <!-- −1 -->
      <g style="fill: #262626" transform="translate(10.758281 184.160945) scale(0.11 -0.11)">
       <defs>
        <path id="ArialMT-31" d="M 2384 0 
L 1822 0 
L 1822 3584 
Q 1619 3391 1289 3197 
Q 959 3003 697 2906 
L 697 3450 
Q 1169 3672 1522 3987 
Q 1875 4303 2022 4600 
L 2384 4600 
L 2384 0 
z
" transform="scale(0.015625)"/>
       </defs>
       <use xlink:href="#ArialMT-2212"/>
       <use xlink:href="#ArialMT-31" x="58.398438"/>
      </g>
     </g>
    </g>
    <g id="ytick_4">
     <g id="line2d_4">
      <path d="M 36.3 146.476983 
L 1069.2 146.476983 
" clip-path="url(#p9a59aefc57)" style="fill: none; stroke: #cccccc; stroke-linecap: round"/>
     </g>
     <g id="text_12">
      <!-- 0 -->
      <g style="fill: #262626" transform="translate(17.182969 150.41378) scale(0.11 -0.11)">
       <defs>
        <path id="ArialMT-30" d="M 266 2259 
Q 266 3072 433 3567 
Q 600 4063 929 4331 
Q 1259 4600 1759 4600 
Q 2128 4600 2406 4451 
Q 2684 4303 2865 4023 
Q 3047 3744 3150 3342 
Q 3253 2941 3253 2259 
Q 3253 1453 3087 958 
Q 2922 463 2592 192 
Q 2263 -78 1759 -78 
Q 1097 -78 719 397 
Q 266 969 266 2259 
z
M 844 2259 
Q 844 1131 1108 757 
Q 1372 384 1759 384 
Q 2147 384 2411 759 
Q 2675 1134 2675 2259 
Q 2675 3391 2411 3762 
Q 2147 4134 1753 4134 
Q 1366 4134 1134 3806 
Q 844 3388 844 2259 
z
" transform="scale(0.015625)"/>
       </defs>
       <use xlink:href="#ArialMT-30"/>
      </g>
     </g>
    </g>
    <g id="ytick_5">
     <g id="line2d_5">
      <path d="M 36.3 112.729818 
L 1069.2 112.729818 
" clip-path="url(#p9a59aefc57)" style="fill: none; stroke: #cccccc; stroke-linecap: round"/>
     </g>
     <g id="text_13">
      <!-- 1 -->
      <g style="fill: #262626" transform="translate(17.182969 116.666615) scale(0.11 -0.11)">
       <use xlink:href="#ArialMT-31"/>
      </g>
     </g>
    </g>
    <g id="ytick_6">
     <g id="line2d_6">
      <path d="M 36.3 78.982653 
L 1069.2 78.982653 
" clip-path="url(#p9a59aefc57)" style="fill: none; stroke: #cccccc; stroke-linecap: round"/>
     </g>
     <g id="text_14">
      <!-- 2 -->
      <g style="fill: #262626" transform="translate(17.182969 82.91945) scale(0.11 -0.11)">
       <use xlink:href="#ArialMT-32"/>
      </g>
     </g>
    </g>
    <g id="ytick_7">
     <g id="line2d_7">
      <path d="M 36.3 45.235489 
L 1069.2 45.235489 
" clip-path="url(#p9a59aefc57)" style="fill: none; stroke: #cccccc; stroke-linecap: round"/>
     </g>
     <g id="text_15">
      <!-- 3 -->
      <g style="fill: #262626" transform="translate(17.182969 49.172285) scale(0.11 -0.11)">
       <use xlink:href="#ArialMT-33"/>
      </g>
     </g>
    </g>
   </g>
   <g id="PolyCollection_1">
    <defs>
     <path id="m018ed729df" d="M 101.103604 -55.91966 
L 100.608896 -55.91966 
L 100.442854 -57.803964 
L 100.197841 -59.688268 
L 99.855309 -61.572572 
L 99.401037 -63.456876 
L 98.828507 -65.341181 
L 98.141146 -67.225485 
L 97.352487 -69.109789 
L 96.483822 -70.994093 
L 95.559717 -72.878397 
L 94.602413 -74.762701 
L 93.626477 -76.647005 
L 92.634916 -78.531309 
L 91.617524 -80.415613 
L 90.551645 -82.299918 
L 89.405062 -84.184222 
L 88.140471 -86.068526 
L 86.720814 -87.95283 
L 85.114711 -89.837134 
L 83.301225 -91.721438 
L 81.273349 -93.605742 
L 79.039811 -95.490046 
L 76.625171 -97.37435 
L 74.068439 -99.258655 
L 71.42068 -101.142959 
L 68.742002 -103.027263 
L 66.098125 -104.911567 
L 63.556362 -106.795871 
L 61.180677 -108.680175 
L 59.025625 -110.564479 
L 57.129632 -112.448783 
L 55.50898 -114.333087 
L 54.154619 -116.217392 
L 53.034036 -118.101696 
L 52.099431 -119.986 
L 51.30149 -121.870304 
L 50.60569 -123.754608 
L 50.006183 -125.638912 
L 49.532051 -127.523216 
L 49.242507 -129.40752 
L 49.21125 -131.291824 
L 49.504211 -133.176129 
L 50.157804 -135.060433 
L 51.164953 -136.944737 
L 52.473525 -138.829041 
L 53.997396 -140.713345 
L 55.63605 -142.597649 
L 57.296117 -144.481953 
L 58.908316 -146.366257 
L 60.435541 -148.250561 
L 61.871181 -150.134866 
L 63.229798 -152.01917 
L 64.534265 -153.903474 
L 65.803895 -155.787778 
L 67.047173 -157.672082 
L 68.260836 -159.556386 
L 69.434741 -161.44069 
L 70.559944 -163.324994 
L 71.636198 -165.209298 
L 72.675309 -167.093603 
L 73.698418 -168.977907 
L 74.727894 -170.862211 
L 75.777073 -172.746515 
L 76.842361 -174.630819 
L 77.901524 -176.515123 
L 78.919448 -178.399427 
L 79.859399 -180.283731 
L 80.695297 -182.168035 
L 81.420036 -184.05234 
L 82.046644 -185.936644 
L 82.602233 -187.820948 
L 83.117788 -189.705252 
L 83.618387 -191.589556 
L 84.11786 -193.47386 
L 84.619545 -195.358164 
L 85.121908 -197.242468 
L 85.625724 -199.126772 
L 86.139085 -201.011077 
L 86.677814 -202.895381 
L 87.261148 -204.779685 
L 87.904823 -206.663989 
L 88.61486 -208.548293 
L 89.385041 -210.432597 
L 90.199283 -212.316901 
L 91.037845 -214.201205 
L 91.884434 -216.085509 
L 92.730867 -217.969814 
L 93.577188 -219.854118 
L 94.427317 -221.738422 
L 95.282499 -223.622726 
L 96.135736 -225.50703 
L 96.969766 -227.391334 
L 97.759418 -229.275638 
L 98.477203 -231.159942 
L 99.099826 -233.044246 
L 99.613235 -234.928551 
L 100.014765 -236.812855 
L 100.312227 -238.697159 
L 100.52082 -240.581463 
L 100.659229 -242.465767 
L 101.053271 -242.465767 
L 101.053271 -242.465767 
L 101.19168 -240.581463 
L 101.400273 -238.697159 
L 101.697735 -236.812855 
L 102.099265 -234.928551 
L 102.612674 -233.044246 
L 103.235297 -231.159942 
L 103.953082 -229.275638 
L 104.742734 -227.391334 
L 105.576764 -225.50703 
L 106.430001 -223.622726 
L 107.285183 -221.738422 
L 108.135312 -219.854118 
L 108.981633 -217.969814 
L 109.828066 -216.085509 
L 110.674655 -214.201205 
L 111.513217 -212.316901 
L 112.327459 -210.432597 
L 113.09764 -208.548293 
L 113.807677 -206.663989 
L 114.451352 -204.779685 
L 115.034686 -202.895381 
L 115.573415 -201.011077 
L 116.086776 -199.126772 
L 116.590592 -197.242468 
L 117.092955 -195.358164 
L 117.59464 -193.47386 
L 118.094113 -191.589556 
L 118.594712 -189.705252 
L 119.110267 -187.820948 
L 119.665856 -185.936644 
L 120.292464 -184.05234 
L 121.017203 -182.168035 
L 121.853101 -180.283731 
L 122.793052 -178.399427 
L 123.810976 -176.515123 
L 124.870139 -174.630819 
L 125.935427 -172.746515 
L 126.984606 -170.862211 
L 128.014082 -168.977907 
L 129.037191 -167.093603 
L 130.076302 -165.209298 
L 131.152556 -163.324994 
L 132.277759 -161.44069 
L 133.451664 -159.556386 
L 134.665327 -157.672082 
L 135.908605 -155.787778 
L 137.178235 -153.903474 
L 138.482702 -152.01917 
L 139.841319 -150.134866 
L 141.276959 -148.250561 
L 142.804184 -146.366257 
L 144.416383 -144.481953 
L 146.07645 -142.597649 
L 147.715104 -140.713345 
L 149.238975 -138.829041 
L 150.547547 -136.944737 
L 151.554696 -135.060433 
L 152.208289 -133.176129 
L 152.50125 -131.291824 
L 152.469993 -129.40752 
L 152.180449 -127.523216 
L 151.706317 -125.638912 
L 151.10681 -123.754608 
L 150.41101 -121.870304 
L 149.613069 -119.986 
L 148.678464 -118.101696 
L 147.557881 -116.217392 
L 146.20352 -114.333087 
L 144.582868 -112.448783 
L 142.686875 -110.564479 
L 140.531823 -108.680175 
L 138.156138 -106.795871 
L 135.614375 -104.911567 
L 132.970498 -103.027263 
L 130.29182 -101.142959 
L 127.644061 -99.258655 
L 125.087329 -97.37435 
L 122.672689 -95.490046 
L 120.439151 -93.605742 
L 118.411275 -91.721438 
L 116.597789 -89.837134 
L 114.991686 -87.95283 
L 113.572029 -86.068526 
L 112.307438 -84.184222 
L 111.160855 -82.299918 
L 110.094976 -80.415613 
L 109.077584 -78.531309 
L 108.086023 -76.647005 
L 107.110087 -74.762701 
L 106.152783 -72.878397 
L 105.228678 -70.994093 
L 104.360013 -69.109789 
L 103.571354 -67.225485 
L 102.883993 -65.341181 
L 102.311463 -63.456876 
L 101.857191 -61.572572 
L 101.514659 -59.688268 
L 101.269646 -57.803964 
L 101.103604 -55.91966 
z
" style="stroke: #3e3e3e; stroke-width: 3"/>
    </defs>
    <g clip-path="url(#p9a59aefc57)">
     <use xlink:href="#m018ed729df" x="0" y="288" style="fill: #cb3335; stroke: #3e3e3e; stroke-width: 3"/>
    </g>
   </g>
   <g id="PolyCollection_2">
    <defs>
     <path id="m14f2611203" d="M 233.633243 -91.722763 
L 226.304257 -91.722763 
L 224.543958 -93.217219 
L 222.201041 -94.711675 
L 219.207146 -96.206131 
L 215.53807 -97.700587 
L 211.231946 -99.195043 
L 206.401808 -100.6895 
L 201.238218 -102.183956 
L 195.998949 -103.678412 
L 190.985189 -105.172868 
L 186.506863 -106.667324 
L 182.842597 -108.16178 
L 180.201674 -109.656236 
L 178.695433 -111.150693 
L 178.32375 -112.645149 
L 178.979013 -114.139605 
L 180.466202 -115.634061 
L 182.534425 -117.128517 
L 184.913331 -118.622973 
L 187.347627 -120.11743 
L 189.6243 -121.611886 
L 191.589522 -123.106342 
L 193.154718 -124.600798 
L 194.29343 -126.095254 
L 195.031768 -127.58971 
L 195.435551 -129.084167 
L 195.596774 -130.578623 
L 195.621145 -132.073079 
L 195.617551 -133.567535 
L 195.689525 -135.061991 
L 195.928382 -136.556447 
L 196.407596 -138.050904 
L 197.178175 -139.54536 
L 198.265112 -141.039816 
L 199.66532 -142.534272 
L 201.347615 -144.028728 
L 203.255259 -145.523184 
L 205.311236 -147.01764 
L 207.425917 -148.512097 
L 209.506258 -150.006553 
L 211.465268 -151.501009 
L 213.230374 -152.995465 
L 214.749515 -154.489921 
L 215.994256 -155.984377 
L 216.959772 -157.478834 
L 217.662113 -158.97329 
L 218.133499 -160.467746 
L 218.416581 -161.962202 
L 218.558561 -163.456658 
L 218.605905 -164.951114 
L 218.600137 -166.445571 
L 218.575021 -167.940027 
L 218.555191 -169.434483 
L 218.556117 -170.928939 
L 218.585172 -172.423395 
L 218.643413 -173.917851 
L 218.727636 -175.412307 
L 218.832317 -176.906764 
L 218.951075 -178.40122 
L 219.077513 -179.895676 
L 219.205455 -181.390132 
L 219.328748 -182.884588 
L 219.440938 -184.379044 
L 219.535121 -185.873501 
L 219.604182 -187.367957 
L 219.641539 -188.862413 
L 219.642258 -190.356869 
L 219.604336 -191.851325 
L 219.52979 -193.345781 
L 219.42525 -194.840238 
L 219.301817 -196.334694 
L 219.174111 -197.82915 
L 219.058642 -199.323606 
L 218.971747 -200.818062 
L 218.927503 -202.312518 
L 218.935979 -203.806974 
L 219.002198 -205.301431 
L 219.126009 -206.795887 
L 219.302944 -208.290343 
L 219.525918 -209.784799 
L 219.787467 -211.279255 
L 220.082048 -212.773711 
L 220.407871 -214.268168 
L 220.767757 -215.762624 
L 221.168697 -217.25708 
L 221.620077 -218.751536 
L 222.130889 -220.245992 
L 222.706552 -221.740448 
L 223.346126 -223.234905 
L 224.040657 -224.729361 
L 224.773148 -226.223817 
L 225.520203 -227.718273 
L 226.25501 -229.212729 
L 226.950962 -230.707185 
L 227.585131 -232.201641 
L 228.140889 -233.696098 
L 228.609241 -235.190554 
L 228.988811 -236.68501 
L 229.284679 -238.179466 
L 229.506537 -239.673922 
L 230.430963 -239.673922 
L 230.430963 -239.673922 
L 230.652821 -238.179466 
L 230.948689 -236.68501 
L 231.328259 -235.190554 
L 231.796611 -233.696098 
L 232.352369 -232.201641 
L 232.986538 -230.707185 
L 233.68249 -229.212729 
L 234.417297 -227.718273 
L 235.164352 -226.223817 
L 235.896843 -224.729361 
L 236.591374 -223.234905 
L 237.230948 -221.740448 
L 237.806611 -220.245992 
L 238.317423 -218.751536 
L 238.768803 -217.25708 
L 239.169743 -215.762624 
L 239.529629 -214.268168 
L 239.855452 -212.773711 
L 240.150033 -211.279255 
L 240.411582 -209.784799 
L 240.634556 -208.290343 
L 240.811491 -206.795887 
L 240.935302 -205.301431 
L 241.001521 -203.806974 
L 241.009997 -202.312518 
L 240.965753 -200.818062 
L 240.878858 -199.323606 
L 240.763389 -197.82915 
L 240.635683 -196.334694 
L 240.51225 -194.840238 
L 240.40771 -193.345781 
L 240.333164 -191.851325 
L 240.295242 -190.356869 
L 240.295961 -188.862413 
L 240.333318 -187.367957 
L 240.402379 -185.873501 
L 240.496562 -184.379044 
L 240.608752 -182.884588 
L 240.732045 -181.390132 
L 240.859987 -179.895676 
L 240.986425 -178.40122 
L 241.105183 -176.906764 
L 241.209864 -175.412307 
L 241.294087 -173.917851 
L 241.352328 -172.423395 
L 241.381383 -170.928939 
L 241.382309 -169.434483 
L 241.362479 -167.940027 
L 241.337363 -166.445571 
L 241.331595 -164.951114 
L 241.378939 -163.456658 
L 241.520919 -161.962202 
L 241.804001 -160.467746 
L 242.275387 -158.97329 
L 242.977728 -157.478834 
L 243.943244 -155.984377 
L 245.187985 -154.489921 
L 246.707126 -152.995465 
L 248.472232 -151.501009 
L 250.431242 -150.006553 
L 252.511583 -148.512097 
L 254.626264 -147.01764 
L 256.682241 -145.523184 
L 258.589885 -144.028728 
L 260.27218 -142.534272 
L 261.672388 -141.039816 
L 262.759325 -139.54536 
L 263.529904 -138.050904 
L 264.009118 -136.556447 
L 264.247975 -135.061991 
L 264.319949 -133.567535 
L 264.316355 -132.073079 
L 264.340726 -130.578623 
L 264.501949 -129.084167 
L 264.905732 -127.58971 
L 265.64407 -126.095254 
L 266.782782 -124.600798 
L 268.347978 -123.106342 
L 270.3132 -121.611886 
L 272.589873 -120.11743 
L 275.024169 -118.622973 
L 277.403075 -117.128517 
L 279.471298 -115.634061 
L 280.958487 -114.139605 
L 281.61375 -112.645149 
L 281.242067 -111.150693 
L 279.735826 -109.656236 
L 277.094903 -108.16178 
L 273.430637 -106.667324 
L 268.952311 -105.172868 
L 263.938551 -103.678412 
L 258.699282 -102.183956 
L 253.535692 -100.6895 
L 248.705554 -99.195043 
L 244.39943 -97.700587 
L 240.730354 -96.206131 
L 237.736459 -94.711675 
L 235.393542 -93.217219 
L 233.633243 -91.722763 
z
" style="stroke: #3e3e3e; stroke-width: 3"/>
    </defs>
    <g clip-path="url(#p9a59aefc57)">
     <use xlink:href="#m14f2611203" x="0" y="288" style="fill: #477ca8; stroke: #3e3e3e; stroke-width: 3"/>
    </g>
   </g>
   <g id="PolyCollection_3">
    <defs>
     <path id="m157c0de064" d="M 361.169569 -62.79386 
L 356.992931 -62.79386 
L 355.972 -64.442311 
L 354.65175 -66.090763 
L 353.043235 -67.739214 
L 351.20582 -69.387666 
L 349.252568 -71.036118 
L 347.344219 -72.684569 
L 345.670117 -74.333021 
L 344.418258 -75.981472 
L 343.74062 -77.629924 
L 343.722349 -79.278375 
L 344.36312 -80.926827 
L 345.575714 -82.575278 
L 347.201778 -84.22373 
L 349.039559 -85.872182 
L 350.875333 -87.520633 
L 352.510144 -89.169085 
L 353.776428 -90.817536 
L 354.543642 -92.465988 
L 354.716426 -94.114439 
L 354.23137 -95.762891 
L 353.058306 -97.411342 
L 351.209152 -99.059794 
L 348.752905 -100.708246 
L 345.830825 -102.356697 
L 342.663202 -104.005149 
L 339.539645 -105.6536 
L 336.78896 -107.302052 
L 334.7314 -108.950503 
L 333.622967 -110.598955 
L 333.605789 -112.247406 
L 334.678248 -113.895858 
L 336.693203 -115.54431 
L 339.384157 -117.192761 
L 342.410728 -118.841213 
L 345.409706 -120.489664 
L 348.038018 -122.138116 
L 349.999018 -123.786567 
L 351.051327 -125.435019 
L 351.006868 -127.08347 
L 349.728975 -128.731922 
L 347.140707 -130.380374 
L 343.248015 -132.028825 
L 338.173904 -133.677277 
L 332.191233 -135.325728 
L 325.73689 -136.97418 
L 319.3915 -138.622631 
L 313.817312 -140.271083 
L 309.660456 -141.919534 
L 307.437668 -143.567986 
L 307.43625 -145.216438 
L 309.655261 -146.864889 
L 313.805096 -148.513341 
L 319.365387 -150.161792 
L 325.683931 -151.810244 
L 332.088607 -153.458695 
L 337.983663 -155.107147 
L 342.910593 -156.755598 
L 346.568069 -158.40405 
L 348.799097 -160.052501 
L 349.562051 -161.700953 
L 348.903301 -163.349405 
L 346.943348 -164.997856 
L 343.87878 -166.646308 
L 339.992679 -168.294759 
L 335.660037 -169.943211 
L 331.334551 -171.591662 
L 327.509059 -173.240114 
L 324.652038 -174.888565 
L 323.133057 -176.537017 
L 323.156819 -178.185469 
L 324.725282 -179.83392 
L 327.640019 -181.482372 
L 331.545006 -183.130823 
L 335.998034 -184.779275 
L 340.551317 -186.427726 
L 344.821204 -188.076178 
L 348.532662 -189.724629 
L 351.533539 -191.373081 
L 353.782768 -193.021533 
L 355.322524 -194.669984 
L 356.245803 -196.318436 
L 356.668481 -197.966887 
L 356.710527 -199.615339 
L 356.486533 -201.26379 
L 356.102713 -202.912242 
L 355.656368 -204.560693 
L 355.234552 -206.209145 
L 354.910467 -207.857597 
L 354.738103 -209.506048 
L 354.747083 -211.1545 
L 354.940044 -212.802951 
L 355.294173 -214.451403 
L 355.767118 -216.099854 
L 356.306042 -217.748306 
L 356.857582 -219.396757 
L 357.376393 -221.045209 
L 357.830566 -222.693661 
L 358.203344 -224.342112 
L 358.491607 -225.990564 
L 359.670893 -225.990564 
L 359.670893 -225.990564 
L 359.959156 -224.342112 
L 360.331934 -222.693661 
L 360.786107 -221.045209 
L 361.304918 -219.396757 
L 361.856458 -217.748306 
L 362.395382 -216.099854 
L 362.868327 -214.451403 
L 363.222456 -212.802951 
L 363.415417 -211.1545 
L 363.424397 -209.506048 
L 363.252033 -207.857597 
L 362.927948 -206.209145 
L 362.506132 -204.560693 
L 362.059787 -202.912242 
L 361.675967 -201.26379 
L 361.451973 -199.615339 
L 361.494019 -197.966887 
L 361.916697 -196.318436 
L 362.839976 -194.669984 
L 364.379732 -193.021533 
L 366.628961 -191.373081 
L 369.629838 -189.724629 
L 373.341296 -188.076178 
L 377.611183 -186.427726 
L 382.164466 -184.779275 
L 386.617494 -183.130823 
L 390.522481 -181.482372 
L 393.437218 -179.83392 
L 395.005681 -178.185469 
L 395.029443 -176.537017 
L 393.510462 -174.888565 
L 390.653441 -173.240114 
L 386.827949 -171.591662 
L 382.502463 -169.943211 
L 378.169821 -168.294759 
L 374.28372 -166.646308 
L 371.219152 -164.997856 
L 369.259199 -163.349405 
L 368.600449 -161.700953 
L 369.363403 -160.052501 
L 371.594431 -158.40405 
L 375.251907 -156.755598 
L 380.178837 -155.107147 
L 386.073893 -153.458695 
L 392.478569 -151.810244 
L 398.797113 -150.161792 
L 404.357404 -148.513341 
L 408.507239 -146.864889 
L 410.72625 -145.216438 
L 410.724832 -143.567986 
L 408.502044 -141.919534 
L 404.345188 -140.271083 
L 398.771 -138.622631 
L 392.42561 -136.97418 
L 385.971267 -135.325728 
L 379.988596 -133.677277 
L 374.914485 -132.028825 
L 371.021793 -130.380374 
L 368.433525 -128.731922 
L 367.155632 -127.08347 
L 367.111173 -125.435019 
L 368.163482 -123.786567 
L 370.124482 -122.138116 
L 372.752794 -120.489664 
L 375.751772 -118.841213 
L 378.778343 -117.192761 
L 381.469297 -115.54431 
L 383.484252 -113.895858 
L 384.556711 -112.247406 
L 384.539533 -110.598955 
L 383.4311 -108.950503 
L 381.37354 -107.302052 
L 378.622855 -105.6536 
L 375.499298 -104.005149 
L 372.331675 -102.356697 
L 369.409595 -100.708246 
L 366.953348 -99.059794 
L 365.104194 -97.411342 
L 363.93113 -95.762891 
L 363.446074 -94.114439 
L 363.618858 -92.465988 
L 364.386072 -90.817536 
L 365.652356 -89.169085 
L 367.287167 -87.520633 
L 369.122941 -85.872182 
L 370.960722 -84.22373 
L 372.586786 -82.575278 
L 373.79938 -80.926827 
L 374.440151 -79.278375 
L 374.42188 -77.629924 
L 373.744242 -75.981472 
L 372.492383 -74.333021 
L 370.818281 -72.684569 
L 368.909932 -71.036118 
L 366.95668 -69.387666 
L 365.119265 -67.739214 
L 363.51075 -66.090763 
L 362.1905 -64.442311 
L 361.169569 -62.79386 
z
" style="stroke: #3e3e3e; stroke-width: 3"/>
    </defs>
    <g clip-path="url(#p9a59aefc57)">
     <use xlink:href="#m157c0de064" x="0" y="288" style="fill: #59a257; stroke: #3e3e3e; stroke-width: 3"/>
    </g>
   </g>
   <g id="PolyCollection_4">
    <defs>
     <path id="mc998196374" d="M 492.574181 -72.669626 
L 483.813319 -72.669626 
L 482.242336 -73.922286 
L 480.311325 -75.174945 
L 478.016373 -76.427604 
L 475.383774 -77.680264 
L 472.475746 -78.932923 
L 469.392644 -80.185582 
L 466.270399 -81.438242 
L 463.27254 -82.690901 
L 460.577029 -83.94356 
L 458.359177 -85.19622 
L 456.772771 -86.448879 
L 455.932168 -87.701538 
L 455.898125 -88.954198 
L 456.66966 -90.206857 
L 458.183238 -91.459516 
L 460.319293 -92.712176 
L 462.914826 -93.964835 
L 465.779873 -95.217494 
L 468.71512 -96.470154 
L 471.528124 -97.722813 
L 474.04619 -98.975472 
L 476.124974 -100.228132 
L 477.652906 -101.480791 
L 478.552393 -102.73345 
L 478.779246 -103.986109 
L 478.321755 -105.238769 
L 477.200432 -106.491428 
L 475.468693 -107.744087 
L 473.213945 -108.996747 
L 470.557891 -110.249406 
L 467.65454 -111.502065 
L 464.684574 -112.754725 
L 461.845309 -114.007384 
L 459.336464 -115.260043 
L 457.342966 -116.512703 
L 456.016963 -117.765362 
L 455.46171 -119.018021 
L 455.719896 -120.270681 
L 456.768404 -121.52334 
L 458.520323 -122.775999 
L 460.833809 -124.028659 
L 463.52615 -125.281318 
L 466.39064 -126.533977 
L 469.213617 -127.786637 
L 471.789402 -129.039296 
L 473.931711 -130.291955 
L 475.481212 -131.544615 
L 476.309893 -132.797274 
L 476.323624 -134.049933 
L 475.464483 -135.302593 
L 473.714079 -136.555252 
L 471.098273 -137.807911 
L 467.692692 -139.060571 
L 463.627417 -140.31323 
L 459.088592 -141.565889 
L 454.314645 -142.818549 
L 449.585413 -144.071208 
L 445.203712 -145.323867 
L 441.470473 -146.576527 
L 438.656184 -147.829186 
L 436.972549 -149.081845 
L 436.54875 -150.334504 
L 437.416218 -151.587164 
L 439.504481 -152.839823 
L 442.648765 -154.092482 
L 446.607923 -155.345142 
L 451.089583 -156.597801 
L 455.778338 -157.85046 
L 460.362774 -159.10312 
L 464.557875 -160.355779 
L 468.120825 -161.608438 
L 470.859869 -162.861098 
L 472.637421 -164.113757 
L 473.369544 -165.366416 
L 473.024178 -166.619076 
L 471.620007 -167.871735 
L 469.226799 -169.124394 
L 465.966798 -170.377054 
L 462.015591 -171.629713 
L 457.600192 -172.882372 
L 452.992082 -174.135032 
L 448.493698 -175.387691 
L 444.418212 -176.64035 
L 441.06407 -177.89301 
L 438.68733 -179.145669 
L 437.47582 -180.398328 
L 437.529354 -181.650988 
L 438.849495 -182.903647 
L 441.340843 -184.156306 
L 444.823819 -185.408966 
L 449.056914 -186.661625 
L 453.764823 -187.914284 
L 458.668068 -189.166944 
L 463.509842 -190.419603 
L 468.076674 -191.672262 
L 472.210967 -192.924922 
L 475.815012 -194.177581 
L 478.847515 -195.43024 
L 481.314623 -196.682899 
L 495.072877 -196.682899 
L 495.072877 -196.682899 
L 497.539985 -195.43024 
L 500.572488 -194.177581 
L 504.176533 -192.924922 
L 508.310826 -191.672262 
L 512.877658 -190.419603 
L 517.719432 -189.166944 
L 522.622677 -187.914284 
L 527.330586 -186.661625 
L 531.563681 -185.408966 
L 535.046657 -184.156306 
L 537.538005 -182.903647 
L 538.858146 -181.650988 
L 538.91168 -180.398328 
L 537.70017 -179.145669 
L 535.32343 -177.89301 
L 531.969288 -176.64035 
L 527.893802 -175.387691 
L 523.395418 -174.135032 
L 518.787308 -172.882372 
L 514.371909 -171.629713 
L 510.420702 -170.377054 
L 507.160701 -169.124394 
L 504.767493 -167.871735 
L 503.363322 -166.619076 
L 503.017956 -165.366416 
L 503.750079 -164.113757 
L 505.527631 -162.861098 
L 508.266675 -161.608438 
L 511.829625 -160.355779 
L 516.024726 -159.10312 
L 520.609162 -157.85046 
L 525.297917 -156.597801 
L 529.779577 -155.345142 
L 533.738735 -154.092482 
L 536.883019 -152.839823 
L 538.971282 -151.587164 
L 539.83875 -150.334504 
L 539.414951 -149.081845 
L 537.731316 -147.829186 
L 534.917027 -146.576527 
L 531.183788 -145.323867 
L 526.802087 -144.071208 
L 522.072855 -142.818549 
L 517.298908 -141.565889 
L 512.760083 -140.31323 
L 508.694808 -139.060571 
L 505.289227 -137.807911 
L 502.673421 -136.555252 
L 500.923017 -135.302593 
L 500.063876 -134.049933 
L 500.077607 -132.797274 
L 500.906288 -131.544615 
L 502.455789 -130.291955 
L 504.598098 -129.039296 
L 507.173883 -127.786637 
L 509.99686 -126.533977 
L 512.86135 -125.281318 
L 515.553691 -124.028659 
L 517.867177 -122.775999 
L 519.619096 -121.52334 
L 520.667604 -120.270681 
L 520.92579 -119.018021 
L 520.370537 -117.765362 
L 519.044534 -116.512703 
L 517.051036 -115.260043 
L 514.542191 -114.007384 
L 511.702926 -112.754725 
L 508.73296 -111.502065 
L 505.829609 -110.249406 
L 503.173555 -108.996747 
L 500.918807 -107.744087 
L 499.187068 -106.491428 
L 498.065745 -105.238769 
L 497.608254 -103.986109 
L 497.835107 -102.73345 
L 498.734594 -101.480791 
L 500.262526 -100.228132 
L 502.34131 -98.975472 
L 504.859376 -97.722813 
L 507.67238 -96.470154 
L 510.607627 -95.217494 
L 513.472674 -93.964835 
L 516.068207 -92.712176 
L 518.204262 -91.459516 
L 519.71784 -90.206857 
L 520.489375 -88.954198 
L 520.455332 -87.701538 
L 519.614729 -86.448879 
L 518.028323 -85.19622 
L 515.810471 -83.94356 
L 513.11496 -82.690901 
L 510.117101 -81.438242 
L 506.994856 -80.185582 
L 503.911754 -78.932923 
L 501.003726 -77.680264 
L 498.371127 -76.427604 
L 496.076175 -75.174945 
L 494.145164 -73.922286 
L 492.574181 -72.669626 
z
" style="stroke: #3e3e3e; stroke-width: 3"/>
    </defs>
    <g clip-path="url(#p9a59aefc57)">
     <use xlink:href="#mc998196374" x="0" y="288" style="fill: #905998; stroke: #3e3e3e; stroke-width: 3"/>
    </g>
   </g>
   <g id="PolyCollection_5">
    <defs>
     <path id="m39042812fd" d="M 618.53855 -66.246605 
L 616.07395 -66.246605 
L 615.435229 -67.737455 
L 614.553848 -69.228305 
L 613.381278 -70.719155 
L 611.87739 -72.210005 
L 610.017962 -73.700855 
L 607.801646 -75.191706 
L 605.254808 -76.682556 
L 602.432753 -78.173406 
L 599.416402 -79.664256 
L 596.304406 -81.155106 
L 593.201755 -82.645956 
L 590.206885 -84.136806 
L 587.399786 -85.627656 
L 584.833504 -87.118506 
L 582.530712 -88.609356 
L 580.485864 -90.100206 
L 578.672152 -91.591056 
L 577.051466 -93.081906 
L 575.584967 -94.572756 
L 574.241956 -96.063606 
L 573.005329 -97.554457 
L 571.872833 -99.045307 
L 570.854427 -100.536157 
L 569.966839 -102.027007 
L 569.226957 -103.517857 
L 568.645693 -105.008707 
L 568.223671 -106.499557 
L 567.949481 -107.990407 
L 567.800615 -109.481257 
L 567.746617 -110.972107 
L 567.753628 -112.462957 
L 567.789302 -113.953807 
L 567.827207 -115.444657 
L 567.849941 -116.935507 
L 567.85059 -118.426357 
L 567.832396 -119.917208 
L 567.806877 -121.408058 
L 567.790845 -122.898908 
L 567.802925 -124.389758 
L 567.860213 -125.880608 
L 567.975603 -127.371458 
L 568.156145 -128.862308 
L 568.402473 -130.353158 
L 568.70915 -131.844008 
L 569.065559 -133.334858 
L 569.456923 -134.825708 
L 569.86518 -136.316558 
L 570.269623 -137.807408 
L 570.647466 -139.298258 
L 570.974648 -140.789109 
L 571.227164 -142.279959 
L 571.38303 -143.770809 
L 571.424689 -145.261659 
L 571.341393 -146.752509 
L 571.130959 -148.243359 
L 570.800411 -149.734209 
L 570.365291 -151.225059 
L 569.84781 -152.715909 
L 569.274333 -154.206759 
L 568.672816 -155.697609 
L 568.070716 -157.188459 
L 567.493673 -158.679309 
L 566.964899 -160.170159 
L 566.505013 -161.661009 
L 566.131931 -163.15186 
L 565.86049 -164.64271 
L 565.701641 -166.13356 
L 565.66125 -167.62441 
L 565.738762 -169.11526 
L 565.926107 -170.60611 
L 566.207314 -172.09696 
L 566.559287 -173.58781 
L 566.95411 -175.07866 
L 567.362995 -176.56951 
L 567.761711 -178.06036 
L 568.136892 -179.55121 
L 568.492264 -181.04206 
L 568.853531 -182.53291 
L 569.270587 -184.02376 
L 569.815916 -185.514611 
L 570.5786 -187.005461 
L 571.654087 -188.496311 
L 573.130827 -189.987161 
L 575.075715 -191.478011 
L 577.520845 -192.968861 
L 580.454177 -194.459711 
L 583.816198 -195.950561 
L 587.503648 -197.441411 
L 591.379988 -198.932261 
L 595.29093 -200.423111 
L 599.08229 -201.913961 
L 602.617029 -203.404811 
L 605.788656 -204.895661 
L 608.529063 -206.386512 
L 610.810185 -207.877362 
L 612.640108 -209.368212 
L 614.055195 -210.859062 
L 615.110284 -212.349912 
L 615.868898 -213.840762 
L 618.743602 -213.840762 
L 618.743602 -213.840762 
L 619.502216 -212.349912 
L 620.557305 -210.859062 
L 621.972392 -209.368212 
L 623.802315 -207.877362 
L 626.083437 -206.386512 
L 628.823844 -204.895661 
L 631.995471 -203.404811 
L 635.53021 -201.913961 
L 639.32157 -200.423111 
L 643.232512 -198.932261 
L 647.108852 -197.441411 
L 650.796302 -195.950561 
L 654.158323 -194.459711 
L 657.091655 -192.968861 
L 659.536785 -191.478011 
L 661.481673 -189.987161 
L 662.958413 -188.496311 
L 664.0339 -187.005461 
L 664.796584 -185.514611 
L 665.341913 -184.02376 
L 665.758969 -182.53291 
L 666.120236 -181.04206 
L 666.475608 -179.55121 
L 666.850789 -178.06036 
L 667.249505 -176.56951 
L 667.65839 -175.07866 
L 668.053213 -173.58781 
L 668.405186 -172.09696 
L 668.686393 -170.60611 
L 668.873738 -169.11526 
L 668.95125 -167.62441 
L 668.910859 -166.13356 
L 668.75201 -164.64271 
L 668.480569 -163.15186 
L 668.107487 -161.661009 
L 667.647601 -160.170159 
L 667.118827 -158.679309 
L 666.541784 -157.188459 
L 665.939684 -155.697609 
L 665.338167 -154.206759 
L 664.76469 -152.715909 
L 664.247209 -151.225059 
L 663.812089 -149.734209 
L 663.481541 -148.243359 
L 663.271107 -146.752509 
L 663.187811 -145.261659 
L 663.22947 -143.770809 
L 663.385336 -142.279959 
L 663.637852 -140.789109 
L 663.965034 -139.298258 
L 664.342877 -137.807408 
L 664.74732 -136.316558 
L 665.155577 -134.825708 
L 665.546941 -133.334858 
L 665.90335 -131.844008 
L 666.210027 -130.353158 
L 666.456355 -128.862308 
L 666.636897 -127.371458 
L 666.752287 -125.880608 
L 666.809575 -124.389758 
L 666.821655 -122.898908 
L 666.805623 -121.408058 
L 666.780104 -119.917208 
L 666.76191 -118.426357 
L 666.762559 -116.935507 
L 666.785293 -115.444657 
L 666.823198 -113.953807 
L 666.858872 -112.462957 
L 666.865883 -110.972107 
L 666.811885 -109.481257 
L 666.663019 -107.990407 
L 666.388829 -106.499557 
L 665.966807 -105.008707 
L 665.385543 -103.517857 
L 664.645661 -102.027007 
L 663.758073 -100.536157 
L 662.739667 -99.045307 
L 661.607171 -97.554457 
L 660.370544 -96.063606 
L 659.027533 -94.572756 
L 657.561034 -93.081906 
L 655.940348 -91.591056 
L 654.126636 -90.100206 
L 652.081788 -88.609356 
L 649.778996 -87.118506 
L 647.212714 -85.627656 
L 644.405615 -84.136806 
L 641.410745 -82.645956 
L 638.308094 -81.155106 
L 635.196098 -79.664256 
L 632.179747 -78.173406 
L 629.357692 -76.682556 
L 626.810854 -75.191706 
L 624.594538 -73.700855 
L 622.73511 -72.210005 
L 621.231222 -70.719155 
L 620.058652 -69.228305 
L 619.177271 -67.737455 
L 618.53855 -66.246605 
z
" style="stroke: #3e3e3e; stroke-width: 3"/>
    </defs>
    <g clip-path="url(#p9a59aefc57)">
     <use xlink:href="#m39042812fd" x="0" y="288" style="fill: #df7f20; stroke: #3e3e3e; stroke-width: 3"/>
    </g>
   </g>
   <g id="PolyCollection_6">
    <defs>
     <path id="mca14380664" d="M 747.087095 -43.781108 
L 745.750405 -43.781108 
L 745.399448 -45.53539 
L 744.939963 -47.289671 
L 744.377906 -49.043953 
L 743.739489 -50.798234 
L 743.072783 -52.552516 
L 742.443821 -54.306798 
L 741.926764 -56.061079 
L 741.589845 -57.815361 
L 741.480647 -59.569643 
L 741.615083 -61.323924 
L 741.973593 -63.078206 
L 742.505809 -64.832487 
L 743.142148 -66.586769 
L 743.808651 -68.341051 
L 744.440704 -70.095332 
L 744.992188 -71.849614 
L 745.438549 -73.603895 
L 745.774273 -75.358177 
L 746.006586 -77.112459 
L 746.147489 -78.86674 
L 746.205784 -80.621022 
L 746.179931 -82.375304 
L 746.052101 -84.129585 
L 745.783853 -85.883867 
L 745.314528 -87.638148 
L 744.564346 -89.39243 
L 743.444598 -91.146712 
L 741.876533 -92.900993 
L 739.818065 -94.655275 
L 737.293572 -96.409556 
L 734.41816 -98.163838 
L 731.405764 -99.91812 
L 728.552504 -101.672401 
L 726.193174 -103.426683 
L 724.638154 -105.180965 
L 724.106682 -106.935246 
L 724.676165 -108.689528 
L 726.263703 -110.443809 
L 728.645859 -112.198091 
L 731.510213 -113.952373 
L 734.522258 -115.706654 
L 737.387955 -117.460936 
L 739.896174 -119.215218 
L 741.933973 -120.969499 
L 743.476881 -122.723781 
L 744.562606 -124.478062 
L 745.258278 -126.232344 
L 745.629263 -127.986626 
L 745.713836 -129.740907 
L 745.504911 -131.495189 
L 744.938881 -133.24947 
L 743.892705 -135.003752 
L 742.192521 -136.758034 
L 739.638531 -138.512315 
L 736.049574 -140.266597 
L 731.325531 -142.020879 
L 725.517037 -143.77516 
L 718.882872 -145.529442 
L 711.910629 -147.283723 
L 705.280485 -149.038005 
L 699.76655 -150.792287 
L 696.091919 -152.546568 
L 694.77375 -154.30085 
L 696.003932 -156.055132 
L 699.603283 -157.809413 
L 705.064347 -159.563695 
L 711.668696 -161.317976 
L 718.6414 -163.072258 
L 725.29705 -164.82654 
L 731.140488 -166.580821 
L 735.905363 -168.335103 
L 739.535413 -170.089384 
L 742.128426 -171.843666 
L 743.867427 -173.597948 
L 744.959143 -175.352229 
L 745.590705 -177.106511 
L 745.906557 -178.860793 
L 746.001806 -180.615074 
L 745.926232 -182.369356 
L 745.69406 -184.123637 
L 745.296609 -185.877919 
L 744.716566 -187.632201 
L 743.943148 -189.386482 
L 742.986742 -191.140764 
L 741.890312 -192.895045 
L 740.734019 -194.649327 
L 739.630027 -196.403609 
L 738.706669 -198.15789 
L 738.084676 -199.912172 
L 737.851439 -201.666454 
L 738.04089 -203.420735 
L 738.625424 -205.175017 
L 739.522487 -206.929298 
L 740.613699 -208.68358 
L 741.770393 -210.437862 
L 742.878009 -212.192143 
L 743.853144 -213.946425 
L 744.650323 -215.700707 
L 745.259211 -217.454988 
L 747.578289 -217.454988 
L 747.578289 -217.454988 
L 748.187177 -215.700707 
L 748.984356 -213.946425 
L 749.959491 -212.192143 
L 751.067107 -210.437862 
L 752.223801 -208.68358 
L 753.315013 -206.929298 
L 754.212076 -205.175017 
L 754.79661 -203.420735 
L 754.986061 -201.666454 
L 754.752824 -199.912172 
L 754.130831 -198.15789 
L 753.207473 -196.403609 
L 752.103481 -194.649327 
L 750.947188 -192.895045 
L 749.850758 -191.140764 
L 748.894352 -189.386482 
L 748.120934 -187.632201 
L 747.540891 -185.877919 
L 747.14344 -184.123637 
L 746.911268 -182.369356 
L 746.835694 -180.615074 
L 746.930943 -178.860793 
L 747.246795 -177.106511 
L 747.878357 -175.352229 
L 748.970073 -173.597948 
L 750.709074 -171.843666 
L 753.302087 -170.089384 
L 756.932137 -168.335103 
L 761.697012 -166.580821 
L 767.54045 -164.82654 
L 774.1961 -163.072258 
L 781.168804 -161.317976 
L 787.773153 -159.563695 
L 793.234217 -157.809413 
L 796.833568 -156.055132 
L 798.06375 -154.30085 
L 796.745581 -152.546568 
L 793.07095 -150.792287 
L 787.557015 -149.038005 
L 780.926871 -147.283723 
L 773.954628 -145.529442 
L 767.320463 -143.77516 
L 761.511969 -142.020879 
L 756.787926 -140.266597 
L 753.198969 -138.512315 
L 750.644979 -136.758034 
L 748.944795 -135.003752 
L 747.898619 -133.24947 
L 747.332589 -131.495189 
L 747.123664 -129.740907 
L 747.208237 -127.986626 
L 747.579222 -126.232344 
L 748.274894 -124.478062 
L 749.360619 -122.723781 
L 750.903527 -120.969499 
L 752.941326 -119.215218 
L 755.449545 -117.460936 
L 758.315242 -115.706654 
L 761.327287 -113.952373 
L 764.191641 -112.198091 
L 766.573797 -110.443809 
L 768.161335 -108.689528 
L 768.730818 -106.935246 
L 768.199346 -105.180965 
L 766.644326 -103.426683 
L 764.284996 -101.672401 
L 761.431736 -99.91812 
L 758.41934 -98.163838 
L 755.543928 -96.409556 
L 753.019435 -94.655275 
L 750.960967 -92.900993 
L 749.392902 -91.146712 
L 748.273154 -89.39243 
L 747.522972 -87.638148 
L 747.053647 -85.883867 
L 746.785399 -84.129585 
L 746.657569 -82.375304 
L 746.631716 -80.621022 
L 746.690011 -78.86674 
L 746.830914 -77.112459 
L 747.063227 -75.358177 
L 747.398951 -73.603895 
L 747.845312 -71.849614 
L 748.396796 -70.095332 
L 749.028849 -68.341051 
L 749.695352 -66.586769 
L 750.331691 -64.832487 
L 750.863907 -63.078206 
L 751.222417 -61.323924 
L 751.356853 -59.569643 
L 751.247655 -57.815361 
L 750.910736 -56.061079 
L 750.393679 -54.306798 
L 749.764717 -52.552516 
L 749.098011 -50.798234 
L 748.459594 -49.043953 
L 747.897537 -47.289671 
L 747.438052 -45.53539 
L 747.087095 -43.781108 
z
" style="stroke: #3e3e3e; stroke-width: 3"/>
    </defs>
    <g clip-path="url(#p9a59aefc57)">
     <use xlink:href="#mca14380664" x="0" y="288" style="fill: #e6e64c; stroke: #3e3e3e; stroke-width: 3"/>
    </g>
   </g>
   <g id="PolyCollection_7">
    <defs>
     <path id="m0a9e15af08" d="M 879.937536 -72.93208 
L 871.124964 -72.93208 
L 869.556328 -74.176457 
L 867.630397 -75.420833 
L 865.343039 -76.66521 
L 862.719627 -77.909586 
L 859.820647 -79.153963 
L 856.74395 -80.398339 
L 853.622412 -81.642716 
L 850.61636 -82.887092 
L 847.900959 -84.131468 
L 845.649714 -85.375845 
L 844.016133 -86.620221 
L 843.116134 -87.864598 
L 843.013906 -89.108974 
L 843.713473 -90.353351 
L 845.157271 -91.597727 
L 847.231884 -92.842104 
L 849.77983 -94.08648 
L 852.615342 -95.330857 
L 855.541584 -96.575233 
L 858.366808 -97.81961 
L 860.917507 -99.063986 
L 863.047543 -100.308363 
L 864.643199 -101.552739 
L 865.624944 -102.797116 
L 865.947223 -104.041492 
L 865.597585 -105.285869 
L 864.596159 -106.530245 
L 862.995809 -107.774622 
L 860.882546 -109.018998 
L 858.375215 -110.263375 
L 855.623086 -111.507751 
L 852.800184 -112.752128 
L 850.095643 -113.996504 
L 847.700293 -115.240881 
L 845.790582 -116.485257 
L 844.511812 -117.729634 
L 843.963103 -118.97401 
L 844.186449 -120.218387 
L 845.161689 -121.462763 
L 846.808182 -122.707139 
L 848.992846 -123.951516 
L 851.543105 -125.195892 
L 854.262572 -126.440269 
L 856.947059 -127.684645 
L 859.398841 -128.929022 
L 861.437809 -130.173398 
L 862.909171 -131.417775 
L 863.688237 -132.662151 
L 863.683475 -133.906528 
L 862.839213 -135.150904 
L 861.139043 -136.395281 
L 858.610253 -137.639657 
L 855.32871 -138.884034 
L 851.422697 -140.12841 
L 847.073687 -141.372787 
L 842.511997 -142.617163 
L 838.005856 -143.86154 
L 833.843564 -145.105916 
L 830.309884 -146.350293 
L 827.659232 -147.594669 
L 826.089315 -148.839046 
L 825.719219 -150.083422 
L 826.575498 -151.327799 
L 828.588568 -152.572175 
L 831.599947 -153.816552 
L 835.379034 -155.060928 
L 839.646515 -156.305305 
L 844.100612 -157.549681 
L 848.442323 -158.794058 
L 852.396522 -160.038434 
L 855.727136 -161.28281 
L 858.246103 -162.527187 
L 859.817169 -163.771563 
L 860.356437 -165.01594 
L 859.831765 -166.260316 
L 858.262595 -167.504693 
L 855.720861 -168.749069 
L 852.332423 -169.993446 
L 848.27746 -171.237822 
L 843.787688 -172.482199 
L 839.138352 -173.726575 
L 834.633737 -174.970952 
L 830.586268 -176.215328 
L 827.290845 -177.459705 
L 824.997484 -178.704081 
L 823.88625 -179.948458 
L 824.048522 -181.192834 
L 825.477884 -182.437211 
L 828.072368 -183.681587 
L 831.64786 -184.925964 
L 835.960549 -186.17034 
L 840.734864 -187.414717 
L 845.692599 -188.659093 
L 850.579117 -189.90347 
L 855.183378 -191.147846 
L 859.349974 -192.392223 
L 862.982836 -193.636599 
L 866.041668 -194.880976 
L 868.533032 -196.125352 
L 882.529468 -196.125352 
L 882.529468 -196.125352 
L 885.020832 -194.880976 
L 888.079664 -193.636599 
L 891.712526 -192.392223 
L 895.879122 -191.147846 
L 900.483383 -189.90347 
L 905.369901 -188.659093 
L 910.327636 -187.414717 
L 915.101951 -186.17034 
L 919.41464 -184.925964 
L 922.990132 -183.681587 
L 925.584616 -182.437211 
L 927.013978 -181.192834 
L 927.17625 -179.948458 
L 926.065016 -178.704081 
L 923.771655 -177.459705 
L 920.476232 -176.215328 
L 916.428763 -174.970952 
L 911.924148 -173.726575 
L 907.274812 -172.482199 
L 902.78504 -171.237822 
L 898.730077 -169.993446 
L 895.341639 -168.749069 
L 892.799905 -167.504693 
L 891.230735 -166.260316 
L 890.706063 -165.01594 
L 891.245331 -163.771563 
L 892.816397 -162.527187 
L 895.335364 -161.28281 
L 898.665978 -160.038434 
L 902.620177 -158.794058 
L 906.961888 -157.549681 
L 911.415985 -156.305305 
L 915.683466 -155.060928 
L 919.462553 -153.816552 
L 922.473932 -152.572175 
L 924.487002 -151.327799 
L 925.343281 -150.083422 
L 924.973185 -148.839046 
L 923.403268 -147.594669 
L 920.752616 -146.350293 
L 917.218936 -145.105916 
L 913.056644 -143.86154 
L 908.550503 -142.617163 
L 903.988813 -141.372787 
L 899.639803 -140.12841 
L 895.73379 -138.884034 
L 892.452247 -137.639657 
L 889.923457 -136.395281 
L 888.223287 -135.150904 
L 887.379025 -133.906528 
L 887.374263 -132.662151 
L 888.153329 -131.417775 
L 889.624691 -130.173398 
L 891.663659 -128.929022 
L 894.115441 -127.684645 
L 896.799928 -126.440269 
L 899.519395 -125.195892 
L 902.069654 -123.951516 
L 904.254318 -122.707139 
L 905.900811 -121.462763 
L 906.876051 -120.218387 
L 907.099397 -118.97401 
L 906.550688 -117.729634 
L 905.271918 -116.485257 
L 903.362207 -115.240881 
L 900.966857 -113.996504 
L 898.262316 -112.752128 
L 895.439414 -111.507751 
L 892.687285 -110.263375 
L 890.179954 -109.018998 
L 888.066691 -107.774622 
L 886.466341 -106.530245 
L 885.464915 -105.285869 
L 885.115277 -104.041492 
L 885.437556 -102.797116 
L 886.419301 -101.552739 
L 888.014957 -100.308363 
L 890.144993 -99.063986 
L 892.695692 -97.81961 
L 895.520916 -96.575233 
L 898.447158 -95.330857 
L 901.28267 -94.08648 
L 903.830616 -92.842104 
L 905.905229 -91.597727 
L 907.349027 -90.353351 
L 908.048594 -89.108974 
L 907.946366 -87.864598 
L 907.046367 -86.620221 
L 905.412786 -85.375845 
L 903.161541 -84.131468 
L 900.44614 -82.887092 
L 897.440088 -81.642716 
L 894.31855 -80.398339 
L 891.241853 -79.153963 
L 888.342873 -77.909586 
L 885.719461 -76.66521 
L 883.432103 -75.420833 
L 881.506172 -74.176457 
L 879.937536 -72.93208 
z
" style="stroke: #3e3e3e; stroke-width: 3"/>
    </defs>
    <g clip-path="url(#p9a59aefc57)">
     <use xlink:href="#m0a9e15af08" x="0" y="288" style="fill: #965a38; stroke: #3e3e3e; stroke-width: 3"/>
    </g>
   </g>
   <g id="PolyCollection_8">
    <defs>
     <path id="m55d8148a15" d="M 1005.724067 -67.892723 
L 1003.563433 -67.892723 
L 1002.964765 -69.402559 
L 1002.115912 -70.912395 
L 1000.954916 -72.422231 
L 999.423067 -73.932067 
L 997.473102 -75.441903 
L 995.078075 -76.951739 
L 992.239361 -78.461575 
L 988.992036 -79.971411 
L 985.406131 -81.481247 
L 981.582944 -82.991083 
L 977.646579 -84.500919 
L 973.731947 -86.010755 
L 969.971286 -87.520591 
L 966.481526 -89.030427 
L 963.354569 -90.540263 
L 960.651737 -92.0501 
L 958.402642 -93.559936 
L 956.607767 -95.069772 
L 955.243478 -96.579608 
L 954.268074 -98.089444 
L 953.627739 -99.59928 
L 953.261835 -101.109116 
L 953.107388 -102.618952 
L 953.103013 -104.128788 
L 953.192487 -105.638624 
L 953.328033 -107.14846 
L 953.473102 -108.658296 
L 953.604217 -110.168132 
L 953.711401 -111.677968 
L 953.796898 -113.187804 
L 953.872217 -114.69764 
L 953.953947 -116.207476 
L 954.059132 -117.717312 
L 954.201113 -119.227149 
L 954.386677 -120.736985 
L 954.614982 -122.246821 
L 954.878286 -123.756657 
L 955.164025 -125.266493 
L 955.457501 -126.776329 
L 955.744379 -128.286165 
L 956.012359 -129.796001 
L 956.251769 -131.305837 
L 956.455223 -132.815673 
L 956.616814 -134.325509 
L 956.731433 -135.835345 
L 956.794741 -137.345181 
L 956.804007 -138.855017 
L 956.759639 -140.364853 
L 956.66687 -141.874689 
L 956.536837 -143.384525 
L 956.386337 -144.894361 
L 956.235865 -146.404198 
L 956.106073 -147.914034 
L 956.013335 -149.42387 
L 955.965563 -150.933706 
L 955.959462 -152.443542 
L 955.980196 -153.953378 
L 956.003766 -155.463214 
L 956.001694 -156.97305 
L 955.946934 -158.482886 
L 955.819543 -159.992722 
L 955.610762 -161.502558 
L 955.324591 -163.012394 
L 954.976687 -164.52223 
L 954.59116 -166.032066 
L 954.196384 -167.541902 
L 953.821082 -169.051738 
L 953.491673 -170.561574 
L 953.231344 -172.07141 
L 953.060619 -173.581247 
L 952.99875 -175.091083 
L 953.065034 -176.600919 
L 953.27937 -178.110755 
L 953.661782 -179.620591 
L 954.231167 -181.130427 
L 955.003866 -182.640263 
L 955.992763 -184.150099 
L 957.207357 -185.659935 
L 958.654766 -187.169771 
L 960.341118 -188.679607 
L 962.272423 -190.189443 
L 964.45402 -191.699279 
L 966.888083 -193.209115 
L 969.569328 -194.718951 
L 972.479827 -196.228787 
L 975.584402 -197.738623 
L 978.828194 -199.248459 
L 982.137639 -200.758295 
L 985.425284 -202.268132 
L 988.597871 -203.777968 
L 991.566207 -205.287804 
L 994.254891 -206.79764 
L 996.609957 -208.307476 
L 998.603092 -209.817312 
L 1000.231896 -211.327148 
L 1001.516587 -212.836984 
L 1002.494231 -214.34682 
L 1003.211872 -215.856656 
L 1003.719913 -217.366492 
L 1005.567587 -217.366492 
L 1005.567587 -217.366492 
L 1006.075628 -215.856656 
L 1006.793269 -214.34682 
L 1007.770913 -212.836984 
L 1009.055604 -211.327148 
L 1010.684408 -209.817312 
L 1012.677543 -208.307476 
L 1015.032609 -206.79764 
L 1017.721293 -205.287804 
L 1020.689629 -203.777968 
L 1023.862216 -202.268132 
L 1027.149861 -200.758295 
L 1030.459306 -199.248459 
L 1033.703098 -197.738623 
L 1036.807673 -196.228787 
L 1039.718172 -194.718951 
L 1042.399417 -193.209115 
L 1044.83348 -191.699279 
L 1047.015077 -190.189443 
L 1048.946382 -188.679607 
L 1050.632734 -187.169771 
L 1052.080143 -185.659935 
L 1053.294737 -184.150099 
L 1054.283634 -182.640263 
L 1055.056333 -181.130427 
L 1055.625718 -179.620591 
L 1056.00813 -178.110755 
L 1056.222466 -176.600919 
L 1056.28875 -175.091083 
L 1056.226881 -173.581247 
L 1056.056156 -172.07141 
L 1055.795827 -170.561574 
L 1055.466418 -169.051738 
L 1055.091116 -167.541902 
L 1054.69634 -166.032066 
L 1054.310813 -164.52223 
L 1053.962909 -163.012394 
L 1053.676738 -161.502558 
L 1053.467957 -159.992722 
L 1053.340566 -158.482886 
L 1053.285806 -156.97305 
L 1053.283734 -155.463214 
L 1053.307304 -153.953378 
L 1053.328038 -152.443542 
L 1053.321937 -150.933706 
L 1053.274165 -149.42387 
L 1053.181427 -147.914034 
L 1053.051635 -146.404198 
L 1052.901163 -144.894361 
L 1052.750663 -143.384525 
L 1052.62063 -141.874689 
L 1052.527861 -140.364853 
L 1052.483493 -138.855017 
L 1052.492759 -137.345181 
L 1052.556067 -135.835345 
L 1052.670686 -134.325509 
L 1052.832277 -132.815673 
L 1053.035731 -131.305837 
L 1053.275141 -129.796001 
L 1053.543121 -128.286165 
L 1053.829999 -126.776329 
L 1054.123475 -125.266493 
L 1054.409214 -123.756657 
L 1054.672518 -122.246821 
L 1054.900823 -120.736985 
L 1055.086387 -119.227149 
L 1055.228368 -117.717312 
L 1055.333553 -116.207476 
L 1055.415283 -114.69764 
L 1055.490602 -113.187804 
L 1055.576099 -111.677968 
L 1055.683283 -110.168132 
L 1055.814398 -108.658296 
L 1055.959467 -107.14846 
L 1056.095013 -105.638624 
L 1056.184487 -104.128788 
L 1056.180112 -102.618952 
L 1056.025665 -101.109116 
L 1055.659761 -99.59928 
L 1055.019426 -98.089444 
L 1054.044022 -96.579608 
L 1052.679733 -95.069772 
L 1050.884858 -93.559936 
L 1048.635763 -92.0501 
L 1045.932931 -90.540263 
L 1042.805974 -89.030427 
L 1039.316214 -87.520591 
L 1035.555553 -86.010755 
L 1031.640921 -84.500919 
L 1027.704556 -82.991083 
L 1023.881369 -81.481247 
L 1020.295464 -79.971411 
L 1017.048139 -78.461575 
L 1014.209425 -76.951739 
L 1011.814398 -75.441903 
L 1009.864433 -73.932067 
L 1008.332584 -72.422231 
L 1007.171588 -70.912395 
L 1006.322735 -69.402559 
L 1005.724067 -67.892723 
z
" style="stroke: #3e3e3e; stroke-width: 3"/>
    </defs>
    <g clip-path="url(#p9a59aefc57)">
     <use xlink:href="#m55d8148a15" x="0" y="288" style="fill: #e890be; stroke: #3e3e3e; stroke-width: 3"/>
    </g>
   </g>
   <g id="line2d_8">
    <path d="M 100.85625 216.383804 
L 100.85625 61.230769 
" clip-path="url(#p9a59aefc57)" style="fill: none; stroke: #3e3e3e; stroke-width: 3; stroke-linecap: round"/>
   </g>
   <g id="line2d_9">
    <path d="M 100.85625 172.054365 
L 100.85625 124.030807 
" clip-path="url(#p9a59aefc57)" style="fill: none; stroke: #3e3e3e; stroke-width: 9; stroke-linecap: round"/>
   </g>
   <g id="line2d_10">
    <path d="M 229.96875 180.580701 
L 229.96875 64.022614 
" clip-path="url(#p9a59aefc57)" style="fill: none; stroke: #3e3e3e; stroke-width: 3; stroke-linecap: round"/>
   </g>
   <g id="line2d_11">
    <path d="M 229.96875 176.417913 
L 229.96875 126.464446 
" clip-path="url(#p9a59aefc57)" style="fill: none; stroke: #3e3e3e; stroke-width: 9; stroke-linecap: round"/>
   </g>
   <g id="line2d_12">
    <path d="M 359.08125 209.509604 
L 359.08125 77.705972 
" clip-path="url(#p9a59aefc57)" style="fill: none; stroke: #3e3e3e; stroke-width: 3; stroke-linecap: round"/>
   </g>
   <g id="line2d_13">
    <path d="M 359.08125 176.558696 
L 359.08125 110.65688 
" clip-path="url(#p9a59aefc57)" style="fill: none; stroke: #3e3e3e; stroke-width: 9; stroke-linecap: round"/>
   </g>
   <g id="line2d_14">
    <path d="M 488.19375 199.633838 
L 488.19375 107.013637 
" clip-path="url(#p9a59aefc57)" style="fill: none; stroke: #3e3e3e; stroke-width: 3; stroke-linecap: round"/>
   </g>
   <g id="line2d_15">
    <path d="M 488.19375 168.760437 
L 488.19375 107.013637 
" clip-path="url(#p9a59aefc57)" style="fill: none; stroke: #3e3e3e; stroke-width: 9; stroke-linecap: round"/>
   </g>
   <g id="line2d_16">
    <path d="M 617.30625 206.056859 
L 617.30625 89.855774 
" clip-path="url(#p9a59aefc57)" style="fill: none; stroke: #3e3e3e; stroke-width: 3; stroke-linecap: round"/>
   </g>
   <g id="line2d_17">
    <path d="M 617.30625 176.17658 
L 617.30625 116.831026 
" clip-path="url(#p9a59aefc57)" style="fill: none; stroke: #3e3e3e; stroke-width: 9; stroke-linecap: round"/>
   </g>
   <g id="line2d_18">
    <path d="M 746.41875 228.522356 
L 746.41875 86.241548 
" clip-path="url(#p9a59aefc57)" style="fill: none; stroke: #3e3e3e; stroke-width: 3; stroke-linecap: round"/>
   </g>
   <g id="line2d_19">
    <path d="M 746.41875 181.09542 
L 746.41875 133.668484 
" clip-path="url(#p9a59aefc57)" style="fill: none; stroke: #3e3e3e; stroke-width: 9; stroke-linecap: round"/>
   </g>
   <g id="line2d_20">
    <path d="M 875.53125 199.371384 
L 875.53125 107.571184 
" clip-path="url(#p9a59aefc57)" style="fill: none; stroke: #3e3e3e; stroke-width: 3; stroke-linecap: round"/>
   </g>
   <g id="line2d_21">
    <path d="M 875.53125 168.771317 
L 875.53125 107.571184 
" clip-path="url(#p9a59aefc57)" style="fill: none; stroke: #3e3e3e; stroke-width: 9; stroke-linecap: round"/>
   </g>
   <g id="line2d_22">
    <path d="M 1004.64375 204.410741 
L 1004.64375 86.330044 
" clip-path="url(#p9a59aefc57)" style="fill: none; stroke: #3e3e3e; stroke-width: 3; stroke-linecap: round"/>
   </g>
   <g id="line2d_23">
    <path d="M 1004.64375 176.186112 
L 1004.64375 117.325931 
" clip-path="url(#p9a59aefc57)" style="fill: none; stroke: #3e3e3e; stroke-width: 9; stroke-linecap: round"/>
   </g>
   <g id="patch_3">
    <path d="M 36.3 254.153125 
L 36.3 35.6 
" style="fill: none; stroke: #cccccc; stroke-width: 1.25; stroke-linejoin: miter; stroke-linecap: square"/>
   </g>
   <g id="patch_4">
    <path d="M 1069.2 254.153125 
L 1069.2 35.6 
" style="fill: none; stroke: #cccccc; stroke-width: 1.25; stroke-linejoin: miter; stroke-linecap: square"/>
   </g>
   <g id="patch_5">
    <path d="M 36.3 254.153125 
L 1069.2 254.153125 
" style="fill: none; stroke: #cccccc; stroke-width: 1.25; stroke-linejoin: miter; stroke-linecap: square"/>
   </g>
   <g id="patch_6">
    <path d="M 36.3 35.6 
L 1069.2 35.6 
" style="fill: none; stroke: #cccccc; stroke-width: 1.25; stroke-linejoin: miter; stroke-linecap: square"/>
   </g>
   <g id="PathCollection_1">
    <defs>
     <path id="m8fe16cc2cf" d="M 0 3 
C 0.795609 3 1.55874 2.683901 2.12132 2.12132 
C 2.683901 1.55874 3 0.795609 3 0 
C 3 -0.795609 2.683901 -1.55874 2.12132 -2.12132 
C 1.55874 -2.683901 0.795609 -3 0 -3 
C -0.795609 -3 -1.55874 -2.683901 -2.12132 -2.12132 
C -2.683901 -1.55874 -3 -0.795609 -3 0 
C -3 0.795609 -2.683901 1.55874 -2.12132 2.12132 
C -1.55874 2.683901 -0.795609 3 0 3 
z
" style="stroke: #3e3e3e"/>
    </defs>
    <g clip-path="url(#p9a59aefc57)">
     <use xlink:href="#m8fe16cc2cf" x="100.85625" y="149.889646" style="fill: #ffffff; stroke: #3e3e3e"/>
    </g>
   </g>
   <g id="PathCollection_2">
    <g clip-path="url(#p9a59aefc57)">
     <use xlink:href="#m8fe16cc2cf" x="229.96875" y="155.603968" style="fill: #ffffff; stroke: #3e3e3e"/>
    </g>
   </g>
   <g id="PathCollection_3">
    <g clip-path="url(#p9a59aefc57)">
     <use xlink:href="#m8fe16cc2cf" x="359.08125" y="143.607788" style="fill: #ffffff; stroke: #3e3e3e"/>
    </g>
   </g>
   <g id="PathCollection_4">
    <g clip-path="url(#p9a59aefc57)">
     <use xlink:href="#m8fe16cc2cf" x="488.19375" y="137.887037" style="fill: #ffffff; stroke: #3e3e3e"/>
    </g>
   </g>
   <g id="PathCollection_5">
    <g clip-path="url(#p9a59aefc57)">
     <use xlink:href="#m8fe16cc2cf" x="617.30625" y="146.296301" style="fill: #ffffff; stroke: #3e3e3e"/>
    </g>
   </g>
   <g id="PathCollection_6">
    <g clip-path="url(#p9a59aefc57)">
     <use xlink:href="#m8fe16cc2cf" x="746.41875" y="133.668484" style="fill: #ffffff; stroke: #3e3e3e"/>
    </g>
   </g>
   <g id="PathCollection_7">
    <g clip-path="url(#p9a59aefc57)">
     <use xlink:href="#m8fe16cc2cf" x="875.53125" y="138.171251" style="fill: #ffffff; stroke: #3e3e3e"/>
    </g>
   </g>
   <g id="PathCollection_8">
    <g clip-path="url(#p9a59aefc57)">
     <use xlink:href="#m8fe16cc2cf" x="1004.64375" y="146.84492" style="fill: #ffffff; stroke: #3e3e3e"/>
    </g>
   </g>
  </g>
  <g id="text_16">
   <!-- Violin Plot of all Continuous Variables -->
   <g style="fill: #262626" transform="translate(416.035547 16.496719) scale(0.15 -0.15)">
    <defs>
     <path id="ArialMT-56" d="M 1803 0 
L 28 4581 
L 684 4581 
L 1875 1253 
Q 2019 853 2116 503 
Q 2222 878 2363 1253 
L 3600 4581 
L 4219 4581 
L 2425 0 
L 1803 0 
z
" transform="scale(0.015625)"/>
     <path id="ArialMT-20" transform="scale(0.015625)"/>
     <path id="ArialMT-50" d="M 494 0 
L 494 4581 
L 2222 4581 
Q 2678 4581 2919 4538 
Q 3256 4481 3484 4323 
Q 3713 4166 3852 3881 
Q 3991 3597 3991 3256 
Q 3991 2672 3619 2267 
Q 3247 1863 2275 1863 
L 1100 1863 
L 1100 0 
L 494 0 
z
M 1100 2403 
L 2284 2403 
Q 2872 2403 3119 2622 
Q 3366 2841 3366 3238 
Q 3366 3525 3220 3729 
Q 3075 3934 2838 4000 
Q 2684 4041 2272 4041 
L 1100 4041 
L 1100 2403 
z
" transform="scale(0.015625)"/>
     <path id="ArialMT-43" d="M 3763 1606 
L 4369 1453 
Q 4178 706 3683 314 
Q 3188 -78 2472 -78 
Q 1731 -78 1267 223 
Q 803 525 561 1097 
Q 319 1669 319 2325 
Q 319 3041 592 3573 
Q 866 4106 1370 4382 
Q 1875 4659 2481 4659 
Q 3169 4659 3637 4309 
Q 4106 3959 4291 3325 
L 3694 3184 
Q 3534 3684 3231 3912 
Q 2928 4141 2469 4141 
Q 1941 4141 1586 3887 
Q 1231 3634 1087 3207 
Q 944 2781 944 2328 
Q 944 1744 1114 1308 
Q 1284 872 1643 656 
Q 2003 441 2422 441 
Q 2931 441 3284 734 
Q 3638 1028 3763 1606 
z
" transform="scale(0.015625)"/>
    </defs>
    <use xlink:href="#ArialMT-56"/>
    <use xlink:href="#ArialMT-69" x="64.949219"/>
    <use xlink:href="#ArialMT-6f" x="87.166016"/>
    <use xlink:href="#ArialMT-6c" x="142.78125"/>
    <use xlink:href="#ArialMT-69" x="164.998047"/>
    <use xlink:href="#ArialMT-6e" x="187.214844"/>
    <use xlink:href="#ArialMT-20" x="242.830078"/>
    <use xlink:href="#ArialMT-50" x="270.613281"/>
    <use xlink:href="#ArialMT-6c" x="337.3125"/>
    <use xlink:href="#ArialMT-6f" x="359.529297"/>
    <use xlink:href="#ArialMT-74" x="415.144531"/>
    <use xlink:href="#ArialMT-20" x="442.927734"/>
    <use xlink:href="#ArialMT-6f" x="470.710938"/>
    <use xlink:href="#ArialMT-66" x="526.326172"/>
    <use xlink:href="#ArialMT-20" x="554.109375"/>
    <use xlink:href="#ArialMT-61" x="581.892578"/>
    <use xlink:href="#ArialMT-6c" x="637.507812"/>
    <use xlink:href="#ArialMT-6c" x="659.724609"/>
    <use xlink:href="#ArialMT-20" x="681.941406"/>
    <use xlink:href="#ArialMT-43" x="709.724609"/>
    <use xlink:href="#ArialMT-6f" x="781.941406"/>
    <use xlink:href="#ArialMT-6e" x="837.556641"/>
    <use xlink:href="#ArialMT-74" x="893.171875"/>
    <use xlink:href="#ArialMT-69" x="920.955078"/>
    <use xlink:href="#ArialMT-6e" x="943.171875"/>
    <use xlink:href="#ArialMT-75" x="998.787109"/>
    <use xlink:href="#ArialMT-6f" x="1054.402344"/>
    <use xlink:href="#ArialMT-75" x="1110.017578"/>
    <use xlink:href="#ArialMT-73" x="1165.632812"/>
    <use xlink:href="#ArialMT-20" x="1215.632812"/>
    <use xlink:href="#ArialMT-56" x="1243.416016"/>
    <use xlink:href="#ArialMT-61" x="1302.740234"/>
    <use xlink:href="#ArialMT-72" x="1358.355469"/>
    <use xlink:href="#ArialMT-69" x="1391.65625"/>
    <use xlink:href="#ArialMT-61" x="1413.873047"/>
    <use xlink:href="#ArialMT-62" x="1469.488281"/>
    <use xlink:href="#ArialMT-6c" x="1525.103516"/>
    <use xlink:href="#ArialMT-65" x="1547.320312"/>
    <use xlink:href="#ArialMT-73" x="1602.935547"/>
   </g>
  </g>
 </g>
 <defs>
  <clipPath id="p9a59aefc57">
   <rect x="36.3" y="35.6" width="1032.9" height="218.553125"/>
  </clipPath>
 </defs>
</svg>
