<?xml version="1.0" encoding="utf-8" standalone="no"?>
<!DOCTYPE svg PUBLIC "-//W3C//DTD SVG 1.1//EN"
  "http://www.w3.org/Graphics/SVG/1.1/DTD/svg11.dtd">
<svg xmlns:xlink="http://www.w3.org/1999/xlink" width="1080pt" height="288pt" viewBox="0 0 1080 288" xmlns="http://www.w3.org/2000/svg" version="1.1">
 <metadata>
  <rdf:RDF xmlns:dc="http://purl.org/dc/elements/1.1/" xmlns:cc="http://creativecommons.org/ns#" xmlns:rdf="http://www.w3.org/1999/02/22-rdf-syntax-ns#">
   <cc:Work>
    <dc:type rdf:resource="http://purl.org/dc/dcmitype/StillImage"/>
    <dc:date>2024-01-16T03:53:14.696068</dc:date>
    <dc:format>image/svg+xml</dc:format>
    <dc:creator>
     <cc:Agent>
      <dc:title>Matplotlib v3.7.4, https://matplotlib.org/</dc:title>
     </cc:Agent>
    </dc:creator>
   </cc:Work>
  </rdf:RDF>
 </metadata>
 <defs>
  <style type="text/css">*{stroke-linejoin: round; stroke-linecap: butt}</style>
 </defs>
 <g id="figure_1">
  <g id="patch_1">
   <path d="M 0 288 
L 1080 288 
L 1080 0 
L 0 0 
L 0 288 
z
" style="fill: none"/>
  </g>
  <g id="axes_1">
   <g id="patch_2">
    <path d="M 36.3 254.153125 
L 1069.2 254.153125 
L 1069.2 37.956781 
L 36.3 37.956781 
z
" style="fill: #ffffff"/>
   </g>
   <g id="matplotlib.axis_1">
    <g id="xtick_1">
     <g id="text_1">
      <!-- NumCompaniesWorked -->
      <g style="fill: #262626" transform="translate(42.574297 275.160781) scale(0.11 -0.11)">
       <defs>
        <path id="ArialMT-4e" d="M 488 0 
L 488 4581 
L 1109 4581 
L 3516 984 
L 3516 4581 
L 4097 4581 
L 4097 0 
L 3475 0 
L 1069 3600 
L 1069 0 
L 488 0 
z
" transform="scale(0.015625)"/>
        <path id="ArialMT-75" d="M 2597 0 
L 2597 488 
Q 2209 -75 1544 -75 
Q 1250 -75 995 37 
Q 741 150 617 320 
Q 494 491 444 738 
Q 409 903 409 1263 
L 409 3319 
L 972 3319 
L 972 1478 
Q 972 1038 1006 884 
Q 1059 663 1231 536 
Q 1403 409 1656 409 
Q 1909 409 2131 539 
Q 2353 669 2445 892 
Q 2538 1116 2538 1541 
L 2538 3319 
L 3100 3319 
L 3100 0 
L 2597 0 
z
" transform="scale(0.015625)"/>
        <path id="ArialMT-6d" d="M 422 0 
L 422 3319 
L 925 3319 
L 925 2853 
Q 1081 3097 1340 3245 
Q 1600 3394 1931 3394 
Q 2300 3394 2536 3241 
Q 2772 3088 2869 2813 
Q 3263 3394 3894 3394 
Q 4388 3394 4653 3120 
Q 4919 2847 4919 2278 
L 4919 0 
L 4359 0 
L 4359 2091 
Q 4359 2428 4304 2576 
Q 4250 2725 4106 2815 
Q 3963 2906 3769 2906 
Q 3419 2906 3187 2673 
Q 2956 2441 2956 1928 
L 2956 0 
L 2394 0 
L 2394 2156 
Q 2394 2531 2256 2718 
Q 2119 2906 1806 2906 
Q 1569 2906 1367 2781 
Q 1166 2656 1075 2415 
Q 984 2175 984 1722 
L 984 0 
L 422 0 
z
" transform="scale(0.015625)"/>
        <path id="ArialMT-43" d="M 3763 1606 
L 4369 1453 
Q 4178 706 3683 314 
Q 3188 -78 2472 -78 
Q 1731 -78 1267 223 
Q 803 525 561 1097 
Q 319 1669 319 2325 
Q 319 3041 592 3573 
Q 866 4106 1370 4382 
Q 1875 4659 2481 4659 
Q 3169 4659 3637 4309 
Q 4106 3959 4291 3325 
L 3694 3184 
Q 3534 3684 3231 3912 
Q 2928 4141 2469 4141 
Q 1941 4141 1586 3887 
Q 1231 3634 1087 3207 
Q 944 2781 944 2328 
Q 944 1744 1114 1308 
Q 1284 872 1643 656 
Q 2003 441 2422 441 
Q 2931 441 3284 734 
Q 3638 1028 3763 1606 
z
" transform="scale(0.015625)"/>
        <path id="ArialMT-6f" d="M 213 1659 
Q 213 2581 725 3025 
Q 1153 3394 1769 3394 
Q 2453 3394 2887 2945 
Q 3322 2497 3322 1706 
Q 3322 1066 3130 698 
Q 2938 331 2570 128 
Q 2203 -75 1769 -75 
Q 1072 -75 642 372 
Q 213 819 213 1659 
z
M 791 1659 
Q 791 1022 1069 705 
Q 1347 388 1769 388 
Q 2188 388 2466 706 
Q 2744 1025 2744 1678 
Q 2744 2294 2464 2611 
Q 2184 2928 1769 2928 
Q 1347 2928 1069 2612 
Q 791 2297 791 1659 
z
" transform="scale(0.015625)"/>
        <path id="ArialMT-70" d="M 422 -1272 
L 422 3319 
L 934 3319 
L 934 2888 
Q 1116 3141 1344 3267 
Q 1572 3394 1897 3394 
Q 2322 3394 2647 3175 
Q 2972 2956 3137 2557 
Q 3303 2159 3303 1684 
Q 3303 1175 3120 767 
Q 2938 359 2589 142 
Q 2241 -75 1856 -75 
Q 1575 -75 1351 44 
Q 1128 163 984 344 
L 984 -1272 
L 422 -1272 
z
M 931 1641 
Q 931 1000 1190 694 
Q 1450 388 1819 388 
Q 2194 388 2461 705 
Q 2728 1022 2728 1688 
Q 2728 2322 2467 2637 
Q 2206 2953 1844 2953 
Q 1484 2953 1207 2617 
Q 931 2281 931 1641 
z
" transform="scale(0.015625)"/>
        <path id="ArialMT-61" d="M 2588 409 
Q 2275 144 1986 34 
Q 1697 -75 1366 -75 
Q 819 -75 525 192 
Q 231 459 231 875 
Q 231 1119 342 1320 
Q 453 1522 633 1644 
Q 813 1766 1038 1828 
Q 1203 1872 1538 1913 
Q 2219 1994 2541 2106 
Q 2544 2222 2544 2253 
Q 2544 2597 2384 2738 
Q 2169 2928 1744 2928 
Q 1347 2928 1158 2789 
Q 969 2650 878 2297 
L 328 2372 
Q 403 2725 575 2942 
Q 747 3159 1072 3276 
Q 1397 3394 1825 3394 
Q 2250 3394 2515 3294 
Q 2781 3194 2906 3042 
Q 3031 2891 3081 2659 
Q 3109 2516 3109 2141 
L 3109 1391 
Q 3109 606 3145 398 
Q 3181 191 3288 0 
L 2700 0 
Q 2613 175 2588 409 
z
M 2541 1666 
Q 2234 1541 1622 1453 
Q 1275 1403 1131 1340 
Q 988 1278 909 1158 
Q 831 1038 831 891 
Q 831 666 1001 516 
Q 1172 366 1500 366 
Q 1825 366 2078 508 
Q 2331 650 2450 897 
Q 2541 1088 2541 1459 
L 2541 1666 
z
" transform="scale(0.015625)"/>
        <path id="ArialMT-6e" d="M 422 0 
L 422 3319 
L 928 3319 
L 928 2847 
Q 1294 3394 1984 3394 
Q 2284 3394 2536 3286 
Q 2788 3178 2913 3003 
Q 3038 2828 3088 2588 
Q 3119 2431 3119 2041 
L 3119 0 
L 2556 0 
L 2556 2019 
Q 2556 2363 2490 2533 
Q 2425 2703 2258 2804 
Q 2091 2906 1866 2906 
Q 1506 2906 1245 2678 
Q 984 2450 984 1813 
L 984 0 
L 422 0 
z
" transform="scale(0.015625)"/>
        <path id="ArialMT-69" d="M 425 3934 
L 425 4581 
L 988 4581 
L 988 3934 
L 425 3934 
z
M 425 0 
L 425 3319 
L 988 3319 
L 988 0 
L 425 0 
z
" transform="scale(0.015625)"/>
        <path id="ArialMT-65" d="M 2694 1069 
L 3275 997 
Q 3138 488 2766 206 
Q 2394 -75 1816 -75 
Q 1088 -75 661 373 
Q 234 822 234 1631 
Q 234 2469 665 2931 
Q 1097 3394 1784 3394 
Q 2450 3394 2872 2941 
Q 3294 2488 3294 1666 
Q 3294 1616 3291 1516 
L 816 1516 
Q 847 969 1125 678 
Q 1403 388 1819 388 
Q 2128 388 2347 550 
Q 2566 713 2694 1069 
z
M 847 1978 
L 2700 1978 
Q 2663 2397 2488 2606 
Q 2219 2931 1791 2931 
Q 1403 2931 1139 2672 
Q 875 2413 847 1978 
z
" transform="scale(0.015625)"/>
        <path id="ArialMT-73" d="M 197 991 
L 753 1078 
Q 800 744 1014 566 
Q 1228 388 1613 388 
Q 2000 388 2187 545 
Q 2375 703 2375 916 
Q 2375 1106 2209 1216 
Q 2094 1291 1634 1406 
Q 1016 1563 777 1677 
Q 538 1791 414 1992 
Q 291 2194 291 2438 
Q 291 2659 392 2848 
Q 494 3038 669 3163 
Q 800 3259 1026 3326 
Q 1253 3394 1513 3394 
Q 1903 3394 2198 3281 
Q 2494 3169 2634 2976 
Q 2775 2784 2828 2463 
L 2278 2388 
Q 2241 2644 2061 2787 
Q 1881 2931 1553 2931 
Q 1166 2931 1000 2803 
Q 834 2675 834 2503 
Q 834 2394 903 2306 
Q 972 2216 1119 2156 
Q 1203 2125 1616 2013 
Q 2213 1853 2448 1751 
Q 2684 1650 2818 1456 
Q 2953 1263 2953 975 
Q 2953 694 2789 445 
Q 2625 197 2315 61 
Q 2006 -75 1616 -75 
Q 969 -75 630 194 
Q 291 463 197 991 
z
" transform="scale(0.015625)"/>
        <path id="ArialMT-57" d="M 1294 0 
L 78 4581 
L 700 4581 
L 1397 1578 
Q 1509 1106 1591 641 
Q 1766 1375 1797 1488 
L 2669 4581 
L 3400 4581 
L 4056 2263 
Q 4303 1400 4413 641 
Q 4500 1075 4641 1638 
L 5359 4581 
L 5969 4581 
L 4713 0 
L 4128 0 
L 3163 3491 
Q 3041 3928 3019 4028 
Q 2947 3713 2884 3491 
L 1913 0 
L 1294 0 
z
" transform="scale(0.015625)"/>
        <path id="ArialMT-72" d="M 416 0 
L 416 3319 
L 922 3319 
L 922 2816 
Q 1116 3169 1280 3281 
Q 1444 3394 1641 3394 
Q 1925 3394 2219 3213 
L 2025 2691 
Q 1819 2813 1613 2813 
Q 1428 2813 1281 2702 
Q 1134 2591 1072 2394 
Q 978 2094 978 1738 
L 978 0 
L 416 0 
z
" transform="scale(0.015625)"/>
        <path id="ArialMT-6b" d="M 425 0 
L 425 4581 
L 988 4581 
L 988 1969 
L 2319 3319 
L 3047 3319 
L 1778 2088 
L 3175 0 
L 2481 0 
L 1384 1697 
L 988 1316 
L 988 0 
L 425 0 
z
" transform="scale(0.015625)"/>
        <path id="ArialMT-64" d="M 2575 0 
L 2575 419 
Q 2259 -75 1647 -75 
Q 1250 -75 917 144 
Q 584 363 401 755 
Q 219 1147 219 1656 
Q 219 2153 384 2558 
Q 550 2963 881 3178 
Q 1213 3394 1622 3394 
Q 1922 3394 2156 3267 
Q 2391 3141 2538 2938 
L 2538 4581 
L 3097 4581 
L 3097 0 
L 2575 0 
z
M 797 1656 
Q 797 1019 1065 703 
Q 1334 388 1700 388 
Q 2069 388 2326 689 
Q 2584 991 2584 1609 
Q 2584 2291 2321 2609 
Q 2059 2928 1675 2928 
Q 1300 2928 1048 2622 
Q 797 2316 797 1656 
z
" transform="scale(0.015625)"/>
       </defs>
       <use xlink:href="#ArialMT-4e"/>
       <use xlink:href="#ArialMT-75" x="72.216797"/>
       <use xlink:href="#ArialMT-6d" x="127.832031"/>
       <use xlink:href="#ArialMT-43" x="211.132812"/>
       <use xlink:href="#ArialMT-6f" x="283.349609"/>
       <use xlink:href="#ArialMT-6d" x="338.964844"/>
       <use xlink:href="#ArialMT-70" x="422.265625"/>
       <use xlink:href="#ArialMT-61" x="477.880859"/>
       <use xlink:href="#ArialMT-6e" x="533.496094"/>
       <use xlink:href="#ArialMT-69" x="589.111328"/>
       <use xlink:href="#ArialMT-65" x="611.328125"/>
       <use xlink:href="#ArialMT-73" x="666.943359"/>
       <use xlink:href="#ArialMT-57" x="716.943359"/>
       <use xlink:href="#ArialMT-6f" x="809.578125"/>
       <use xlink:href="#ArialMT-72" x="865.193359"/>
       <use xlink:href="#ArialMT-6b" x="898.494141"/>
       <use xlink:href="#ArialMT-65" x="948.494141"/>
       <use xlink:href="#ArialMT-64" x="1004.109375"/>
      </g>
     </g>
    </g>
    <g id="xtick_2">
     <g id="text_2">
      <!-- RelationshipSatisfaction -->
      <g style="fill: #262626" transform="translate(171.270859 275.160781) scale(0.11 -0.11)">
       <defs>
        <path id="ArialMT-52" d="M 503 0 
L 503 4581 
L 2534 4581 
Q 3147 4581 3465 4457 
Q 3784 4334 3975 4021 
Q 4166 3709 4166 3331 
Q 4166 2844 3850 2509 
Q 3534 2175 2875 2084 
Q 3116 1969 3241 1856 
Q 3506 1613 3744 1247 
L 4541 0 
L 3778 0 
L 3172 953 
Q 2906 1366 2734 1584 
Q 2563 1803 2427 1890 
Q 2291 1978 2150 2013 
Q 2047 2034 1813 2034 
L 1109 2034 
L 1109 0 
L 503 0 
z
M 1109 2559 
L 2413 2559 
Q 2828 2559 3062 2645 
Q 3297 2731 3419 2920 
Q 3541 3109 3541 3331 
Q 3541 3656 3305 3865 
Q 3069 4075 2559 4075 
L 1109 4075 
L 1109 2559 
z
" transform="scale(0.015625)"/>
        <path id="ArialMT-6c" d="M 409 0 
L 409 4581 
L 972 4581 
L 972 0 
L 409 0 
z
" transform="scale(0.015625)"/>
        <path id="ArialMT-74" d="M 1650 503 
L 1731 6 
Q 1494 -44 1306 -44 
Q 1000 -44 831 53 
Q 663 150 594 308 
Q 525 466 525 972 
L 525 2881 
L 113 2881 
L 113 3319 
L 525 3319 
L 525 4141 
L 1084 4478 
L 1084 3319 
L 1650 3319 
L 1650 2881 
L 1084 2881 
L 1084 941 
Q 1084 700 1114 631 
Q 1144 563 1211 522 
Q 1278 481 1403 481 
Q 1497 481 1650 503 
z
" transform="scale(0.015625)"/>
        <path id="ArialMT-68" d="M 422 0 
L 422 4581 
L 984 4581 
L 984 2938 
Q 1378 3394 1978 3394 
Q 2347 3394 2619 3248 
Q 2891 3103 3008 2847 
Q 3125 2591 3125 2103 
L 3125 0 
L 2563 0 
L 2563 2103 
Q 2563 2525 2380 2717 
Q 2197 2909 1863 2909 
Q 1613 2909 1392 2779 
Q 1172 2650 1078 2428 
Q 984 2206 984 1816 
L 984 0 
L 422 0 
z
" transform="scale(0.015625)"/>
        <path id="ArialMT-53" d="M 288 1472 
L 859 1522 
Q 900 1178 1048 958 
Q 1197 738 1509 602 
Q 1822 466 2213 466 
Q 2559 466 2825 569 
Q 3091 672 3220 851 
Q 3350 1031 3350 1244 
Q 3350 1459 3225 1620 
Q 3100 1781 2813 1891 
Q 2628 1963 1997 2114 
Q 1366 2266 1113 2400 
Q 784 2572 623 2826 
Q 463 3081 463 3397 
Q 463 3744 659 4045 
Q 856 4347 1234 4503 
Q 1613 4659 2075 4659 
Q 2584 4659 2973 4495 
Q 3363 4331 3572 4012 
Q 3781 3694 3797 3291 
L 3216 3247 
Q 3169 3681 2898 3903 
Q 2628 4125 2100 4125 
Q 1550 4125 1298 3923 
Q 1047 3722 1047 3438 
Q 1047 3191 1225 3031 
Q 1400 2872 2139 2705 
Q 2878 2538 3153 2413 
Q 3553 2228 3743 1945 
Q 3934 1663 3934 1294 
Q 3934 928 3725 604 
Q 3516 281 3123 101 
Q 2731 -78 2241 -78 
Q 1619 -78 1198 103 
Q 778 284 539 648 
Q 300 1013 288 1472 
z
" transform="scale(0.015625)"/>
        <path id="ArialMT-66" d="M 556 0 
L 556 2881 
L 59 2881 
L 59 3319 
L 556 3319 
L 556 3672 
Q 556 4006 616 4169 
Q 697 4388 901 4523 
Q 1106 4659 1475 4659 
Q 1713 4659 2000 4603 
L 1916 4113 
Q 1741 4144 1584 4144 
Q 1328 4144 1222 4034 
Q 1116 3925 1116 3625 
L 1116 3319 
L 1763 3319 
L 1763 2881 
L 1116 2881 
L 1116 0 
L 556 0 
z
" transform="scale(0.015625)"/>
        <path id="ArialMT-63" d="M 2588 1216 
L 3141 1144 
Q 3050 572 2676 248 
Q 2303 -75 1759 -75 
Q 1078 -75 664 370 
Q 250 816 250 1647 
Q 250 2184 428 2587 
Q 606 2991 970 3192 
Q 1334 3394 1763 3394 
Q 2303 3394 2647 3120 
Q 2991 2847 3088 2344 
L 2541 2259 
Q 2463 2594 2264 2762 
Q 2066 2931 1784 2931 
Q 1359 2931 1093 2626 
Q 828 2322 828 1663 
Q 828 994 1084 691 
Q 1341 388 1753 388 
Q 2084 388 2306 591 
Q 2528 794 2588 1216 
z
" transform="scale(0.015625)"/>
       </defs>
       <use xlink:href="#ArialMT-52"/>
       <use xlink:href="#ArialMT-65" x="72.216797"/>
       <use xlink:href="#ArialMT-6c" x="127.832031"/>
       <use xlink:href="#ArialMT-61" x="150.048828"/>
       <use xlink:href="#ArialMT-74" x="205.664062"/>
       <use xlink:href="#ArialMT-69" x="233.447266"/>
       <use xlink:href="#ArialMT-6f" x="255.664062"/>
       <use xlink:href="#ArialMT-6e" x="311.279297"/>
       <use xlink:href="#ArialMT-73" x="366.894531"/>
       <use xlink:href="#ArialMT-68" x="416.894531"/>
       <use xlink:href="#ArialMT-69" x="472.509766"/>
       <use xlink:href="#ArialMT-70" x="494.726562"/>
       <use xlink:href="#ArialMT-53" x="550.341797"/>
       <use xlink:href="#ArialMT-61" x="617.041016"/>
       <use xlink:href="#ArialMT-74" x="672.65625"/>
       <use xlink:href="#ArialMT-69" x="700.439453"/>
       <use xlink:href="#ArialMT-73" x="722.65625"/>
       <use xlink:href="#ArialMT-66" x="772.65625"/>
       <use xlink:href="#ArialMT-61" x="800.439453"/>
       <use xlink:href="#ArialMT-63" x="856.054688"/>
       <use xlink:href="#ArialMT-74" x="906.054688"/>
       <use xlink:href="#ArialMT-69" x="933.837891"/>
       <use xlink:href="#ArialMT-6f" x="956.054688"/>
       <use xlink:href="#ArialMT-6e" x="1011.669922"/>
      </g>
     </g>
    </g>
    <g id="xtick_3">
     <g id="text_3">
      <!-- StockOptionLevel -->
      <g style="fill: #262626" transform="translate(315.975 275.167656) scale(0.11 -0.11)">
       <defs>
        <path id="ArialMT-4f" d="M 309 2231 
Q 309 3372 921 4017 
Q 1534 4663 2503 4663 
Q 3138 4663 3647 4359 
Q 4156 4056 4423 3514 
Q 4691 2972 4691 2284 
Q 4691 1588 4409 1038 
Q 4128 488 3612 205 
Q 3097 -78 2500 -78 
Q 1853 -78 1343 234 
Q 834 547 571 1087 
Q 309 1628 309 2231 
z
M 934 2222 
Q 934 1394 1379 917 
Q 1825 441 2497 441 
Q 3181 441 3623 922 
Q 4066 1403 4066 2288 
Q 4066 2847 3877 3264 
Q 3688 3681 3323 3911 
Q 2959 4141 2506 4141 
Q 1863 4141 1398 3698 
Q 934 3256 934 2222 
z
" transform="scale(0.015625)"/>
        <path id="ArialMT-4c" d="M 469 0 
L 469 4581 
L 1075 4581 
L 1075 541 
L 3331 541 
L 3331 0 
L 469 0 
z
" transform="scale(0.015625)"/>
        <path id="ArialMT-76" d="M 1344 0 
L 81 3319 
L 675 3319 
L 1388 1331 
Q 1503 1009 1600 663 
Q 1675 925 1809 1294 
L 2547 3319 
L 3125 3319 
L 1869 0 
L 1344 0 
z
" transform="scale(0.015625)"/>
       </defs>
       <use xlink:href="#ArialMT-53"/>
       <use xlink:href="#ArialMT-74" x="66.699219"/>
       <use xlink:href="#ArialMT-6f" x="94.482422"/>
       <use xlink:href="#ArialMT-63" x="150.097656"/>
       <use xlink:href="#ArialMT-6b" x="200.097656"/>
       <use xlink:href="#ArialMT-4f" x="250.097656"/>
       <use xlink:href="#ArialMT-70" x="327.880859"/>
       <use xlink:href="#ArialMT-74" x="383.496094"/>
       <use xlink:href="#ArialMT-69" x="411.279297"/>
       <use xlink:href="#ArialMT-6f" x="433.496094"/>
       <use xlink:href="#ArialMT-6e" x="489.111328"/>
       <use xlink:href="#ArialMT-4c" x="544.726562"/>
       <use xlink:href="#ArialMT-65" x="600.341797"/>
       <use xlink:href="#ArialMT-76" x="655.957031"/>
       <use xlink:href="#ArialMT-65" x="705.957031"/>
       <use xlink:href="#ArialMT-6c" x="761.572266"/>
      </g>
     </g>
    </g>
    <g id="xtick_4">
     <g id="text_4">
      <!-- TrainingTimesLastYear -->
      <g style="fill: #262626" transform="translate(432.256172 275.026719) scale(0.11 -0.11)">
       <defs>
        <path id="ArialMT-54" d="M 1659 0 
L 1659 4041 
L 150 4041 
L 150 4581 
L 3781 4581 
L 3781 4041 
L 2266 4041 
L 2266 0 
L 1659 0 
z
" transform="scale(0.015625)"/>
        <path id="ArialMT-67" d="M 319 -275 
L 866 -356 
Q 900 -609 1056 -725 
Q 1266 -881 1628 -881 
Q 2019 -881 2231 -725 
Q 2444 -569 2519 -288 
Q 2563 -116 2559 434 
Q 2191 0 1641 0 
Q 956 0 581 494 
Q 206 988 206 1678 
Q 206 2153 378 2554 
Q 550 2956 876 3175 
Q 1203 3394 1644 3394 
Q 2231 3394 2613 2919 
L 2613 3319 
L 3131 3319 
L 3131 450 
Q 3131 -325 2973 -648 
Q 2816 -972 2473 -1159 
Q 2131 -1347 1631 -1347 
Q 1038 -1347 672 -1080 
Q 306 -813 319 -275 
z
M 784 1719 
Q 784 1066 1043 766 
Q 1303 466 1694 466 
Q 2081 466 2343 764 
Q 2606 1063 2606 1700 
Q 2606 2309 2336 2618 
Q 2066 2928 1684 2928 
Q 1309 2928 1046 2623 
Q 784 2319 784 1719 
z
" transform="scale(0.015625)"/>
        <path id="ArialMT-59" d="M 1784 0 
L 1784 1941 
L 19 4581 
L 756 4581 
L 1659 3200 
Q 1909 2813 2125 2425 
Q 2331 2784 2625 3234 
L 3513 4581 
L 4219 4581 
L 2391 1941 
L 2391 0 
L 1784 0 
z
" transform="scale(0.015625)"/>
       </defs>
       <use xlink:href="#ArialMT-54"/>
       <use xlink:href="#ArialMT-72" x="57.333984"/>
       <use xlink:href="#ArialMT-61" x="90.634766"/>
       <use xlink:href="#ArialMT-69" x="146.25"/>
       <use xlink:href="#ArialMT-6e" x="168.466797"/>
       <use xlink:href="#ArialMT-69" x="224.082031"/>
       <use xlink:href="#ArialMT-6e" x="246.298828"/>
       <use xlink:href="#ArialMT-67" x="301.914062"/>
       <use xlink:href="#ArialMT-54" x="357.529297"/>
       <use xlink:href="#ArialMT-69" x="414.863281"/>
       <use xlink:href="#ArialMT-6d" x="437.080078"/>
       <use xlink:href="#ArialMT-65" x="520.380859"/>
       <use xlink:href="#ArialMT-73" x="575.996094"/>
       <use xlink:href="#ArialMT-4c" x="625.996094"/>
       <use xlink:href="#ArialMT-61" x="681.611328"/>
       <use xlink:href="#ArialMT-73" x="737.226562"/>
       <use xlink:href="#ArialMT-74" x="787.226562"/>
       <use xlink:href="#ArialMT-59" x="815.009766"/>
       <use xlink:href="#ArialMT-65" x="872.583984"/>
       <use xlink:href="#ArialMT-61" x="928.199219"/>
       <use xlink:href="#ArialMT-72" x="983.814453"/>
      </g>
     </g>
    </g>
    <g id="xtick_5">
     <g id="text_5">
      <!-- WorkLifeBalance -->
      <g style="fill: #262626" transform="translate(575.829375 275.026719) scale(0.11 -0.11)">
       <defs>
        <path id="ArialMT-42" d="M 469 0 
L 469 4581 
L 2188 4581 
Q 2713 4581 3030 4442 
Q 3347 4303 3526 4014 
Q 3706 3725 3706 3409 
Q 3706 3116 3547 2856 
Q 3388 2597 3066 2438 
Q 3481 2316 3704 2022 
Q 3928 1728 3928 1328 
Q 3928 1006 3792 729 
Q 3656 453 3456 303 
Q 3256 153 2954 76 
Q 2653 0 2216 0 
L 469 0 
z
M 1075 2656 
L 2066 2656 
Q 2469 2656 2644 2709 
Q 2875 2778 2992 2937 
Q 3109 3097 3109 3338 
Q 3109 3566 3000 3739 
Q 2891 3913 2687 3977 
Q 2484 4041 1991 4041 
L 1075 4041 
L 1075 2656 
z
M 1075 541 
L 2216 541 
Q 2509 541 2628 563 
Q 2838 600 2978 687 
Q 3119 775 3209 942 
Q 3300 1109 3300 1328 
Q 3300 1584 3169 1773 
Q 3038 1963 2805 2039 
Q 2572 2116 2134 2116 
L 1075 2116 
L 1075 541 
z
" transform="scale(0.015625)"/>
       </defs>
       <use xlink:href="#ArialMT-57"/>
       <use xlink:href="#ArialMT-6f" x="92.634766"/>
       <use xlink:href="#ArialMT-72" x="148.25"/>
       <use xlink:href="#ArialMT-6b" x="181.550781"/>
       <use xlink:href="#ArialMT-4c" x="231.550781"/>
       <use xlink:href="#ArialMT-69" x="287.166016"/>
       <use xlink:href="#ArialMT-66" x="309.382812"/>
       <use xlink:href="#ArialMT-65" x="337.166016"/>
       <use xlink:href="#ArialMT-42" x="392.78125"/>
       <use xlink:href="#ArialMT-61" x="459.480469"/>
       <use xlink:href="#ArialMT-6c" x="515.095703"/>
       <use xlink:href="#ArialMT-61" x="537.3125"/>
       <use xlink:href="#ArialMT-6e" x="592.927734"/>
       <use xlink:href="#ArialMT-63" x="648.542969"/>
       <use xlink:href="#ArialMT-65" x="698.542969"/>
      </g>
     </g>
    </g>
    <g id="xtick_6">
     <g id="text_6">
      <!-- YearsSinceLastPromotion -->
      <g style="fill: #262626" transform="translate(683.335469 275.026719) scale(0.11 -0.11)">
       <defs>
        <path id="ArialMT-50" d="M 494 0 
L 494 4581 
L 2222 4581 
Q 2678 4581 2919 4538 
Q 3256 4481 3484 4323 
Q 3713 4166 3852 3881 
Q 3991 3597 3991 3256 
Q 3991 2672 3619 2267 
Q 3247 1863 2275 1863 
L 1100 1863 
L 1100 0 
L 494 0 
z
M 1100 2403 
L 2284 2403 
Q 2872 2403 3119 2622 
Q 3366 2841 3366 3238 
Q 3366 3525 3220 3729 
Q 3075 3934 2838 4000 
Q 2684 4041 2272 4041 
L 1100 4041 
L 1100 2403 
z
" transform="scale(0.015625)"/>
       </defs>
       <use xlink:href="#ArialMT-59"/>
       <use xlink:href="#ArialMT-65" x="57.574219"/>
       <use xlink:href="#ArialMT-61" x="113.189453"/>
       <use xlink:href="#ArialMT-72" x="168.804688"/>
       <use xlink:href="#ArialMT-73" x="202.105469"/>
       <use xlink:href="#ArialMT-53" x="252.105469"/>
       <use xlink:href="#ArialMT-69" x="318.804688"/>
       <use xlink:href="#ArialMT-6e" x="341.021484"/>
       <use xlink:href="#ArialMT-63" x="396.636719"/>
       <use xlink:href="#ArialMT-65" x="446.636719"/>
       <use xlink:href="#ArialMT-4c" x="502.251953"/>
       <use xlink:href="#ArialMT-61" x="557.867188"/>
       <use xlink:href="#ArialMT-73" x="613.482422"/>
       <use xlink:href="#ArialMT-74" x="663.482422"/>
       <use xlink:href="#ArialMT-50" x="691.265625"/>
       <use xlink:href="#ArialMT-72" x="757.964844"/>
       <use xlink:href="#ArialMT-6f" x="791.265625"/>
       <use xlink:href="#ArialMT-6d" x="846.880859"/>
       <use xlink:href="#ArialMT-6f" x="930.181641"/>
       <use xlink:href="#ArialMT-74" x="985.796875"/>
       <use xlink:href="#ArialMT-69" x="1013.580078"/>
       <use xlink:href="#ArialMT-6f" x="1035.796875"/>
       <use xlink:href="#ArialMT-6e" x="1091.412109"/>
      </g>
     </g>
    </g>
    <g id="xtick_7">
     <g id="text_7">
      <!-- Incentive -->
      <g style="fill: #262626" transform="translate(853.519219 275.026719) scale(0.11 -0.11)">
       <defs>
        <path id="ArialMT-49" d="M 597 0 
L 597 4581 
L 1203 4581 
L 1203 0 
L 597 0 
z
" transform="scale(0.015625)"/>
       </defs>
       <use xlink:href="#ArialMT-49"/>
       <use xlink:href="#ArialMT-6e" x="27.783203"/>
       <use xlink:href="#ArialMT-63" x="83.398438"/>
       <use xlink:href="#ArialMT-65" x="133.398438"/>
       <use xlink:href="#ArialMT-6e" x="189.013672"/>
       <use xlink:href="#ArialMT-74" x="244.628906"/>
       <use xlink:href="#ArialMT-69" x="272.412109"/>
       <use xlink:href="#ArialMT-76" x="294.628906"/>
       <use xlink:href="#ArialMT-65" x="344.628906"/>
      </g>
     </g>
    </g>
    <g id="xtick_8">
     <g id="text_8">
      <!-- RemoteWork -->
      <g style="fill: #262626" transform="translate(972.651797 275.026719) scale(0.11 -0.11)">
       <use xlink:href="#ArialMT-52"/>
       <use xlink:href="#ArialMT-65" x="72.216797"/>
       <use xlink:href="#ArialMT-6d" x="127.832031"/>
       <use xlink:href="#ArialMT-6f" x="211.132812"/>
       <use xlink:href="#ArialMT-74" x="266.748047"/>
       <use xlink:href="#ArialMT-65" x="294.53125"/>
       <use xlink:href="#ArialMT-57" x="350.146484"/>
       <use xlink:href="#ArialMT-6f" x="442.78125"/>
       <use xlink:href="#ArialMT-72" x="498.396484"/>
       <use xlink:href="#ArialMT-6b" x="531.697266"/>
      </g>
     </g>
    </g>
   </g>
   <g id="matplotlib.axis_2">
    <g id="ytick_1">
     <g id="line2d_1">
      <path d="M 36.3 222.428982 
L 1069.2 222.428982 
" clip-path="url(#p3e768c0f8d)" style="fill: none; stroke: #cccccc; stroke-linecap: round"/>
     </g>
     <g id="text_9">
      <!-- −2 -->
      <g style="fill: #262626" transform="translate(10.758281 226.365779) scale(0.11 -0.11)">
       <defs>
        <path id="ArialMT-2212" d="M 3381 1997 
L 356 1997 
L 356 2522 
L 3381 2522 
L 3381 1997 
z
" transform="scale(0.015625)"/>
        <path id="ArialMT-32" d="M 3222 541 
L 3222 0 
L 194 0 
Q 188 203 259 391 
Q 375 700 629 1000 
Q 884 1300 1366 1694 
Q 2113 2306 2375 2664 
Q 2638 3022 2638 3341 
Q 2638 3675 2398 3904 
Q 2159 4134 1775 4134 
Q 1369 4134 1125 3890 
Q 881 3647 878 3216 
L 300 3275 
Q 359 3922 746 4261 
Q 1134 4600 1788 4600 
Q 2447 4600 2831 4234 
Q 3216 3869 3216 3328 
Q 3216 3053 3103 2787 
Q 2991 2522 2730 2228 
Q 2469 1934 1863 1422 
Q 1356 997 1212 845 
Q 1069 694 975 541 
L 3222 541 
z
" transform="scale(0.015625)"/>
       </defs>
       <use xlink:href="#ArialMT-2212"/>
       <use xlink:href="#ArialMT-32" x="58.398438"/>
      </g>
     </g>
    </g>
    <g id="ytick_2">
     <g id="line2d_2">
      <path d="M 36.3 176.719387 
L 1069.2 176.719387 
" clip-path="url(#p3e768c0f8d)" style="fill: none; stroke: #cccccc; stroke-linecap: round"/>
     </g>
     <g id="text_10">
      <!-- 0 -->
      <g style="fill: #262626" transform="translate(17.182969 180.656184) scale(0.11 -0.11)">
       <defs>
        <path id="ArialMT-30" d="M 266 2259 
Q 266 3072 433 3567 
Q 600 4063 929 4331 
Q 1259 4600 1759 4600 
Q 2128 4600 2406 4451 
Q 2684 4303 2865 4023 
Q 3047 3744 3150 3342 
Q 3253 2941 3253 2259 
Q 3253 1453 3087 958 
Q 2922 463 2592 192 
Q 2263 -78 1759 -78 
Q 1097 -78 719 397 
Q 266 969 266 2259 
z
M 844 2259 
Q 844 1131 1108 757 
Q 1372 384 1759 384 
Q 2147 384 2411 759 
Q 2675 1134 2675 2259 
Q 2675 3391 2411 3762 
Q 2147 4134 1753 4134 
Q 1366 4134 1134 3806 
Q 844 3388 844 2259 
z
" transform="scale(0.015625)"/>
       </defs>
       <use xlink:href="#ArialMT-30"/>
      </g>
     </g>
    </g>
    <g id="ytick_3">
     <g id="line2d_3">
      <path d="M 36.3 131.009792 
L 1069.2 131.009792 
" clip-path="url(#p3e768c0f8d)" style="fill: none; stroke: #cccccc; stroke-linecap: round"/>
     </g>
     <g id="text_11">
      <!-- 2 -->
      <g style="fill: #262626" transform="translate(17.182969 134.946589) scale(0.11 -0.11)">
       <use xlink:href="#ArialMT-32"/>
      </g>
     </g>
    </g>
    <g id="ytick_4">
     <g id="line2d_4">
      <path d="M 36.3 85.300197 
L 1069.2 85.300197 
" clip-path="url(#p3e768c0f8d)" style="fill: none; stroke: #cccccc; stroke-linecap: round"/>
     </g>
     <g id="text_12">
      <!-- 4 -->
      <g style="fill: #262626" transform="translate(17.182969 89.236993) scale(0.11 -0.11)">
       <defs>
        <path id="ArialMT-34" d="M 2069 0 
L 2069 1097 
L 81 1097 
L 81 1613 
L 2172 4581 
L 2631 4581 
L 2631 1613 
L 3250 1613 
L 3250 1097 
L 2631 1097 
L 2631 0 
L 2069 0 
z
M 2069 1613 
L 2069 3678 
L 634 1613 
L 2069 1613 
z
" transform="scale(0.015625)"/>
       </defs>
       <use xlink:href="#ArialMT-34"/>
      </g>
     </g>
    </g>
    <g id="ytick_5">
     <g id="line2d_5">
      <path d="M 36.3 39.590602 
L 1069.2 39.590602 
" clip-path="url(#p3e768c0f8d)" style="fill: none; stroke: #cccccc; stroke-linecap: round"/>
     </g>
     <g id="text_13">
      <!-- 6 -->
      <g style="fill: #262626" transform="translate(17.182969 43.527398) scale(0.11 -0.11)">
       <defs>
        <path id="ArialMT-36" d="M 3184 3459 
L 2625 3416 
Q 2550 3747 2413 3897 
Q 2184 4138 1850 4138 
Q 1581 4138 1378 3988 
Q 1113 3794 959 3422 
Q 806 3050 800 2363 
Q 1003 2672 1297 2822 
Q 1591 2972 1913 2972 
Q 2475 2972 2870 2558 
Q 3266 2144 3266 1488 
Q 3266 1056 3080 686 
Q 2894 316 2569 119 
Q 2244 -78 1831 -78 
Q 1128 -78 684 439 
Q 241 956 241 2144 
Q 241 3472 731 4075 
Q 1159 4600 1884 4600 
Q 2425 4600 2770 4297 
Q 3116 3994 3184 3459 
z
M 888 1484 
Q 888 1194 1011 928 
Q 1134 663 1356 523 
Q 1578 384 1822 384 
Q 2178 384 2434 671 
Q 2691 959 2691 1453 
Q 2691 1928 2437 2201 
Q 2184 2475 1800 2475 
Q 1419 2475 1153 2201 
Q 888 1928 888 1484 
z
" transform="scale(0.015625)"/>
       </defs>
       <use xlink:href="#ArialMT-36"/>
      </g>
     </g>
    </g>
   </g>
   <g id="PolyCollection_1">
    <defs>
     <path id="m2310b333a1" d="M 103.199302 -76.009738 
L 98.513198 -76.009738 
L 97.423251 -77.056236 
L 96.003179 -78.102735 
L 94.229631 -79.149234 
L 92.103579 -80.195732 
L 89.651578 -81.242231 
L 86.920514 -82.28873 
L 83.966213 -83.335228 
L 80.838956 -84.381727 
L 77.571265 -85.428226 
L 74.174041 -86.474724 
L 70.64534 -87.521223 
L 66.991868 -88.567722 
L 63.257761 -89.614221 
L 59.55063 -90.660719 
L 56.053339 -91.707218 
L 53.012932 -92.753717 
L 50.705073 -93.800215 
L 49.381021 -94.846714 
L 49.21125 -95.893213 
L 50.242301 -96.939711 
L 52.380081 -97.98621 
L 55.404655 -99.032709 
L 59.011722 -100.079207 
L 62.868146 -101.125706 
L 66.665948 -102.172205 
L 70.161783 -103.218703 
L 73.195458 -104.265202 
L 75.68863 -105.311701 
L 77.630324 -106.358199 
L 79.057695 -107.404698 
L 80.038605 -108.451197 
L 80.658779 -109.497696 
L 81.012715 -110.544194 
L 81.195822 -111.590693 
L 81.295939 -112.637192 
L 81.384424 -113.68369 
L 81.509114 -114.730189 
L 81.692068 -115.776688 
L 81.933782 -116.823186 
L 82.223045 -117.869685 
L 82.549049 -118.916184 
L 82.911172 -119.962682 
L 83.322652 -121.009181 
L 83.806821 -122.05568 
L 84.38769 -123.102178 
L 85.078899 -124.148677 
L 85.875577 -125.195176 
L 86.752233 -126.241674 
L 87.667218 -127.288173 
L 88.571681 -128.334672 
L 89.419541 -129.381171 
L 90.17507 -130.427669 
L 90.81625 -131.474168 
L 91.33403 -132.520667 
L 91.729178 -133.567165 
L 92.008885 -134.613664 
L 92.184611 -135.660163 
L 92.271427 -136.706661 
L 92.28796 -137.75316 
L 92.255663 -138.799659 
L 92.196655 -139.846157 
L 92.130378 -140.892656 
L 92.070342 -141.939155 
L 92.022508 -142.985653 
L 91.986336 -144.032152 
L 91.958338 -145.078651 
L 91.936745 -146.125149 
L 91.925257 -147.171648 
L 91.934094 -148.218147 
L 91.977753 -149.264646 
L 92.070254 -150.311144 
L 92.219842 -151.357643 
L 92.425318 -152.404142 
L 92.675491 -153.45064 
L 92.951887 -154.497139 
L 93.233525 -155.543638 
L 93.501843 -156.590136 
L 93.743991 -157.636635 
L 93.953682 -158.683134 
L 94.129952 -159.729632 
L 94.275093 -160.776131 
L 94.393205 -161.82263 
L 94.49022 -162.869128 
L 94.575266 -163.915627 
L 94.662309 -164.962126 
L 94.7707 -166.008624 
L 94.923564 -167.055123 
L 95.143938 -168.101622 
L 95.449575 -169.148121 
L 95.848025 -170.194619 
L 96.333633 -171.241118 
L 96.887528 -172.287617 
L 97.480637 -173.334115 
L 98.078877 -174.380614 
L 98.64904 -175.427113 
L 99.163874 -176.473611 
L 99.605308 -177.52011 
L 99.965397 -178.566609 
L 100.245287 -179.613107 
L 101.467213 -179.613107 
L 101.467213 -179.613107 
L 101.747103 -178.566609 
L 102.107192 -177.52011 
L 102.548626 -176.473611 
L 103.06346 -175.427113 
L 103.633623 -174.380614 
L 104.231863 -173.334115 
L 104.824972 -172.287617 
L 105.378867 -171.241118 
L 105.864475 -170.194619 
L 106.262925 -169.148121 
L 106.568562 -168.101622 
L 106.788936 -167.055123 
L 106.9418 -166.008624 
L 107.050191 -164.962126 
L 107.137234 -163.915627 
L 107.22228 -162.869128 
L 107.319295 -161.82263 
L 107.437407 -160.776131 
L 107.582548 -159.729632 
L 107.758818 -158.683134 
L 107.968509 -157.636635 
L 108.210657 -156.590136 
L 108.478975 -155.543638 
L 108.760613 -154.497139 
L 109.037009 -153.45064 
L 109.287182 -152.404142 
L 109.492658 -151.357643 
L 109.642246 -150.311144 
L 109.734747 -149.264646 
L 109.778406 -148.218147 
L 109.787243 -147.171648 
L 109.775755 -146.125149 
L 109.754162 -145.078651 
L 109.726164 -144.032152 
L 109.689992 -142.985653 
L 109.642158 -141.939155 
L 109.582122 -140.892656 
L 109.515845 -139.846157 
L 109.456837 -138.799659 
L 109.42454 -137.75316 
L 109.441073 -136.706661 
L 109.527889 -135.660163 
L 109.703615 -134.613664 
L 109.983322 -133.567165 
L 110.37847 -132.520667 
L 110.89625 -131.474168 
L 111.53743 -130.427669 
L 112.292959 -129.381171 
L 113.140819 -128.334672 
L 114.045282 -127.288173 
L 114.960267 -126.241674 
L 115.836923 -125.195176 
L 116.633601 -124.148677 
L 117.32481 -123.102178 
L 117.905679 -122.05568 
L 118.389848 -121.009181 
L 118.801328 -119.962682 
L 119.163451 -118.916184 
L 119.489455 -117.869685 
L 119.778718 -116.823186 
L 120.020432 -115.776688 
L 120.203386 -114.730189 
L 120.328076 -113.68369 
L 120.416561 -112.637192 
L 120.516678 -111.590693 
L 120.699785 -110.544194 
L 121.053721 -109.497696 
L 121.673895 -108.451197 
L 122.654805 -107.404698 
L 124.082176 -106.358199 
L 126.02387 -105.311701 
L 128.517042 -104.265202 
L 131.550717 -103.218703 
L 135.046552 -102.172205 
L 138.844354 -101.125706 
L 142.700778 -100.079207 
L 146.307845 -99.032709 
L 149.332419 -97.98621 
L 151.470199 -96.939711 
L 152.50125 -95.893213 
L 152.331479 -94.846714 
L 151.007427 -93.800215 
L 148.699568 -92.753717 
L 145.659161 -91.707218 
L 142.16187 -90.660719 
L 138.454739 -89.614221 
L 134.720632 -88.567722 
L 131.06716 -87.521223 
L 127.538459 -86.474724 
L 124.141235 -85.428226 
L 120.873544 -84.381727 
L 117.746287 -83.335228 
L 114.791986 -82.28873 
L 112.060922 -81.242231 
L 109.608921 -80.195732 
L 107.482869 -79.149234 
L 105.709321 -78.102735 
L 104.289249 -77.056236 
L 103.199302 -76.009738 
z
" style="stroke: #3e3e3e; stroke-width: 3"/>
    </defs>
    <g clip-path="url(#p3e768c0f8d)">
     <use xlink:href="#m2310b333a1" x="0" y="288" style="fill: #cb3335; stroke: #3e3e3e; stroke-width: 3"/>
    </g>
   </g>
   <g id="PolyCollection_2">
    <defs>
     <path id="m7f529e211c" d="M 234.170108 -64.456597 
L 225.767392 -64.456597 
L 224.246866 -65.311901 
L 222.375243 -66.167205 
L 220.149014 -67.022509 
L 217.594711 -67.877813 
L 214.774562 -68.733116 
L 211.788571 -69.58842 
L 208.771767 -70.443724 
L 205.885989 -71.299028 
L 203.306495 -72.154332 
L 201.204717 -73.009636 
L 199.729405 -73.86494 
L 198.988938 -74.720244 
L 199.037632 -75.575548 
L 199.86827 -76.430852 
L 201.412063 -77.286156 
L 203.545904 -78.141459 
L 206.105513 -78.996763 
L 208.902101 -79.852067 
L 211.739813 -80.707371 
L 214.431364 -81.562675 
L 216.810073 -82.417979 
L 218.737486 -83.273283 
L 220.106904 -84.128587 
L 220.843948 -84.983891 
L 220.905755 -85.839195 
L 220.280276 -86.694499 
L 218.986686 -87.549803 
L 217.077028 -88.405106 
L 214.638392 -89.26041 
L 211.794184 -90.115714 
L 208.702762 -90.971018 
L 205.551891 -91.826322 
L 202.548205 -92.681626 
L 199.901887 -93.53693 
L 197.808013 -94.392234 
L 196.426971 -95.247538 
L 195.866942 -96.102842 
L 196.171321 -96.958146 
L 197.313232 -97.813449 
L 199.19805 -98.668753 
L 201.673386 -99.524057 
L 204.544682 -100.379361 
L 207.593682 -101.234665 
L 210.59684 -102.089969 
L 213.341141 -102.945273 
L 215.635797 -103.800577 
L 217.319495 -104.655881 
L 218.264016 -105.511185 
L 218.375835 -106.366489 
L 217.597533 -107.221792 
L 215.910477 -108.077096 
L 213.33934 -108.9324 
L 209.957887 -109.787704 
L 205.894333 -110.643008 
L 201.333845 -111.498312 
L 196.515631 -112.353616 
L 191.722671 -113.20892 
L 187.263414 -114.064224 
L 183.446495 -114.919528 
L 180.551254 -115.774832 
L 178.798152 -116.630136 
L 178.32375 -117.485439 
L 179.164439 -118.340743 
L 181.251755 -119.196047 
L 184.420048 -120.051351 
L 188.425089 -120.906655 
L 192.970292 -121.761959 
L 197.736152 -122.617263 
L 202.408361 -123.472567 
L 206.700905 -124.327871 
L 210.372 -125.183175 
L 213.23251 -126.038479 
L 215.14812 -126.893782 
L 216.037608 -127.749086 
L 215.869836 -128.60439 
L 214.661622 -129.459694 
L 212.477538 -130.314998 
L 209.431355 -131.170302 
L 205.687573 -132.025606 
L 201.460697 -132.88091 
L 197.009797 -133.736214 
L 192.626574 -134.591518 
L 188.616513 -135.446822 
L 185.27433 -136.302125 
L 182.856626 -137.157429 
L 181.555732 -138.012733 
L 181.479088 -138.868037 
L 182.637847 -139.723341 
L 184.946909 -140.578645 
L 188.236585 -141.433949 
L 192.274022 -142.289253 
L 196.790876 -143.144557 
L 201.512823 -143.999861 
L 206.186546 -144.855165 
L 210.60069 -145.710469 
L 214.598728 -146.565772 
L 218.083262 -147.421076 
L 221.012758 -148.27638 
L 223.392711 -149.131684 
L 236.544789 -149.131684 
L 236.544789 -149.131684 
L 238.924742 -148.27638 
L 241.854238 -147.421076 
L 245.338772 -146.565772 
L 249.33681 -145.710469 
L 253.750954 -144.855165 
L 258.424677 -143.999861 
L 263.146624 -143.144557 
L 267.663478 -142.289253 
L 271.700915 -141.433949 
L 274.990591 -140.578645 
L 277.299653 -139.723341 
L 278.458412 -138.868037 
L 278.381768 -138.012733 
L 277.080874 -137.157429 
L 274.66317 -136.302125 
L 271.320987 -135.446822 
L 267.310926 -134.591518 
L 262.927703 -133.736214 
L 258.476803 -132.88091 
L 254.249927 -132.025606 
L 250.506145 -131.170302 
L 247.459962 -130.314998 
L 245.275878 -129.459694 
L 244.067664 -128.60439 
L 243.899892 -127.749086 
L 244.78938 -126.893782 
L 246.70499 -126.038479 
L 249.5655 -125.183175 
L 253.236595 -124.327871 
L 257.529139 -123.472567 
L 262.201348 -122.617263 
L 266.967208 -121.761959 
L 271.512411 -120.906655 
L 275.517452 -120.051351 
L 278.685745 -119.196047 
L 280.773061 -118.340743 
L 281.61375 -117.485439 
L 281.139348 -116.630136 
L 279.386246 -115.774832 
L 276.491005 -114.919528 
L 272.674086 -114.064224 
L 268.214829 -113.20892 
L 263.421869 -112.353616 
L 258.603655 -111.498312 
L 254.043167 -110.643008 
L 249.979613 -109.787704 
L 246.59816 -108.9324 
L 244.027023 -108.077096 
L 242.339967 -107.221792 
L 241.561665 -106.366489 
L 241.673484 -105.511185 
L 242.618005 -104.655881 
L 244.301703 -103.800577 
L 246.596359 -102.945273 
L 249.34066 -102.089969 
L 252.343818 -101.234665 
L 255.392818 -100.379361 
L 258.264114 -99.524057 
L 260.73945 -98.668753 
L 262.624268 -97.813449 
L 263.766179 -96.958146 
L 264.070558 -96.102842 
L 263.510529 -95.247538 
L 262.129487 -94.392234 
L 260.035613 -93.53693 
L 257.389295 -92.681626 
L 254.385609 -91.826322 
L 251.234738 -90.971018 
L 248.143316 -90.115714 
L 245.299108 -89.26041 
L 242.860472 -88.405106 
L 240.950814 -87.549803 
L 239.657224 -86.694499 
L 239.031745 -85.839195 
L 239.093552 -84.983891 
L 239.830596 -84.128587 
L 241.200014 -83.273283 
L 243.127427 -82.417979 
L 245.506136 -81.562675 
L 248.197687 -80.707371 
L 251.035399 -79.852067 
L 253.831987 -78.996763 
L 256.391596 -78.141459 
L 258.525437 -77.286156 
L 260.06923 -76.430852 
L 260.899868 -75.575548 
L 260.948562 -74.720244 
L 260.208095 -73.86494 
L 258.732783 -73.009636 
L 256.631005 -72.154332 
L 254.051511 -71.299028 
L 251.165733 -70.443724 
L 248.148929 -69.58842 
L 245.162938 -68.733116 
L 242.342789 -67.877813 
L 239.788486 -67.022509 
L 237.562257 -66.167205 
L 235.690634 -65.311901 
L 234.170108 -64.456597 
z
" style="stroke: #3e3e3e; stroke-width: 3"/>
    </defs>
    <g clip-path="url(#p3e768c0f8d)">
     <use xlink:href="#m7f529e211c" x="0" y="288" style="fill: #477ca8; stroke: #3e3e3e; stroke-width: 3"/>
    </g>
   </g>
   <g id="PolyCollection_3">
    <defs>
     <path id="m2a8cebfb43" d="M 366.086209 -79.356599 
L 352.076291 -79.356599 
L 348.960544 -80.384154 
L 344.995361 -81.411709 
L 340.195861 -82.439263 
L 334.689902 -83.466818 
L 328.734382 -84.494373 
L 322.709836 -85.521928 
L 317.088462 -86.549482 
L 312.376883 -87.577037 
L 309.042251 -88.604592 
L 307.43625 -89.632146 
L 307.734017 -90.659701 
L 309.902625 -91.687256 
L 313.706923 -92.714811 
L 318.751193 -93.742365 
L 324.546226 -94.76992 
L 330.585784 -95.797475 
L 336.415522 -96.82503 
L 341.68118 -97.852584 
L 346.149503 -98.880139 
L 349.702613 -99.907694 
L 352.312345 -100.935249 
L 354.004146 -101.962803 
L 354.820529 -102.990358 
L 354.792429 -104.017913 
L 353.924075 -105.045468 
L 352.194019 -106.073022 
L 349.57192 -107.100577 
L 346.047789 -108.128132 
L 341.667549 -109.155687 
L 336.566393 -110.183241 
L 330.990291 -111.210796 
L 325.296865 -112.238351 
L 319.930436 -113.265905 
L 315.371916 -114.29346 
L 312.071163 -115.321015 
L 310.375307 -116.34857 
L 310.469254 -117.376124 
L 312.342771 -118.403679 
L 315.792424 -119.431234 
L 320.457932 -120.458789 
L 325.883947 -121.486343 
L 331.592568 -122.513898 
L 337.150578 -123.541453 
L 342.218562 -124.569008 
L 346.57514 -125.596562 
L 350.116388 -126.624117 
L 352.83602 -127.651672 
L 354.794857 -128.679227 
L 356.088271 -129.706781 
L 356.818498 -130.734336 
L 357.075901 -131.761891 
L 356.930508 -132.789446 
L 356.432908 -133.817 
L 355.622193 -134.844555 
L 354.537762 -135.87211 
L 353.23151 -136.899665 
L 351.777013 -137.927219 
L 350.272897 -138.954774 
L 348.838794 -139.982329 
L 347.603923 -141.009883 
L 346.690269 -142.037438 
L 346.19396 -143.064993 
L 346.169216 -144.092548 
L 346.618892 -145.120102 
L 347.494059 -146.147657 
L 348.7028 -147.175212 
L 350.126041 -148.202767 
L 351.636645 -149.230321 
L 353.117489 -150.257876 
L 354.47498 -151.285431 
L 355.646005 -152.312986 
L 356.598169 -153.34054 
L 357.324666 -154.368095 
L 357.836051 -155.39565 
L 358.151302 -156.423205 
L 358.290216 -157.450759 
L 358.268438 -158.478314 
L 358.095712 -159.505869 
L 357.777266 -160.533424 
L 357.317697 -161.560978 
L 356.72632 -162.588533 
L 356.022593 -163.616088 
L 355.240141 -164.643642 
L 354.42797 -165.671197 
L 353.647998 -166.698752 
L 352.968799 -167.726307 
L 352.456464 -168.753861 
L 352.164392 -169.781416 
L 352.124303 -170.808971 
L 352.340651 -171.836526 
L 352.789852 -172.86408 
L 353.424535 -173.891635 
L 354.181773 -174.91919 
L 354.99332 -175.946745 
L 355.795569 -176.974299 
L 356.537259 -178.001854 
L 357.183785 -179.029409 
L 357.717922 -180.056964 
L 358.137634 -181.084518 
L 360.024866 -181.084518 
L 360.024866 -181.084518 
L 360.444578 -180.056964 
L 360.978715 -179.029409 
L 361.625241 -178.001854 
L 362.366931 -176.974299 
L 363.16918 -175.946745 
L 363.980727 -174.91919 
L 364.737965 -173.891635 
L 365.372648 -172.86408 
L 365.821849 -171.836526 
L 366.038197 -170.808971 
L 365.998108 -169.781416 
L 365.706036 -168.753861 
L 365.193701 -167.726307 
L 364.514502 -166.698752 
L 363.73453 -165.671197 
L 362.922359 -164.643642 
L 362.139907 -163.616088 
L 361.43618 -162.588533 
L 360.844803 -161.560978 
L 360.385234 -160.533424 
L 360.066788 -159.505869 
L 359.894062 -158.478314 
L 359.872284 -157.450759 
L 360.011198 -156.423205 
L 360.326449 -155.39565 
L 360.837834 -154.368095 
L 361.564331 -153.34054 
L 362.516495 -152.312986 
L 363.68752 -151.285431 
L 365.045011 -150.257876 
L 366.525855 -149.230321 
L 368.036459 -148.202767 
L 369.4597 -147.175212 
L 370.668441 -146.147657 
L 371.543608 -145.120102 
L 371.993284 -144.092548 
L 371.96854 -143.064993 
L 371.472231 -142.037438 
L 370.558577 -141.009883 
L 369.323706 -139.982329 
L 367.889603 -138.954774 
L 366.385487 -137.927219 
L 364.93099 -136.899665 
L 363.624738 -135.87211 
L 362.540307 -134.844555 
L 361.729592 -133.817 
L 361.231992 -132.789446 
L 361.086599 -131.761891 
L 361.344002 -130.734336 
L 362.074229 -129.706781 
L 363.367643 -128.679227 
L 365.32648 -127.651672 
L 368.046112 -126.624117 
L 371.58736 -125.596562 
L 375.943938 -124.569008 
L 381.011922 -123.541453 
L 386.569932 -122.513898 
L 392.278553 -121.486343 
L 397.704568 -120.458789 
L 402.370076 -119.431234 
L 405.819729 -118.403679 
L 407.693246 -117.376124 
L 407.787193 -116.34857 
L 406.091337 -115.321015 
L 402.790584 -114.29346 
L 398.232064 -113.265905 
L 392.865635 -112.238351 
L 387.172209 -111.210796 
L 381.596107 -110.183241 
L 376.494951 -109.155687 
L 372.114711 -108.128132 
L 368.59058 -107.100577 
L 365.968481 -106.073022 
L 364.238425 -105.045468 
L 363.370071 -104.017913 
L 363.341971 -102.990358 
L 364.158354 -101.962803 
L 365.850155 -100.935249 
L 368.459887 -99.907694 
L 372.012997 -98.880139 
L 376.48132 -97.852584 
L 381.746978 -96.82503 
L 387.576716 -95.797475 
L 393.616274 -94.76992 
L 399.411307 -93.742365 
L 404.455577 -92.714811 
L 408.259875 -91.687256 
L 410.428483 -90.659701 
L 410.72625 -89.632146 
L 409.120249 -88.604592 
L 405.785617 -87.577037 
L 401.074038 -86.549482 
L 395.452664 -85.521928 
L 389.428118 -84.494373 
L 383.472598 -83.466818 
L 377.966639 -82.439263 
L 373.167139 -81.411709 
L 369.201956 -80.384154 
L 366.086209 -79.356599 
z
" style="stroke: #3e3e3e; stroke-width: 3"/>
    </defs>
    <g clip-path="url(#p3e768c0f8d)">
     <use xlink:href="#m2a8cebfb43" x="0" y="288" style="fill: #59a257; stroke: #3e3e3e; stroke-width: 3"/>
    </g>
   </g>
   <g id="PolyCollection_4">
    <defs>
     <path id="m983033ba50" d="M 488.881844 -51.027035 
L 487.505656 -51.027035 
L 487.10847 -52.316147 
L 486.579787 -53.605258 
L 485.930627 -54.89437 
L 485.201501 -56.183481 
L 484.46306 -57.472593 
L 483.806995 -58.761704 
L 483.327476 -60.050816 
L 483.097467 -61.339927 
L 483.147211 -62.629039 
L 483.45225 -63.918151 
L 483.935235 -65.207262 
L 484.480985 -66.496374 
L 484.960075 -67.785485 
L 485.254609 -69.074597 
L 485.280764 -70.363708 
L 485.004868 -71.65282 
L 484.451327 -72.941931 
L 483.700987 -74.231043 
L 482.878311 -75.520154 
L 482.126609 -76.809266 
L 481.573311 -78.098377 
L 481.291016 -79.387489 
L 481.262818 -80.676601 
L 481.360566 -81.965712 
L 481.342437 -83.254824 
L 480.873316 -84.543935 
L 479.569623 -85.833047 
L 477.069018 -87.122158 
L 473.121818 -88.41127 
L 467.692034 -89.700381 
L 461.042718 -90.989493 
L 453.769521 -92.278604 
L 446.748457 -93.567716 
L 440.985407 -94.856828 
L 437.391952 -96.145939 
L 436.54875 -97.435051 
L 438.533602 -98.724162 
L 442.874791 -100.013274 
L 448.646619 -101.302385 
L 454.674499 -102.591497 
L 459.785258 -103.880608 
L 463.036583 -105.16972 
L 463.881409 -106.458831 
L 462.250586 -107.747943 
L 458.554296 -109.037055 
L 453.60661 -110.326166 
L 448.477908 -111.615278 
L 444.288754 -112.904389 
L 441.978867 -114.193501 
L 442.105417 -115.482612 
L 444.729141 -116.771724 
L 449.425297 -118.060835 
L 455.415255 -119.349947 
L 461.772991 -120.639058 
L 467.639325 -121.92817 
L 472.384072 -123.217281 
L 475.685037 -124.506393 
L 477.525711 -125.795505 
L 478.135239 -127.084616 
L 477.899415 -128.373728 
L 477.265152 -129.662839 
L 476.652303 -130.951951 
L 476.381944 -132.241062 
L 476.629219 -133.530174 
L 477.407587 -134.819285 
L 478.586553 -136.108397 
L 479.937144 -137.397508 
L 481.192443 -138.68662 
L 482.108128 -139.975732 
L 482.511107 -141.264843 
L 482.330167 -142.553955 
L 481.60743 -143.843066 
L 480.491138 -145.132178 
L 479.210221 -146.421289 
L 478.032015 -147.710401 
L 477.208415 -148.999512 
L 476.921343 -150.288624 
L 477.242057 -151.577735 
L 478.116921 -152.866847 
L 479.384333 -154.155959 
L 480.817012 -155.44507 
L 482.17582 -156.734182 
L 483.259555 -158.023293 
L 483.939505 -159.312405 
L 484.174676 -160.601516 
L 484.009431 -161.890628 
L 483.557702 -163.179739 
L 482.977709 -164.468851 
L 482.440599 -165.757962 
L 482.097259 -167.047074 
L 482.049411 -168.336185 
L 482.331968 -169.625297 
L 482.911697 -170.914409 
L 483.702461 -172.20352 
L 484.591739 -173.492632 
L 485.469543 -174.781743 
L 486.250992 -176.070855 
L 486.887387 -177.359966 
L 487.365487 -178.649078 
L 489.022013 -178.649078 
L 489.022013 -178.649078 
L 489.500113 -177.359966 
L 490.136508 -176.070855 
L 490.917957 -174.781743 
L 491.795761 -173.492632 
L 492.685039 -172.20352 
L 493.475803 -170.914409 
L 494.055532 -169.625297 
L 494.338089 -168.336185 
L 494.290241 -167.047074 
L 493.946901 -165.757962 
L 493.409791 -164.468851 
L 492.829798 -163.179739 
L 492.378069 -161.890628 
L 492.212824 -160.601516 
L 492.447995 -159.312405 
L 493.127945 -158.023293 
L 494.21168 -156.734182 
L 495.570488 -155.44507 
L 497.003167 -154.155959 
L 498.270579 -152.866847 
L 499.145443 -151.577735 
L 499.466157 -150.288624 
L 499.179085 -148.999512 
L 498.355485 -147.710401 
L 497.177279 -146.421289 
L 495.896362 -145.132178 
L 494.78007 -143.843066 
L 494.057333 -142.553955 
L 493.876393 -141.264843 
L 494.279372 -139.975732 
L 495.195057 -138.68662 
L 496.450356 -137.397508 
L 497.800947 -136.108397 
L 498.979913 -134.819285 
L 499.758281 -133.530174 
L 500.005556 -132.241062 
L 499.735197 -130.951951 
L 499.122348 -129.662839 
L 498.488085 -128.373728 
L 498.252261 -127.084616 
L 498.861789 -125.795505 
L 500.702463 -124.506393 
L 504.003428 -123.217281 
L 508.748175 -121.92817 
L 514.614509 -120.639058 
L 520.972245 -119.349947 
L 526.962203 -118.060835 
L 531.658359 -116.771724 
L 534.282083 -115.482612 
L 534.408633 -114.193501 
L 532.098746 -112.904389 
L 527.909592 -111.615278 
L 522.78089 -110.326166 
L 517.833204 -109.037055 
L 514.136914 -107.747943 
L 512.506091 -106.458831 
L 513.350917 -105.16972 
L 516.602242 -103.880608 
L 521.713001 -102.591497 
L 527.740881 -101.302385 
L 533.512709 -100.013274 
L 537.853898 -98.724162 
L 539.83875 -97.435051 
L 538.995548 -96.145939 
L 535.402093 -94.856828 
L 529.639043 -93.567716 
L 522.617979 -92.278604 
L 515.344782 -90.989493 
L 508.695466 -89.700381 
L 503.265682 -88.41127 
L 499.318482 -87.122158 
L 496.817877 -85.833047 
L 495.514184 -84.543935 
L 495.045063 -83.254824 
L 495.026934 -81.965712 
L 495.124682 -80.676601 
L 495.096484 -79.387489 
L 494.814189 -78.098377 
L 494.260891 -76.809266 
L 493.509189 -75.520154 
L 492.686513 -74.231043 
L 491.936173 -72.941931 
L 491.382632 -71.65282 
L 491.106736 -70.363708 
L 491.132891 -69.074597 
L 491.427425 -67.785485 
L 491.906515 -66.496374 
L 492.452265 -65.207262 
L 492.93525 -63.918151 
L 493.240289 -62.629039 
L 493.290033 -61.339927 
L 493.060024 -60.050816 
L 492.580505 -58.761704 
L 491.92444 -57.472593 
L 491.185999 -56.183481 
L 490.456873 -54.89437 
L 489.807713 -53.605258 
L 489.27903 -52.316147 
L 488.881844 -51.027035 
z
" style="stroke: #3e3e3e; stroke-width: 3"/>
    </defs>
    <g clip-path="url(#p3e768c0f8d)">
     <use xlink:href="#m983033ba50" x="0" y="288" style="fill: #905998; stroke: #3e3e3e; stroke-width: 3"/>
    </g>
   </g>
   <g id="PolyCollection_5">
    <defs>
     <path id="m2fe0c2fa18" d="M 617.932419 -43.673982 
L 616.680081 -43.673982 
L 616.349035 -44.86905 
L 615.915105 -46.064119 
L 615.384134 -47.259188 
L 614.781423 -48.454257 
L 614.15322 -49.649326 
L 613.562825 -50.844395 
L 613.080978 -52.039463 
L 612.772216 -53.234532 
L 612.680742 -54.429601 
L 612.820049 -55.62467 
L 613.169658 -56.819739 
L 613.680049 -58.014807 
L 614.284154 -59.209876 
L 614.911726 -60.404945 
L 615.502341 -61.600014 
L 616.013808 -62.795083 
L 616.424662 -63.990152 
L 616.731389 -65.18522 
L 616.942238 -66.380289 
L 617.069685 -67.575358 
L 617.123071 -68.770427 
L 617.102166 -69.965496 
L 616.991856 -71.160565 
L 616.758249 -72.355633 
L 616.347151 -73.550702 
L 615.686671 -74.745771 
L 614.696236 -75.94084 
L 613.303561 -77.135909 
L 611.468935 -78.330978 
L 609.212561 -79.526046 
L 606.637061 -80.721115 
L 603.935289 -81.916184 
L 601.375404 -83.111253 
L 599.261131 -84.306322 
L 597.873904 -85.50139 
L 597.411647 -86.696459 
L 597.942481 -87.891528 
L 599.388265 -89.086597 
L 601.543451 -90.281666 
L 604.12297 -91.476735 
L 606.823778 -92.671803 
L 609.381777 -93.866872 
L 611.609759 -95.061941 
L 613.410186 -96.25701 
L 614.765222 -97.452079 
L 615.711987 -98.647148 
L 616.312354 -99.842216 
L 616.624464 -101.037285 
L 616.679564 -102.232354 
L 616.464976 -103.427423 
L 615.913133 -104.622492 
L 614.897949 -105.817561 
L 613.242119 -107.012629 
L 610.740607 -108.207698 
L 607.204363 -109.402767 
L 602.523035 -110.597836 
L 596.736457 -111.792905 
L 590.095017 -112.987973 
L 583.083546 -114.183042 
L 576.387176 -115.378111 
L 570.792427 -116.57318 
L 567.039261 -117.768249 
L 565.66125 -118.963318 
L 566.861236 -120.158386 
L 570.46238 -121.353455 
L 575.950885 -122.548524 
L 582.596173 -123.743593 
L 589.609794 -124.938662 
L 596.29564 -126.133731 
L 602.153103 -127.328799 
L 606.915861 -128.523868 
L 610.531632 -129.718937 
L 613.103878 -130.914006 
L 614.820991 -132.109075 
L 615.893571 -133.304144 
L 616.510804 -134.499212 
L 616.817643 -135.694281 
L 616.908609 -136.88935 
L 616.832171 -138.084419 
L 616.600661 -139.279488 
L 616.202934 -140.474556 
L 615.618681 -141.669625 
L 614.833882 -142.864694 
L 613.85607 -144.059763 
L 612.726653 -145.254832 
L 611.526469 -146.449901 
L 610.371133 -147.644969 
L 609.395015 -148.840038 
L 608.72639 -150.035107 
L 608.459965 -151.230176 
L 608.63491 -152.425245 
L 609.225418 -153.620314 
L 610.14695 -154.815382 
L 611.276081 -156.010451 
L 612.477519 -157.20552 
L 613.630202 -158.400589 
L 614.645686 -159.595658 
L 615.475576 -160.790727 
L 616.108703 -161.985795 
L 618.503797 -161.985795 
L 618.503797 -161.985795 
L 619.136924 -160.790727 
L 619.966814 -159.595658 
L 620.982298 -158.400589 
L 622.134981 -157.20552 
L 623.336419 -156.010451 
L 624.46555 -154.815382 
L 625.387082 -153.620314 
L 625.97759 -152.425245 
L 626.152535 -151.230176 
L 625.88611 -150.035107 
L 625.217485 -148.840038 
L 624.241367 -147.644969 
L 623.086031 -146.449901 
L 621.885847 -145.254832 
L 620.75643 -144.059763 
L 619.778618 -142.864694 
L 618.993819 -141.669625 
L 618.409566 -140.474556 
L 618.011839 -139.279488 
L 617.780329 -138.084419 
L 617.703891 -136.88935 
L 617.794857 -135.694281 
L 618.101696 -134.499212 
L 618.718929 -133.304144 
L 619.791509 -132.109075 
L 621.508622 -130.914006 
L 624.080868 -129.718937 
L 627.696639 -128.523868 
L 632.459397 -127.328799 
L 638.31686 -126.133731 
L 645.002706 -124.938662 
L 652.016327 -123.743593 
L 658.661615 -122.548524 
L 664.15012 -121.353455 
L 667.751264 -120.158386 
L 668.95125 -118.963318 
L 667.573239 -117.768249 
L 663.820073 -116.57318 
L 658.225324 -115.378111 
L 651.528954 -114.183042 
L 644.517483 -112.987973 
L 637.876043 -111.792905 
L 632.089465 -110.597836 
L 627.408137 -109.402767 
L 623.871893 -108.207698 
L 621.370381 -107.012629 
L 619.714551 -105.817561 
L 618.699367 -104.622492 
L 618.147524 -103.427423 
L 617.932936 -102.232354 
L 617.988036 -101.037285 
L 618.300146 -99.842216 
L 618.900513 -98.647148 
L 619.847278 -97.452079 
L 621.202314 -96.25701 
L 623.002741 -95.061941 
L 625.230723 -93.866872 
L 627.788722 -92.671803 
L 630.48953 -91.476735 
L 633.069049 -90.281666 
L 635.224235 -89.086597 
L 636.670019 -87.891528 
L 637.200853 -86.696459 
L 636.738596 -85.50139 
L 635.351369 -84.306322 
L 633.237096 -83.111253 
L 630.677211 -81.916184 
L 627.975439 -80.721115 
L 625.399939 -79.526046 
L 623.143565 -78.330978 
L 621.308939 -77.135909 
L 619.916264 -75.94084 
L 618.925829 -74.745771 
L 618.265349 -73.550702 
L 617.854251 -72.355633 
L 617.620644 -71.160565 
L 617.510334 -69.965496 
L 617.489429 -68.770427 
L 617.542815 -67.575358 
L 617.670262 -66.380289 
L 617.881111 -65.18522 
L 618.187838 -63.990152 
L 618.598692 -62.795083 
L 619.110159 -61.600014 
L 619.700774 -60.404945 
L 620.328346 -59.209876 
L 620.932451 -58.014807 
L 621.442842 -56.819739 
L 621.792451 -55.62467 
L 621.931758 -54.429601 
L 621.840284 -53.234532 
L 621.531522 -52.039463 
L 621.049675 -50.844395 
L 620.45928 -49.649326 
L 619.831077 -48.454257 
L 619.228366 -47.259188 
L 618.697395 -46.064119 
L 618.263465 -44.86905 
L 617.932419 -43.673982 
z
" style="stroke: #3e3e3e; stroke-width: 3"/>
    </defs>
    <g clip-path="url(#p3e768c0f8d)">
     <use xlink:href="#m2fe0c2fa18" x="0" y="288" style="fill: #df7f20; stroke: #3e3e3e; stroke-width: 3"/>
    </g>
   </g>
   <g id="PolyCollection_6">
    <defs>
     <path id="m5c86793264" d="M 751.717181 -85.133896 
L 741.120319 -85.133896 
L 738.006107 -86.423256 
L 733.793778 -87.712617 
L 728.494973 -89.001977 
L 722.316968 -90.291337 
L 715.673686 -91.580698 
L 709.136687 -92.870058 
L 703.330718 -94.159419 
L 698.803422 -95.448779 
L 695.91324 -96.738139 
L 694.77375 -98.0275 
L 695.2684 -99.31686 
L 697.119841 -100.60622 
L 699.979226 -101.895581 
L 703.501653 -103.184941 
L 707.390194 -104.474301 
L 711.410085 -105.763662 
L 715.385309 -107.053022 
L 719.189277 -108.342382 
L 722.735067 -109.631743 
L 725.965754 -110.921103 
L 728.84485 -112.210463 
L 731.348681 -113.499824 
L 733.463194 -114.789184 
L 735.185866 -116.078544 
L 736.530491 -117.367905 
L 737.530995 -118.657265 
L 738.241034 -119.946626 
L 738.728317 -121.235986 
L 739.065047 -122.525346 
L 739.317339 -123.814707 
L 739.536762 -125.104067 
L 739.756102 -126.393427 
L 739.989714 -127.682788 
L 740.237047 -128.972148 
L 740.487123 -130.261508 
L 740.722191 -131.550869 
L 740.920192 -132.840229 
L 741.056997 -134.129589 
L 741.109797 -135.41895 
L 741.062407 -136.70831 
L 740.911875 -137.99767 
L 740.674471 -139.287031 
L 740.388403 -140.576391 
L 740.110842 -141.865751 
L 739.908384 -143.155112 
L 739.842474 -144.444472 
L 739.953914 -145.733833 
L 740.25174 -147.023193 
L 740.710739 -148.312553 
L 741.278695 -149.601914 
L 741.89066 -150.891274 
L 742.485053 -152.180634 
L 743.016327 -153.469995 
L 743.460941 -154.759355 
L 743.816311 -156.048715 
L 744.094609 -157.338076 
L 744.314364 -158.627436 
L 744.492597 -159.916796 
L 744.639492 -161.206157 
L 744.756544 -162.495517 
L 744.838152 -163.784877 
L 744.875797 -165.074238 
L 744.863314 -166.363598 
L 744.801532 -167.652958 
L 744.700779 -168.942319 
L 744.580301 -170.231679 
L 744.464627 -171.52104 
L 744.377921 -172.8104 
L 744.338128 -174.09976 
L 744.352878 -175.389121 
L 744.418464 -176.678481 
L 744.522031 -177.967841 
L 744.645928 -179.257202 
L 744.772539 -180.546562 
L 744.888047 -181.835922 
L 744.984282 -183.125283 
L 745.058662 -184.414643 
L 745.112767 -185.704003 
L 745.150342 -186.993364 
L 745.175416 -188.282724 
L 745.191033 -189.572084 
L 745.198824 -190.861445 
L 745.199371 -192.150805 
L 745.193126 -193.440165 
L 745.181538 -194.729526 
L 745.168016 -196.018886 
L 745.158389 -197.308247 
L 745.16058 -198.597607 
L 745.183356 -199.886967 
L 745.234293 -201.176328 
L 745.317492 -202.465688 
L 745.431846 -203.755048 
L 745.570621 -205.044409 
L 745.722666 -206.333769 
L 745.87491 -207.623129 
L 746.015277 -208.91249 
L 746.135039 -210.20185 
L 746.229929 -211.49121 
L 746.29993 -212.780571 
L 746.53757 -212.780571 
L 746.53757 -212.780571 
L 746.607571 -211.49121 
L 746.702461 -210.20185 
L 746.822223 -208.91249 
L 746.96259 -207.623129 
L 747.114834 -206.333769 
L 747.266879 -205.044409 
L 747.405654 -203.755048 
L 747.520008 -202.465688 
L 747.603207 -201.176328 
L 747.654144 -199.886967 
L 747.67692 -198.597607 
L 747.679111 -197.308247 
L 747.669484 -196.018886 
L 747.655962 -194.729526 
L 747.644374 -193.440165 
L 747.638129 -192.150805 
L 747.638676 -190.861445 
L 747.646467 -189.572084 
L 747.662084 -188.282724 
L 747.687158 -186.993364 
L 747.724733 -185.704003 
L 747.778838 -184.414643 
L 747.853218 -183.125283 
L 747.949453 -181.835922 
L 748.064961 -180.546562 
L 748.191572 -179.257202 
L 748.315469 -177.967841 
L 748.419036 -176.678481 
L 748.484622 -175.389121 
L 748.499372 -174.09976 
L 748.459579 -172.8104 
L 748.372873 -171.52104 
L 748.257199 -170.231679 
L 748.136721 -168.942319 
L 748.035968 -167.652958 
L 747.974186 -166.363598 
L 747.961703 -165.074238 
L 747.999348 -163.784877 
L 748.080956 -162.495517 
L 748.198008 -161.206157 
L 748.344903 -159.916796 
L 748.523136 -158.627436 
L 748.742891 -157.338076 
L 749.021189 -156.048715 
L 749.376559 -154.759355 
L 749.821173 -153.469995 
L 750.352447 -152.180634 
L 750.94684 -150.891274 
L 751.558805 -149.601914 
L 752.126761 -148.312553 
L 752.58576 -147.023193 
L 752.883586 -145.733833 
L 752.995026 -144.444472 
L 752.929116 -143.155112 
L 752.726658 -141.865751 
L 752.449097 -140.576391 
L 752.163029 -139.287031 
L 751.925625 -137.99767 
L 751.775093 -136.70831 
L 751.727703 -135.41895 
L 751.780503 -134.129589 
L 751.917308 -132.840229 
L 752.115309 -131.550869 
L 752.350377 -130.261508 
L 752.600453 -128.972148 
L 752.847786 -127.682788 
L 753.081398 -126.393427 
L 753.300738 -125.104067 
L 753.520161 -123.814707 
L 753.772453 -122.525346 
L 754.109183 -121.235986 
L 754.596466 -119.946626 
L 755.306505 -118.657265 
L 756.307009 -117.367905 
L 757.651634 -116.078544 
L 759.374306 -114.789184 
L 761.488819 -113.499824 
L 763.99265 -112.210463 
L 766.871746 -110.921103 
L 770.102433 -109.631743 
L 773.648223 -108.342382 
L 777.452191 -107.053022 
L 781.427415 -105.763662 
L 785.447306 -104.474301 
L 789.335847 -103.184941 
L 792.858274 -101.895581 
L 795.717659 -100.60622 
L 797.5691 -99.31686 
L 798.06375 -98.0275 
L 796.92426 -96.738139 
L 794.034078 -95.448779 
L 789.506782 -94.159419 
L 783.700813 -92.870058 
L 777.163814 -91.580698 
L 770.520532 -90.291337 
L 764.342527 -89.001977 
L 759.043722 -87.712617 
L 754.831393 -86.423256 
L 751.717181 -85.133896 
z
" style="stroke: #3e3e3e; stroke-width: 3"/>
    </defs>
    <g clip-path="url(#p3e768c0f8d)">
     <use xlink:href="#m5c86793264" x="0" y="288" style="fill: #e6e64c; stroke: #3e3e3e; stroke-width: 3"/>
    </g>
   </g>
   <g id="PolyCollection_7">
    <defs>
     <path id="meaddb23e41" d="M 881.201842 -81.732893 
L 869.860658 -81.732893 
L 865.519235 -83.333734 
L 859.336781 -84.934574 
L 851.506635 -86.535415 
L 842.789888 -88.136255 
L 834.443888 -89.737096 
L 827.891065 -91.337937 
L 824.239733 -92.938777 
L 823.88625 -94.539618 
L 826.405614 -96.140458 
L 830.775166 -97.741299 
L 835.788809 -99.34214 
L 840.441152 -100.94298 
L 844.130122 -102.543821 
L 846.66465 -104.144661 
L 848.160889 -105.745502 
L 848.91792 -107.346343 
L 849.314598 -108.947183 
L 849.724588 -110.548024 
L 850.438843 -112.148864 
L 851.60297 -113.749705 
L 853.191492 -115.350546 
L 855.034315 -116.951386 
L 856.887708 -118.552227 
L 858.521047 -120.153067 
L 859.78563 -121.753908 
L 860.644388 -123.354749 
L 861.161374 -124.955589 
L 861.465351 -126.55643 
L 861.70605 -128.15727 
L 862.016395 -129.758111 
L 862.48607 -131.358952 
L 863.147387 -132.959792 
L 863.974374 -134.560633 
L 864.8965 -136.161474 
L 865.825356 -137.762314 
L 866.686369 -139.363155 
L 867.443003 -140.963995 
L 868.102873 -142.564836 
L 868.703868 -144.165677 
L 869.288717 -145.766517 
L 869.881708 -147.367358 
L 870.478485 -148.968198 
L 871.051545 -150.569039 
L 871.565795 -152.16988 
L 871.995081 -153.77072 
L 872.332294 -155.371561 
L 872.590104 -156.972401 
L 872.793512 -158.573242 
L 872.968043 -160.174083 
L 873.128666 -161.774923 
L 873.274311 -163.375764 
L 873.390688 -164.976604 
L 873.46022 -166.577445 
L 873.474083 -168.178286 
L 873.43999 -169.779126 
L 873.381591 -171.379967 
L 873.329981 -172.980807 
L 873.311937 -174.581648 
L 873.340874 -176.182489 
L 873.414436 -177.783329 
L 873.518837 -179.38417 
L 873.636763 -180.98501 
L 873.754501 -182.585851 
L 873.865226 -184.186692 
L 873.967885 -185.787532 
L 874.063528 -187.388373 
L 874.151973 -188.989213 
L 874.231079 -190.590054 
L 874.298888 -192.190895 
L 874.356833 -193.791735 
L 874.411395 -195.392576 
L 874.472633 -196.993416 
L 874.550199 -198.594257 
L 874.649132 -200.195098 
L 874.767734 -201.795938 
L 874.898382 -203.396779 
L 875.030351 -204.997619 
L 875.152971 -206.59846 
L 875.257873 -208.199301 
L 875.339982 -209.800141 
L 875.397623 -211.400982 
L 875.432161 -213.001822 
L 875.44741 -214.602663 
L 875.448796 -216.203504 
L 875.44226 -217.804344 
L 875.433068 -219.405185 
L 875.424846 -221.006025 
L 875.419288 -222.606866 
L 875.416651 -224.207707 
L 875.41673 -225.808547 
L 875.41967 -227.409388 
L 875.426098 -229.010229 
L 875.436559 -230.611069 
L 875.450785 -232.21191 
L 875.467407 -233.81275 
L 875.484322 -235.413591 
L 875.499463 -237.014432 
L 875.511477 -238.615272 
L 875.519979 -240.216113 
L 875.542521 -240.216113 
L 875.542521 -240.216113 
L 875.551023 -238.615272 
L 875.563037 -237.014432 
L 875.578178 -235.413591 
L 875.595093 -233.81275 
L 875.611715 -232.21191 
L 875.625941 -230.611069 
L 875.636402 -229.010229 
L 875.64283 -227.409388 
L 875.64577 -225.808547 
L 875.645849 -224.207707 
L 875.643212 -222.606866 
L 875.637654 -221.006025 
L 875.629432 -219.405185 
L 875.62024 -217.804344 
L 875.613704 -216.203504 
L 875.61509 -214.602663 
L 875.630339 -213.001822 
L 875.664877 -211.400982 
L 875.722518 -209.800141 
L 875.804627 -208.199301 
L 875.909529 -206.59846 
L 876.032149 -204.997619 
L 876.164118 -203.396779 
L 876.294766 -201.795938 
L 876.413368 -200.195098 
L 876.512301 -198.594257 
L 876.589867 -196.993416 
L 876.651105 -195.392576 
L 876.705667 -193.791735 
L 876.763612 -192.190895 
L 876.831421 -190.590054 
L 876.910527 -188.989213 
L 876.998972 -187.388373 
L 877.094615 -185.787532 
L 877.197274 -184.186692 
L 877.307999 -182.585851 
L 877.425737 -180.98501 
L 877.543663 -179.38417 
L 877.648064 -177.783329 
L 877.721626 -176.182489 
L 877.750563 -174.581648 
L 877.732519 -172.980807 
L 877.680909 -171.379967 
L 877.62251 -169.779126 
L 877.588417 -168.178286 
L 877.60228 -166.577445 
L 877.671812 -164.976604 
L 877.788189 -163.375764 
L 877.933834 -161.774923 
L 878.094457 -160.174083 
L 878.268988 -158.573242 
L 878.472396 -156.972401 
L 878.730206 -155.371561 
L 879.067419 -153.77072 
L 879.496705 -152.16988 
L 880.010955 -150.569039 
L 880.584015 -148.968198 
L 881.180792 -147.367358 
L 881.773783 -145.766517 
L 882.358632 -144.165677 
L 882.959627 -142.564836 
L 883.619497 -140.963995 
L 884.376131 -139.363155 
L 885.237144 -137.762314 
L 886.166 -136.161474 
L 887.088126 -134.560633 
L 887.915113 -132.959792 
L 888.57643 -131.358952 
L 889.046105 -129.758111 
L 889.35645 -128.15727 
L 889.597149 -126.55643 
L 889.901126 -124.955589 
L 890.418112 -123.354749 
L 891.27687 -121.753908 
L 892.541453 -120.153067 
L 894.174792 -118.552227 
L 896.028185 -116.951386 
L 897.871008 -115.350546 
L 899.45953 -113.749705 
L 900.623657 -112.148864 
L 901.337912 -110.548024 
L 901.747902 -108.947183 
L 902.14458 -107.346343 
L 902.901611 -105.745502 
L 904.39785 -104.144661 
L 906.932378 -102.543821 
L 910.621348 -100.94298 
L 915.273691 -99.34214 
L 920.287334 -97.741299 
L 924.656886 -96.140458 
L 927.17625 -94.539618 
L 926.822767 -92.938777 
L 923.171435 -91.337937 
L 916.618612 -89.737096 
L 908.272612 -88.136255 
L 899.555865 -86.535415 
L 891.725719 -84.934574 
L 885.543265 -83.333734 
L 881.201842 -81.732893 
z
" style="stroke: #3e3e3e; stroke-width: 3"/>
    </defs>
    <g clip-path="url(#p3e768c0f8d)">
     <use xlink:href="#meaddb23e41" x="0" y="288" style="fill: #965a38; stroke: #3e3e3e; stroke-width: 3"/>
    </g>
   </g>
   <g id="PolyCollection_8">
    <defs>
     <path id="m52c4e24a58" d="M 1005.351446 -48.147664 
L 1003.936054 -48.147664 
L 1003.576823 -49.301224 
L 1003.109239 -50.454784 
L 1002.53824 -51.608344 
L 1001.887577 -52.761903 
L 1001.201528 -53.915463 
L 1000.54171 -55.069023 
L 999.978376 -56.222583 
L 999.577289 -57.376142 
L 999.384874 -58.529702 
L 999.415264 -59.683262 
L 999.642493 -60.836822 
L 999.999695 -61.990382 
L 1000.385264 -63.143941 
L 1000.674479 -64.297501 
L 1000.734628 -65.451061 
L 1000.44213 -66.604621 
L 999.700942 -67.758181 
L 998.461555 -68.91174 
L 996.738784 -70.0653 
L 994.624479 -71.21886 
L 992.289694 -72.37242 
L 989.971032 -73.52598 
L 987.939004 -74.679539 
L 986.45157 -75.833099 
L 985.701865 -76.986659 
L 985.772577 -78.140219 
L 986.60883 -79.293778 
L 988.016522 -80.447338 
L 989.685944 -81.600898 
L 991.234305 -82.754458 
L 992.258041 -83.908018 
L 992.386995 -85.061577 
L 991.336009 -86.215137 
L 988.951981 -87.368697 
L 985.253821 -88.522257 
L 980.458886 -89.675817 
L 974.985191 -90.829376 
L 969.41796 -91.982936 
L 964.434934 -93.136496 
L 960.696872 -94.290056 
L 958.723615 -95.443616 
L 958.785501 -96.597175 
L 960.839466 -97.750735 
L 964.527803 -98.904295 
L 969.239332 -100.057855 
L 974.215325 -101.211414 
L 978.672927 -102.364974 
L 981.919993 -103.518534 
L 983.444768 -104.672094 
L 982.975371 -105.825654 
L 980.511292 -106.979213 
L 976.329373 -108.132773 
L 970.962076 -109.286333 
L 965.141882 -110.439893 
L 959.707678 -111.593453 
L 955.478719 -112.747012 
L 953.115615 -113.900572 
L 952.99875 -115.054132 
L 955.15577 -116.207692 
L 959.258746 -117.361252 
L 964.692018 -118.514811 
L 970.671466 -119.668371 
L 976.383489 -120.821931 
L 981.11174 -121.975491 
L 984.329915 -123.12905 
L 985.753488 -124.28261 
L 985.354846 -125.43617 
L 983.350518 -126.58973 
L 980.166658 -127.74329 
L 976.384101 -128.896849 
L 972.662363 -130.050409 
L 969.645862 -131.203969 
L 967.863867 -132.357529 
L 967.643448 -133.511089 
L 969.056764 -134.664648 
L 971.917512 -135.818208 
L 975.8282 -136.971768 
L 980.265231 -138.125328 
L 984.678966 -139.278888 
L 988.584575 -140.432447 
L 991.626294 -141.586007 
L 993.608744 -142.739567 
L 994.498856 -143.893127 
L 994.407202 -145.046686 
L 993.557356 -146.200246 
L 992.248592 -147.353806 
L 990.814088 -148.507366 
L 989.576132 -149.660926 
L 988.801937 -150.814485 
L 988.666657 -151.968045 
L 989.231533 -153.121605 
L 990.443105 -154.275165 
L 992.154278 -155.428725 
L 994.16184 -156.582284 
L 996.250408 -157.735844 
L 998.23168 -158.889404 
L 999.970522 -160.042964 
L 1001.39449 -161.196524 
L 1002.488499 -162.350083 
L 1006.799001 -162.350083 
L 1006.799001 -162.350083 
L 1007.89301 -161.196524 
L 1009.316978 -160.042964 
L 1011.05582 -158.889404 
L 1013.037092 -157.735844 
L 1015.12566 -156.582284 
L 1017.133222 -155.428725 
L 1018.844395 -154.275165 
L 1020.055967 -153.121605 
L 1020.620843 -151.968045 
L 1020.485563 -150.814485 
L 1019.711368 -149.660926 
L 1018.473412 -148.507366 
L 1017.038908 -147.353806 
L 1015.730144 -146.200246 
L 1014.880298 -145.046686 
L 1014.788644 -143.893127 
L 1015.678756 -142.739567 
L 1017.661206 -141.586007 
L 1020.702925 -140.432447 
L 1024.608534 -139.278888 
L 1029.022269 -138.125328 
L 1033.4593 -136.971768 
L 1037.369988 -135.818208 
L 1040.230736 -134.664648 
L 1041.644052 -133.511089 
L 1041.423633 -132.357529 
L 1039.641638 -131.203969 
L 1036.625137 -130.050409 
L 1032.903399 -128.896849 
L 1029.120842 -127.74329 
L 1025.936982 -126.58973 
L 1023.932654 -125.43617 
L 1023.534012 -124.28261 
L 1024.957585 -123.12905 
L 1028.17576 -121.975491 
L 1032.904011 -120.821931 
L 1038.616034 -119.668371 
L 1044.595482 -118.514811 
L 1050.028754 -117.361252 
L 1054.13173 -116.207692 
L 1056.28875 -115.054132 
L 1056.171885 -113.900572 
L 1053.808781 -112.747012 
L 1049.579822 -111.593453 
L 1044.145618 -110.439893 
L 1038.325424 -109.286333 
L 1032.958127 -108.132773 
L 1028.776208 -106.979213 
L 1026.312129 -105.825654 
L 1025.842732 -104.672094 
L 1027.367507 -103.518534 
L 1030.614573 -102.364974 
L 1035.072175 -101.211414 
L 1040.048168 -100.057855 
L 1044.759697 -98.904295 
L 1048.448034 -97.750735 
L 1050.501999 -96.597175 
L 1050.563885 -95.443616 
L 1048.590628 -94.290056 
L 1044.852566 -93.136496 
L 1039.86954 -91.982936 
L 1034.302309 -90.829376 
L 1028.828614 -89.675817 
L 1024.033679 -88.522257 
L 1020.335519 -87.368697 
L 1017.951491 -86.215137 
L 1016.900505 -85.061577 
L 1017.029459 -83.908018 
L 1018.053195 -82.754458 
L 1019.601556 -81.600898 
L 1021.270978 -80.447338 
L 1022.67867 -79.293778 
L 1023.514923 -78.140219 
L 1023.585635 -76.986659 
L 1022.83593 -75.833099 
L 1021.348496 -74.679539 
L 1019.316468 -73.52598 
L 1016.997806 -72.37242 
L 1014.663021 -71.21886 
L 1012.548716 -70.0653 
L 1010.825945 -68.91174 
L 1009.586558 -67.758181 
L 1008.84537 -66.604621 
L 1008.552872 -65.451061 
L 1008.613021 -64.297501 
L 1008.902236 -63.143941 
L 1009.287805 -61.990382 
L 1009.645007 -60.836822 
L 1009.872236 -59.683262 
L 1009.902626 -58.529702 
L 1009.710211 -57.376142 
L 1009.309124 -56.222583 
L 1008.74579 -55.069023 
L 1008.085972 -53.915463 
L 1007.399923 -52.761903 
L 1006.74926 -51.608344 
L 1006.178261 -50.454784 
L 1005.710677 -49.301224 
L 1005.351446 -48.147664 
z
" style="stroke: #3e3e3e; stroke-width: 3"/>
    </defs>
    <g clip-path="url(#p3e768c0f8d)">
     <use xlink:href="#m52c4e24a58" x="0" y="288" style="fill: #e890be; stroke: #3e3e3e; stroke-width: 3"/>
    </g>
   </g>
   <g id="line2d_6">
    <path d="M 100.85625 201.360002 
L 100.85625 128.166359 
" clip-path="url(#p3e768c0f8d)" style="fill: none; stroke: #3e3e3e; stroke-width: 3; stroke-linecap: round"/>
   </g>
   <g id="line2d_7">
    <path d="M 100.85625 192.210796 
L 100.85625 164.76318 
" clip-path="url(#p3e768c0f8d)" style="fill: none; stroke: #3e3e3e; stroke-width: 9; stroke-linecap: round"/>
   </g>
   <g id="line2d_8">
    <path d="M 229.96875 212.913143 
L 229.96875 149.498576 
" clip-path="url(#p3e768c0f8d)" style="fill: none; stroke: #3e3e3e; stroke-width: 3; stroke-linecap: round"/>
   </g>
   <g id="line2d_9">
    <path d="M 229.96875 191.774954 
L 229.96875 149.498576 
" clip-path="url(#p3e768c0f8d)" style="fill: none; stroke: #3e3e3e; stroke-width: 9; stroke-linecap: round"/>
   </g>
   <g id="line2d_10">
    <path d="M 359.08125 198.01314 
L 359.08125 144.368208 
" clip-path="url(#p3e768c0f8d)" style="fill: none; stroke: #3e3e3e; stroke-width: 3; stroke-linecap: round"/>
   </g>
   <g id="line2d_11">
    <path d="M 359.08125 198.01314 
L 359.08125 171.190674 
" clip-path="url(#p3e768c0f8d)" style="fill: none; stroke: #3e3e3e; stroke-width: 9; stroke-linecap: round"/>
   </g>
   <g id="line2d_12">
    <path d="M 488.19375 208.615784 
L 488.19375 155.435023 
" clip-path="url(#p3e768c0f8d)" style="fill: none; stroke: #3e3e3e; stroke-width: 3; stroke-linecap: round"/>
   </g>
   <g id="line2d_13">
    <path d="M 488.19375 190.888864 
L 488.19375 173.161944 
" clip-path="url(#p3e768c0f8d)" style="fill: none; stroke: #3e3e3e; stroke-width: 9; stroke-linecap: round"/>
   </g>
   <g id="line2d_14">
    <path d="M 617.30625 233.695758 
L 617.30625 136.644465 
" clip-path="url(#p3e768c0f8d)" style="fill: none; stroke: #3e3e3e; stroke-width: 3; stroke-linecap: round"/>
   </g>
   <g id="line2d_15">
    <path d="M 617.30625 201.345327 
L 617.30625 168.994896 
" clip-path="url(#p3e768c0f8d)" style="fill: none; stroke: #3e3e3e; stroke-width: 9; stroke-linecap: round"/>
   </g>
   <g id="line2d_16">
    <path d="M 746.41875 192.235843 
L 746.41875 142.588972 
" clip-path="url(#p3e768c0f8d)" style="fill: none; stroke: #3e3e3e; stroke-width: 3; stroke-linecap: round"/>
   </g>
   <g id="line2d_17">
    <path d="M 746.41875 192.235843 
L 746.41875 170.958613 
" clip-path="url(#p3e768c0f8d)" style="fill: none; stroke: #3e3e3e; stroke-width: 9; stroke-linecap: round"/>
   </g>
   <g id="line2d_18">
    <path d="M 875.53125 195.636847 
L 875.53125 123.268818 
" clip-path="url(#p3e768c0f8d)" style="fill: none; stroke: #3e3e3e; stroke-width: 3; stroke-linecap: round"/>
   </g>
   <g id="line2d_19">
    <path d="M 875.53125 195.636847 
L 875.53125 166.590523 
" clip-path="url(#p3e768c0f8d)" style="fill: none; stroke: #3e3e3e; stroke-width: 9; stroke-linecap: round"/>
   </g>
   <g id="line2d_20">
    <path d="M 1004.64375 229.222075 
L 1004.64375 136.280177 
" clip-path="url(#p3e768c0f8d)" style="fill: none; stroke: #3e3e3e; stroke-width: 3; stroke-linecap: round"/>
   </g>
   <g id="line2d_21">
    <path d="M 1004.64375 192.045316 
L 1004.64375 154.868557 
" clip-path="url(#p3e768c0f8d)" style="fill: none; stroke: #3e3e3e; stroke-width: 9; stroke-linecap: round"/>
   </g>
   <g id="patch_3">
    <path d="M 36.3 254.153125 
L 36.3 37.956781 
" style="fill: none; stroke: #cccccc; stroke-width: 1.25; stroke-linejoin: miter; stroke-linecap: square"/>
   </g>
   <g id="patch_4">
    <path d="M 1069.2 254.153125 
L 1069.2 37.956781 
" style="fill: none; stroke: #cccccc; stroke-width: 1.25; stroke-linejoin: miter; stroke-linecap: square"/>
   </g>
   <g id="patch_5">
    <path d="M 36.3 254.153125 
L 1069.2 254.153125 
" style="fill: none; stroke: #cccccc; stroke-width: 1.25; stroke-linejoin: miter; stroke-linecap: square"/>
   </g>
   <g id="patch_6">
    <path d="M 36.3 37.956781 
L 1069.2 37.956781 
" style="fill: none; stroke: #cccccc; stroke-width: 1.25; stroke-linejoin: miter; stroke-linecap: square"/>
   </g>
   <g id="PathCollection_1">
    <defs>
     <path id="m2d5c22b158" d="M 0 3 
C 0.795609 3 1.55874 2.683901 2.12132 2.12132 
C 2.683901 1.55874 3 0.795609 3 0 
C 3 -0.795609 2.683901 -1.55874 2.12132 -2.12132 
C 1.55874 -2.683901 0.795609 -3 0 -3 
C -0.795609 -3 -1.55874 -2.683901 -2.12132 -2.12132 
C -2.683901 -1.55874 -3 -0.795609 -3 0 
C -3 0.795609 -2.683901 1.55874 -2.12132 2.12132 
C -1.55874 2.683901 -0.795609 3 0 3 
z
" style="stroke: #3e3e3e"/>
    </defs>
    <g clip-path="url(#p3e768c0f8d)">
     <use xlink:href="#m2d5c22b158" x="100.85625" y="183.061591" style="fill: #ffffff; stroke: #3e3e3e"/>
    </g>
   </g>
   <g id="PathCollection_2">
    <g clip-path="url(#p3e768c0f8d)">
     <use xlink:href="#m2d5c22b158" x="229.96875" y="170.636765" style="fill: #ffffff; stroke: #3e3e3e"/>
    </g>
   </g>
   <g id="PathCollection_3">
    <g clip-path="url(#p3e768c0f8d)">
     <use xlink:href="#m2d5c22b158" x="359.08125" y="171.190674" style="fill: #ffffff; stroke: #3e3e3e"/>
    </g>
   </g>
   <g id="PathCollection_4">
    <g clip-path="url(#p3e768c0f8d)">
     <use xlink:href="#m2d5c22b158" x="488.19375" y="173.161944" style="fill: #ffffff; stroke: #3e3e3e"/>
    </g>
   </g>
   <g id="PathCollection_5">
    <g clip-path="url(#p3e768c0f8d)">
     <use xlink:href="#m2d5c22b158" x="617.30625" y="168.994896" style="fill: #ffffff; stroke: #3e3e3e"/>
    </g>
   </g>
   <g id="PathCollection_6">
    <g clip-path="url(#p3e768c0f8d)">
     <use xlink:href="#m2d5c22b158" x="746.41875" y="185.143433" style="fill: #ffffff; stroke: #3e3e3e"/>
    </g>
   </g>
   <g id="PathCollection_7">
    <g clip-path="url(#p3e768c0f8d)">
     <use xlink:href="#m2d5c22b158" x="875.53125" y="184.007127" style="fill: #ffffff; stroke: #3e3e3e"/>
    </g>
   </g>
   <g id="PathCollection_8">
    <g clip-path="url(#p3e768c0f8d)">
     <use xlink:href="#m2d5c22b158" x="1004.64375" y="173.456936" style="fill: #ffffff; stroke: #3e3e3e"/>
    </g>
   </g>
  </g>
  <g id="text_14">
   <!-- Violin Plot of all Continuous Variables -->
   <g style="fill: #262626" transform="translate(416.035547 16.496719) scale(0.15 -0.15)">
    <defs>
     <path id="ArialMT-56" d="M 1803 0 
L 28 4581 
L 684 4581 
L 1875 1253 
Q 2019 853 2116 503 
Q 2222 878 2363 1253 
L 3600 4581 
L 4219 4581 
L 2425 0 
L 1803 0 
z
" transform="scale(0.015625)"/>
     <path id="ArialMT-20" transform="scale(0.015625)"/>
     <path id="ArialMT-62" d="M 941 0 
L 419 0 
L 419 4581 
L 981 4581 
L 981 2947 
Q 1338 3394 1891 3394 
Q 2197 3394 2470 3270 
Q 2744 3147 2920 2923 
Q 3097 2700 3197 2384 
Q 3297 2069 3297 1709 
Q 3297 856 2875 390 
Q 2453 -75 1863 -75 
Q 1275 -75 941 416 
L 941 0 
z
M 934 1684 
Q 934 1088 1097 822 
Q 1363 388 1816 388 
Q 2184 388 2453 708 
Q 2722 1028 2722 1663 
Q 2722 2313 2464 2622 
Q 2206 2931 1841 2931 
Q 1472 2931 1203 2611 
Q 934 2291 934 1684 
z
" transform="scale(0.015625)"/>
    </defs>
    <use xlink:href="#ArialMT-56"/>
    <use xlink:href="#ArialMT-69" x="64.949219"/>
    <use xlink:href="#ArialMT-6f" x="87.166016"/>
    <use xlink:href="#ArialMT-6c" x="142.78125"/>
    <use xlink:href="#ArialMT-69" x="164.998047"/>
    <use xlink:href="#ArialMT-6e" x="187.214844"/>
    <use xlink:href="#ArialMT-20" x="242.830078"/>
    <use xlink:href="#ArialMT-50" x="270.613281"/>
    <use xlink:href="#ArialMT-6c" x="337.3125"/>
    <use xlink:href="#ArialMT-6f" x="359.529297"/>
    <use xlink:href="#ArialMT-74" x="415.144531"/>
    <use xlink:href="#ArialMT-20" x="442.927734"/>
    <use xlink:href="#ArialMT-6f" x="470.710938"/>
    <use xlink:href="#ArialMT-66" x="526.326172"/>
    <use xlink:href="#ArialMT-20" x="554.109375"/>
    <use xlink:href="#ArialMT-61" x="581.892578"/>
    <use xlink:href="#ArialMT-6c" x="637.507812"/>
    <use xlink:href="#ArialMT-6c" x="659.724609"/>
    <use xlink:href="#ArialMT-20" x="681.941406"/>
    <use xlink:href="#ArialMT-43" x="709.724609"/>
    <use xlink:href="#ArialMT-6f" x="781.941406"/>
    <use xlink:href="#ArialMT-6e" x="837.556641"/>
    <use xlink:href="#ArialMT-74" x="893.171875"/>
    <use xlink:href="#ArialMT-69" x="920.955078"/>
    <use xlink:href="#ArialMT-6e" x="943.171875"/>
    <use xlink:href="#ArialMT-75" x="998.787109"/>
    <use xlink:href="#ArialMT-6f" x="1054.402344"/>
    <use xlink:href="#ArialMT-75" x="1110.017578"/>
    <use xlink:href="#ArialMT-73" x="1165.632812"/>
    <use xlink:href="#ArialMT-20" x="1215.632812"/>
    <use xlink:href="#ArialMT-56" x="1243.416016"/>
    <use xlink:href="#ArialMT-61" x="1302.740234"/>
    <use xlink:href="#ArialMT-72" x="1358.355469"/>
    <use xlink:href="#ArialMT-69" x="1391.65625"/>
    <use xlink:href="#ArialMT-61" x="1413.873047"/>
    <use xlink:href="#ArialMT-62" x="1469.488281"/>
    <use xlink:href="#ArialMT-6c" x="1525.103516"/>
    <use xlink:href="#ArialMT-65" x="1547.320312"/>
    <use xlink:href="#ArialMT-73" x="1602.935547"/>
   </g>
  </g>
 </g>
 <defs>
  <clipPath id="p3e768c0f8d">
   <rect x="36.3" y="37.956781" width="1032.9" height="216.196344"/>
  </clipPath>
 </defs>
</svg>
